<?xml version="1.0" encoding="utf-8"?>
<!-- Generator: Adobe Illustrator 21.0.2, SVG Export Plug-In . SVG Version: 6.00 Build 0)  -->
<svg role="presentation" version="1.1" id="Layer_1" xmlns="http://www.w3.org/2000/svg" xmlns:xlink="http://www.w3.org/1999/xlink" x="0px" y="0px"
	 viewBox="0 0 273 192" style="enable-background:new 0 0 273 192;" xml:space="preserve">
<style type="text/css">
	.st0{fill:#F8BA54;}
	.st1{fill:#FFFFFF;}
	.st2{fill:#FFCD73;}
	.st3{fill:#F4AB40;}
	.st4{fill:#019547;}
</style>
<path class="st0" d="M114,140.1c2.1-5,14.8-15.9,19.4-17.8c11.7-4.9,10.8-18.8,11.4-29.3c0.7-12.4-0.8-36.3,13.5-37.1
	c2.5-0.1,3.9,0.6,4.7,1.9c6,2.1,1,13.7,2.8,19.2c0.3,0.9,0.6,1.5,1,2.1C173,81,184.2,65.3,187,60.6c5-8.8,8.4-18.7,13.9-27.2
	c2.9-4.6,13.6-14.2,18.3-8.2c1.7,0.7,3,2.3,3.7,5.4c1.3,5.8-5.9,15.1-5.9,15.1c-1.4,2.1-11.8,18.1-11.7,23.5
	c4.2-1.7,15.6-16.6,17.3-18.7c6.6-8,18.9-17.6,24.3-14c0.6,0.4,1.1,0.8,1.5,1.3c0.2,0.1,0.4,0.2,0.6,0.4c5.7,4.5,0.6,9.1-0.9,12.2
	C244.6,57.2,239.7,63,235,69c-1.4,1.8-9.2,11.8-9.5,15.8c5.2-1.1,17.7-13.3,21-15.1c4.7-2.6,12.5-9,15.9-3.6
	c1.6,0.5,2.8,2.2,3.4,5.6c0.1,3.2-8.9,12.4-13.3,16.7c-4.3,4.1-7.2,5.4-10,9.6c0.5-0.3,1.1-0.5,1.8-0.9c3.8-1.9,16.2-11.1,18.2-5.7
	c1.3,0.2,2.2,1,2.3,2.8c0.5,6.5-14.2,20-19.2,23c-6.9,4.1-13.9,8-20.9,11.8l-11.5,8c-7.1,4.4-15,13.2-17.7,21.5
	c-1.4,4.2-7.2,22.4-10.7,25c-4.6,3.5-11.4-3.1-15.5-4.9c-6.4-2.8-15.4-2.4-22.2-3.7c-4.1-0.8-8-3.3-11.7-6.3
	c-4.2-3.1-8.1-7.1-11.6-10.3C119.2,154.2,111.2,146.8,114,140.1z"/>
<path class="st1" d="M145.4,174c-5.9-1.8-11.4-7-16.2-11.5c-1.1-1-2.1-2-3.1-2.9c-4.4-3.9-12.5-11.2-9.7-17.8
	c2.1-5,14.7-15.8,19.2-17.7c10.6-4.4,11-15.8,11.4-25.9c0.1-1.3,0.1-2.5,0.2-3.7c0.1-1.7,0.2-3.6,0.2-5.6c0.4-12.9,0.9-30.6,13-31.2
	c0.9,0,1.7,0,2.4,0.2c3.6,1.1,3.1,5.8,2.6,10.8c-0.3,3-0.6,6.1,0.1,8.3c0.7,2.1,1.8,3.5,3.3,3.9l0,0c6.8,2.1,18.6-15.4,20.5-18.7
	c2.2-3.9,4.2-8.1,6.1-12.2c2.4-5.1,4.8-10.3,7.8-15.1c2.3-3.6,10.4-11.3,15.5-9.8c1.8,0.6,3.1,2.3,3.8,5.2
	c1.3,5.5-5.8,14.7-5.9,14.8c-0.1,0.2-13.3,19.9-11.6,24.7c0.2,0.5,0.6,0.9,1.1,1.1c0.1,0,0.2,0.1,0.3,0.1
	c2.7,0.4,10.7-9.2,17.4-17.6c0.5-0.6,0.8-1.1,1.1-1.3c5.4-6.6,10.9-10,12.9-11.3c0.4-0.3,0.7-0.4,0.8-0.6c0.7-0.4,5.9-3.6,9.1-2.6
	c0.4,0.1,0.7,0.3,1,0.5c4.4,3.4,2.2,6.8,0.2,9.8c-0.5,0.7-0.9,1.4-1.2,2c-2.8,5.8-6.9,10.9-10.8,15.9c-0.7,0.9-1.4,1.8-2.1,2.7
	c-4,5.1-10.4,14.1-9.5,17c0.2,0.5,0.5,0.8,1,1c2.7,0.9,9.2-4.5,14.8-9.3c3.2-2.7,6.3-5.3,7.7-5.8c1.2-0.5,2.6-1.3,4.1-2.1
	c3.2-1.8,6.8-3.9,9.4-3.1c1.7,0.5,2.7,2.3,3.3,5.3c0.1,2.9-8.3,11.6-13.2,16.3c-1.5,1.4-2.9,2.5-4,3.5c-3.3,2.7-5.7,4.7-8.4,10.7
	c-0.1,0.1,0,0.3,0.1,0.4c0,0,0.1,0.1,0.1,0.1c0.1,0,0.2,0,0.3,0c2.9-2.1,2.9-2.1,6.3-3.8c0.8-0.4,1.9-1.1,3.2-1.9
	c4.1-2.5,10.3-6.3,13.2-5.3c0.9,0.3,1.5,1.1,1.6,2.4c0.5,6.3-14.2,19.8-19,22.6c-7,4.1-14.1,8.1-20.9,11.8l-11.5,8.1
	c-6.7,4.1-14.9,12.9-17.9,21.7l-0.3,0.9c-1.8,5.3-7.1,21.5-10.3,24c-1.3,1-3,1.2-5.1,0.5c-2.1-0.7-4.4-2.1-6.4-3.4
	c-1.3-0.9-2.6-1.7-3.7-2.1c-0.7-0.3-1.5-0.6-2.3-0.9c-3.7-1.2-8-1.5-12.2-1.9c-2.8-0.3-5.4-0.5-7.8-1
	C146.6,174.4,146,174.2,145.4,174z M166.1,140.5c0.3,0.2,0.2,1.2,0.2,1.7c0,0.2,0,0.4,0,0.5c0,0.7,0,1.3,0,2l0,0.3
	c0,1.7-0.1,3.5-0.2,5.3c0,0.6-0.1,1.2-0.2,1.8c-0.2,2.1-0.4,4.4,0.1,6.3l0.3,1.1c0,0.1,0.1,0.2,0.2,0.2c0,0,0,0,0.1,0
	c0.1,0,0.3-0.1,0.3-0.2l0.5-1c0.9-1.7,1.3-3.7,1.6-5.6c0.1-0.5,0.2-1,0.3-1.5c0.6-3.1,1.2-5.8,1.9-8.5c0.2-0.7,0.2-1.4,0.3-2
	c0.1-0.6,0.1-1.1,0.3-1.6c0.2-1.1,0.4-1.2,1.6-1.8l0.1-0.1c1.5-0.8,2.9-1.8,4.3-2.8c0.8-0.6,1.6-1.2,2.5-1.7c2.1-1.4,6.5-3.7,7.2-4
	c0.7-0.2,1.2-0.7,1.2-1.3c0-0.6-0.4-1.2-1.1-1.4c-0.1,0-0.2-0.1-0.3-0.1c-0.7-0.1-1.5,0.4-2.2,0.8c-0.2,0.1-0.4,0.3-0.5,0.3
	c-0.6,0.3-1.3,0.5-1.9,0.8c-0.9,0.3-1.8,0.7-2.7,1.2c-2.2,1.3-4,2.3-6.1,3.2c-0.1,0.1-0.3,0.1-0.4,0.2c-0.5,0.2-1.3,0.6-1.6,0.5
	c0,0,0,0,0,0c-0.1-0.1,0-0.7,0.1-1.7c0-0.4,0.1-0.8,0.1-1.1c0-1.9,0-3.9,0.1-5.8c0.2-4.3,0.4-8.7-0.7-13l-0.2-0.9
	c0-0.1-0.1-0.2-0.2-0.2c0,0,0,0,0,0c-0.1,0-0.3,0-0.4,0.1l-0.6,0.8c-1.6,2.2-1.8,5.9-2,9.1c-0.1,1.1-0.1,2.1-0.2,3
	c-0.1,1.2-0.2,2.4-0.3,3.5l0,0.1c-0.2,2.3-0.4,4.6-0.9,6.7c-0.4,1.6-1.9,2.9-3.4,4.1l-0.1,0c-0.4,0.3-0.8,0.6-1.1,0.9
	c-1,0.9-1.9,1.7-2.9,2.5c-1,0.8-2.1,1.8-3.1,2.7c-0.5,0.4-1,0.9-1.6,1.3c-2,1.5-4.2,3.2-4.6,5.6l0,0.3c0,0.1,0,0.3,0.1,0.3l0.2,0.2
	c0.2,0.2,0.4,0.3,0.7,0.4c1.6,0.5,3.7-1.1,5.9-2.9c0.4-0.3,0.7-0.6,0.9-0.7c2.1-1.5,3.9-3.3,5.7-5.2l0.8-0.8
	c0.2-0.2,0.3-0.4,0.5-0.6C164.8,141.3,165.6,140.3,166.1,140.5C166,140.4,166,140.5,166.1,140.5z"/>
<path class="st2" d="M125.9,159.9c6,5.4,13.2,13.4,21.2,14.9c6.8,1.3,15.9,0.9,22.2,3.7c4.1,1.8,11,8.4,15.5,4.9
	c3.5-2.7,9.3-20.8,10.7-25c2.8-8.3,10.6-17.1,17.7-21.5l11.5-8c6.8-3.7,13.6-7.5,20.3-11.4c-0.3-1.3-0.3-3.3-0.1-3.9
	c0.3-1.3,1.3-3.1,2.8-2.9c0.2,1.6,0.3,3.5-0.2,5.2c1.2-0.9,2.5-2,4-3.2l0,0c-0.2-0.3-1.2-1.9-1.4-2.5c0.9,0.3,2.2,0.4,3.3,0.7
	c5.6-5.3,11.6-12.4,11.2-16.6c-0.6-7.8-14.5,2.5-18.5,4.5c-3.4,1.7-3.4,1.7-6.3,3.8c3.7-8.2,6.8-8.8,12.4-14.1
	c4.5-4.2,13.4-13,13.3-16.7c-1.9-11.7-11.9-2.4-17.2-0.4c-3.8,1.5-18.1,16.4-22.3,15.1c-3.9-1.2,7.1-15,8.8-17.1
	c2.1-2.7,4.2-5.7,6.3-8.5c-1.1-0.8-3-2.6-3.5-4.6c1.6,0.4,4.1,0.5,5.5,1.4c0,0,0.1,0.1,0.1,0.1c1.6-2.4,3.2-4.8,4.6-7.3
	c2-3.5,6.4-7.9,0.7-12.4c-3-2.3-9.2,1.3-10.4,2.1c-1.3,0.9-7.4,4-13.9,12c-1.8,2.2-14.9,19.3-18.1,18.8c-5.4-0.8,8.7-22.8,10.4-25.3
	c0-0.1,7.3-9.4,5.9-15.1c-0.6-2.4-1.5-4-2.7-4.8c0,0.2-0.1,0.3-0.1,0.4c-0.4,1.2-1.5,3-3,2.7c0-1.3,0-2.7,0.3-4
	c-1.4,0-2.9,0.5-4.4,1.2c0.4,0.5,1.6,2.6,1.7,3.2c-1.3-0.5-3.2-0.7-4.6-1.4c-3,2.2-5.8,5.1-7,7.1c-5.5,8.5-8.8,18.4-13.9,27.2
	c-1,1.7-3,4.8-5.5,8c0.6,0.7,2.1,3.3,2.2,3.9c-1.2-0.4-3-0.7-4.4-1.3c-5.8,6.6-12.9,12.2-15.5,4.3c-2.1-6.2,4.5-20.1-5.5-19.6
	c-3.8,0.2-6.5,2-8.4,4.9c1.1,0.6,2.2,1.7,1.9,2.9c-1,0-2.2-0.1-3.3-0.3c-0.8,1.8-1.4,3.9-1.9,6.1c1-1.1,4.8-3.2,5.4-3.2
	c-0.7,1.5-1.1,3.9-2.2,5.3c-0.8,1-2.5,1.7-3.9,1.9c-0.9,6.8-0.8,14.3-1.1,19.6c-0.6,10.5,0.3,24.4-11.4,29.3
	c-4.6,1.9-17.3,12.8-19.4,17.8C113.2,148.4,121.3,155.8,125.9,159.9z M246,104.6c1.6-0.9,0.5-1.4,1.1-2.6c0.5-1.1,2-1,2.7-0.1
	c0.4,0.5,0.4,1.1,0.7,1.6c0.3,0.5,0.9,0.8,1.2,1.2c0.5,0.7,1.3,2.5,0.9,3.3c-0.6,1.1-2.1,0.4-3.1,0.4c-0.8,0-1.6,1.8-2,0.2l-0.2-0.3
	c-0.4-1.1-1.8-0.7-2.5-1.5C243.4,105.4,245.1,105.1,246,104.6z M162.2,68.4c-0.5,0.3-1.1,0.2-1.7,0.5c-0.5,0.3-0.9,0.8-1.4,1
	c-0.8,0.4-2.7,1-3.4,0.4c-1-0.7-0.1-2.1,0-3.2c0.1-0.8,1.4-3.9,2.3-4.5c1.6-1.1,1.8,0.6,2.1,1.5c0.6,1.8,1.3,0.7,2.4,1.5
	C163.5,66.3,163.2,67.8,162.2,68.4z M161.7,107.9c-1.4-0.6-3.7-1.8-4.8-3.1c-1.1-1.3-1.3-3.8-1.1-5.3c3.2,0.7,4.5,2.3,5.7,5.2
	C161.8,105.9,161.7,107.3,161.7,107.9z M167.7,106.3c-0.7,1.1-2.2,2.5-3.6,1.9c0.6-2.8,1.7-6.2,4.6-6.8
	C169.2,102.4,168.2,105.5,167.7,106.3z M191.2,71c-0.4,1.2-1.5,3-3,2.7c-0.1-2.8,0.1-6.4,2.8-7.7c0,0,0,0,0,0l0,0l0,0
	C191.7,66.8,191.5,70.1,191.2,71z M189.6,79.8c-1.7,0.7-0.6,1.3-1.3,2.5c-0.6,1-2.1,0.8-2.7-0.1c-0.3-0.5-0.3-1.1-0.6-1.7
	c-0.3-0.5-0.9-0.9-1.1-1.3c-0.4-0.7-1.1-2.6-0.7-3.4c0.7-1,2.1-0.2,3.1-0.2c0.8,0,4,1.2,4.6,2C192.2,79.2,190.5,79.4,189.6,79.8z
	 M186.4,100.9c-1.6-0.5-4-0.8-5.4-1.9c-1.4-1-2.2-3.3-2.3-4.9C181.8,94,185.9,97.3,186.4,100.9z M187,102.4c0.8,0,2.6-0.4,2.9,1.1
	c0.6,0.3,1.3,0.4,1.8,0.9c1.2,1.6-0.5,1.8-1.4,2.2c-1.7,0.7-0.6,1.3-1.3,2.5c-0.6,1-2.1,0.8-2.7-0.1c-0.3-0.5-0.3-1.1-0.6-1.7
	c-0.3-0.5-0.9-0.9-1.1-1.3c-0.4-0.7-1.1-2.6-0.7-3.4C184.5,101.6,186,102.4,187,102.4z M191.9,97.8c-0.4,1.2-1.5,3-3,2.7
	c-0.1-2.8-0.7-7,2.1-8.3C192.1,91.3,192.1,96.9,191.9,97.8z M214.5,37.4c-0.3-0.5-0.3-1.1-0.6-1.7c-0.3-0.5-0.9-0.9-1.1-1.3
	c-0.4-0.7-1.1-2.6-0.7-3.4c0.7-1,2.1-0.2,3.2-0.2c2.2-0.1,4,1.2,4.6,2c1.2,1.6-0.5,1.8-1.4,2.2c-1.7,0.7-0.6,1.3-1.3,2.5
	C216.5,38.6,215.1,38.4,214.5,37.4z M195.5,119.1c0.3,0.5,0.9,0.8,1.2,1.2c0.5,0.7,1.3,2.5,0.9,3.3c-0.6,1.1-2.1,0.4-3.1,0.4
	c-0.8,0-2.5,0.7-2.9-0.8c-0.6-0.3-1.4-0.3-1.9-0.8c-1.3-1.5,0.3-1.8,1.2-2.3c1.6-0.9,0.5-1.4,1.1-2.6c0.5-1.1,2-1,2.7-0.1
	C195.1,117.9,195.1,118.6,195.5,119.1z M190.1,129c0.3-1.3,1.3-3.1,2.8-2.9c0.3,2.8,0.4,6.4-2.3,7.9
	C189.9,133.2,189.8,129.9,190.1,129z M185,158.2c0.4,1.1-0.6,4.2-1.1,4.9c-0.7,1.1-2.2,2.5-3.6,1.9C180.9,162.2,182,158.8,185,158.2
	z M213.1,78.3c-1.5,2.4-3.8,5.2-6.8,4.7c0,0,0,0,0,0l0,0c0,0,0,0,0,0c0-1.2,2-3.7,2.7-4.2C210.2,78,212.1,77.2,213.1,78.3z
	 M218.4,79.4c-1.1,0.5-1.9-1-2.7-1.6c-0.7-0.5-2.4-1.3-2.6-4.3c-0.1-2,1.4-1.2,2.4-1c1.8,0.4,1.3-0.8,2.5-1.3
	c1.1-0.5,2.2,0.5,2.1,1.7c0,0.6-0.4,1.1-0.5,1.7c0,0.6,0.2,1.2,0.2,1.7C219.8,77.1,219.3,79,218.4,79.4z M232.6,59.7
	c0.3-1.3,1.3-3.1,2.8-2.9c0.3,2.8,0.4,6.4-2.3,7.9C232.5,63.8,232.4,60.6,232.6,59.7z M222.2,111c0.1-1.7-0.3-4.1,0.3-5.7
	c0.6-1.6,2.6-3,4.1-3.6C227.6,104.8,225.9,109.2,222.2,111z M223.3,113.3c2.7-0.9,5.6-2.2,7.6,0.1c0,0,0.6,0.5,0.6,0.5l0,0
	c-0.7,0.9-3.9,1.6-4.8,1.5C225.4,115.4,223.4,114.8,223.3,113.3z M214.4,113.1c0.4-0.5,1-0.6,1.4-1c0.4-0.4,0.6-1.1,0.9-1.4
	c0.6-0.6,2.2-1.8,3.1-1.6c1.2,0.4,0.8,2,1.1,3c0.2,0.8,1.2,2.3-0.2,3c-0.2,0.6,0,1.4-0.4,2c-1.2,1.6-1.8,0-2.5-0.7
	c-1.2-1.4-1.5-0.2-2.8-0.6C213.8,115.5,213.6,114,214.4,113.1z M233.5,50.8c1.6-0.9,0.5-1.4,1.1-2.6c0.5-1.1,2-1,2.7-0.1
	c0.4,0.5,0.4,1.1,0.7,1.6c0.3,0.5,0.9,0.8,1.2,1.2c0.5,0.7,1.3,2.5,0.9,3.3c-0.6,1.1-2.1,0.4-3.1,0.4c-0.8,0-4-0.9-4.8-1.7
	C231,51.6,232.7,51.2,233.5,50.8z M215.4,79.4c1,1.3,2.8,3,3.4,4.6c0.6,1.6-0.1,4-0.9,5.3C213,85.1,215.1,80,215.4,79.4z
	 M195.3,125.6c1.6,0.4,4.1,0.5,5.5,1.4c1.5,0.9,2.5,3.2,2.7,4.7C194.6,131.1,195.6,127.1,195.3,125.6z M175,165.9
	c0.9-0.9,2.1,0.3,3.1,0.6c0.8,0.2,1.7-0.3,1.8,1.5c1,0.8,1.8,0.8,2.2,1.5c0.8,1.8-0.9,1.6-1.9,1.8c-1.8,0.3-0.9,1.2-1.9,2.1
	c-0.9,0.9-2.2,0.3-2.6-0.8c-0.2-0.6,0-1.2-0.2-1.8c-0.2-0.6-0.6-1.1-0.8-1.5C174.5,168.5,174.3,166.5,175,165.9z M172,156.3
	c5.3,1.2,5.9,7.8,5.9,8.4c-1.4-0.9-3.7-1.8-4.8-3.1C171.9,160.3,171.7,157.8,172,156.3z M156.4,144.5c2-1.8,4-3.5,6-5.2
	c1.8-1.6,4.3-3.2,4.8-5.5c0.7-3.3,0.8-7,1.2-10.4c0.4-3.4,0.1-9,2-11.7c1.5,6.1,0.5,12.4,0.6,18.6c0,0.7-0.4,2.6-0.1,3.2
	c0.6,1,2.1,0.1,3.1-0.3c2.2-0.9,4.2-2.1,6.2-3.3c1.4-0.8,3.1-1.2,4.5-1.9c0.5-0.3,1.6-1.2,2.2-1.1c1,0.2,1,1,0.1,1.2
	c0,0-5,2.6-7.4,4.1c-2.3,1.5-4.3,3.2-6.7,4.5c-1.3,0.7-1.8,0.9-2.1,2.4c-0.3,1.2-0.3,2.5-0.6,3.7c-0.7,2.8-1.3,5.6-1.9,8.5
	c-0.5,2.2-0.7,4.9-1.8,6.9c-0.6-2.2-0.1-5.4,0.1-7.8c0.2-2.6,0.2-5.1,0.2-7.6c0-0.9,0.3-2.5-0.6-3c-1.2-0.6-2.4,1.3-3.1,2.1
	c-2,2-4.1,4.2-6.4,5.9c-1.2,0.9-4.9,4.6-6.4,3.3C150.9,148.2,154.4,146.3,156.4,144.5z M158.8,109c0.9-0.9,2.1,0.3,3.1,0.6
	c0.8,0.2,2.7,0.3,2.6,1.9c0.5,0.4,1.1,0.6,1.4,1.2c0.8,1.8-0.9,1.6-1.9,1.8c-1.8,0.3-0.9,1.2-1.9,2.1c-0.9,0.9-2.2,0.3-2.6-0.8
	c-0.2-0.6,0-1.2-0.2-1.8c-0.2-0.6-0.6-1.1-0.8-1.5C158.4,111.6,158.2,109.6,158.8,109z M135.7,144c-0.3-0.5-0.1-0.6,0-0.8
	c1.6,0.4,4.1,0.5,5.6,1.4c1.5,0.9,2.5,3.2,2.7,4.7c-3.2,0.4-4.9-1.1-6.9-3.5c0.1,0.2-0.4-0.6-0.3-0.4l-0.8-1.2
	C136,144.5,135.5,143.8,135.7,144z M133.3,143.8c0.3,2.8,0.4,6.4-2.3,7.9c-0.7-0.9-0.8-4.1-0.6-5
	C130.8,145.4,131.8,143.6,133.3,143.8z M131.4,137.8c1.6-0.9,0.5-1.4,1.1-2.6c0.5-1.1,2-1,2.7-0.1c0.4,0.5,0.4,1.1,0.7,1.6
	c0.3,0.5,0.9,0.8,1.2,1.2c0.5,0.7,1.3,2.5,0.9,3.3c-0.6,1.1-2.1,0.4-3.1,0.4c-0.8,0-2.2,0.7-2.6-0.7c-0.6-0.5-1.6-0.4-2.2-1
	C128.8,138.6,130.5,138.2,131.4,137.8z"/>
<path class="st3" d="M155.7,129.6c2.1,4.3,5.4,8.3,9.6,11.6c4.1,3.2,8.7,5.3,13.1,6.4l4.4-9.1c-3.7-0.5-7.9-2.3-11.8-5.3
	c-3.4-2.6-5.9-5.7-7.5-8.7L155.7,129.6z"/>
<path class="st4" d="M-33.5,272.1l-0.5,0.7c0-0.2,0.1-0.4,0.2-0.6C-33.7,272.1-33.6,272.1-33.5,272.1z"/>
<path class="st0" d="M114,169.1c1.1-5.3-3.1-21.5-5.8-25.7c-6.8-10.7,1.8-21.6,7.3-30.6c6.5-10.6,21.3-29.4,10-38.1
	c-2-1.5-3.6-1.7-5-1.1c-6.1-1.7-8.6,10.7-13.3,14.2c-0.7,0.5-1.4,0.9-2,1.2c-6.1-2-6.4-21.2-5.9-26.7c0.9-10.1,3.7-20.2,4.1-30.3
	c0.2-5.4-3.1-19.5-10.4-17.1c-1.7-0.4-3.8,0.2-6.1,2.3c-4.4,4-3.7,15.8-3.7,15.8c0,2.6-0.6,21.6-3.8,26C77,55.1,76,36.4,75.8,33.7
	C75,23.4,70.3,8.5,63.8,8.4c-0.7,0-1.4,0-1.9,0.2c-0.2,0-0.4,0-0.7,0C54,8.9,55.5,15.6,55,19.1c-1.2,7.5-0.4,15.2,0,22.7
	c0.1,2.2,0.8,14.9-1.2,18.4c-3.7-3.9-7-21-8.6-24.4c-2.4-4.9-5.1-14.5-11-12c-1.6-0.5-3.6,0.2-6,2.6c-1.9,2.6,0.2,15.3,1.5,21.3
	c1.2,5.8,2.8,8.5,2.7,13.6c-0.3-0.5-0.6-1.1-1-1.8c-2-3.7-7-18.4-11.7-15.1c-1.2-0.6-2.4-0.4-3.5,1c-4.2,5.1,0.3,24.6,2.7,29.8
	c3.3,7.3,6.9,14.5,10.5,21.6l4.9,13.2c3.4,7.7,4.8,19.4,2.3,27.8c-1.3,4.3-6.8,22.5-5.5,26.7c1.8,5.5,11.1,4,15.6,4.8
	c6.8,1.3,14,6.8,20.4,9.6c3.8,1.7,8.5,1.9,13.2,1.5c5.3-0.1,10.8-1.2,15.4-1.8C101.6,177.7,112.5,176.3,114,169.1z"/>
<path class="st1" d="M68.8,179.1c-0.6-0.2-1.2-0.4-1.7-0.6c-2.2-1-4.5-2.3-7-3.7c-3.6-2.1-7.4-4.2-11.1-5.3
	c-0.8-0.3-1.6-0.5-2.4-0.6c-1.2-0.2-2.7-0.3-4.3-0.3c-2.4-0.1-5-0.2-7.2-0.9c-2.1-0.7-3.4-1.8-3.9-3.4c-1.2-3.8,3.6-20.2,5.2-25.5
	l0.3-0.9c2.6-8.9,0.8-20.8-2.4-28l-4.9-13.2c-3.4-6.9-7.1-14.2-10.5-21.6c-2.3-5.1-6.7-24.5-2.7-29.4c0.8-1,1.7-1.4,2.7-1.1
	c2.9,0.9,5.9,7.5,7.8,11.9c0.6,1.4,1.2,2.6,1.6,3.4c1.8,3.3,1.8,3.3,3,6.7c0,0.1,0.1,0.2,0.2,0.2c0,0,0.1,0,0.1,0
	c0.2,0,0.3-0.1,0.3-0.3c1.2-6.5,0.3-9.5-0.8-13.6c-0.4-1.5-0.9-3.2-1.3-5.2c-1.4-6.7-3.3-18.6-1.5-21c2.1-2.2,4-3,5.7-2.5
	c2.5,0.8,4.3,4.6,5.9,7.9c0.7,1.6,1.4,3,2.2,4.1c0.9,1.2,1.9,5.1,3,9.2c1.9,7.1,4.1,15.2,6.9,16.1c0.5,0.2,1,0.1,1.4-0.2
	c2.4-1.9,2.2-12.9,1.9-19.3c-0.1-1.2-0.1-2.3-0.2-3.4c-0.4-6.3-0.8-12.9,0.2-19.2c0.1-0.7,0.1-1.5,0.2-2.3c0.1-3.6,0.2-7.6,5.8-7.9
	c0.4,0,0.7,0,1.1,0.1c3.2,1,5.7,6.6,6,7.4c0.1,0.2,0.2,0.5,0.4,0.9c1,2.2,3.5,8.1,4.2,16.6c0,0.3,0.1,0.9,0.1,1.7
	c0.7,10.7,1.8,23.2,4.2,24.4c0.1,0,0.2,0.1,0.3,0.1c0,0,0,0,0,0c0.5,0.2,1,0.1,1.5-0.3c4.1-3,4.5-26.7,4.5-26.9
	c0-0.1-0.6-11.7,3.6-15.5c2.2-2,4.2-2.7,6.1-2.2c5.1,1.6,7.3,12.5,7.2,16.8c-0.2,5.6-1.2,11.3-2.2,16.8c-0.8,4.4-1.6,9-1.9,13.5
	c-0.3,3.8-0.6,24.9,6.2,27.1c1.5,0.5,3.1,0,4.9-1.4c1.8-1.4,3.4-4.1,4.8-6.8c2.4-4.4,4.7-8.5,8.3-7.3c0.7,0.2,1.4,0.6,2.1,1.2
	c9.5,7.4-0.1,22.2-7.1,33c-1.1,1.7-2.1,3.3-3,4.7c-0.6,1-1.3,2-2,3.1c-5.4,8.5-11.5,18.1-5.4,27.8c2.6,4.1,6.8,20.1,5.7,25.5
	c-1.5,7-12.3,8.4-18.1,9.1c-1.3,0.2-2.7,0.4-4.2,0.6C82.2,179.9,74.7,181,68.8,179.1L68.8,179.1z M60,118.1c0.3,0.6,2.6,5,3.6,7.4
	c0.4,0.9,0.7,1.9,1.1,2.8l0,0.1c0.6,1.6,1.1,3.2,1.9,4.7l0.1,0.1c0.6,1.2,0.7,1.4,0.3,2.4c-0.2,0.5-0.5,1-0.7,1.5
	c-0.3,0.6-0.6,1.2-0.9,1.9c-1,2.5-2.1,5.1-3.3,8c-0.2,0.5-0.4,0.9-0.6,1.4c-0.8,1.8-1.7,3.6-1.9,5.6l-0.1,1.1c0,0.1,0.1,0.3,0.2,0.3
	c0,0,0,0,0.1,0c0.1,0,0.2,0,0.3-0.1l0.9-0.7c1.5-1.2,2.6-3.3,3.6-5.1l0-0.1c0.3-0.5,0.6-1,0.9-1.5c0.9-1.5,1.9-3,2.9-4.5l0.1-0.2
	c0.4-0.6,0.7-1.1,1.1-1.7c0.1-0.1,0.2-0.3,0.3-0.5c0.3-0.4,0.8-1.4,1.1-1.3h0c0.4,0.1,0.6,1.5,0.6,2c0,0.3,0.1,0.6,0.1,0.8l0.2,1.1
	c0.5,2.5,0.9,5.1,1.8,7.5c0.1,0.2,0.2,0.6,0.3,1l0,0.1c0.7,2.7,1.5,5.2,3.2,5.7c0.2,0.1,0.5,0.1,0.8,0.1l0.3,0
	c0.1,0,0.2-0.1,0.3-0.2l0.1-0.2c1-2.2,0.1-4.9-0.6-7.2c-0.2-0.7-0.4-1.4-0.6-2c-0.3-1.4-0.7-2.7-1-4c-0.3-1.2-0.6-2.5-1-3.7
	c-0.1-0.5-0.3-1-0.4-1.5c-0.5-1.9-1.1-3.8-0.5-5.3c0.8-2,2-4.1,3.1-6l0,0c0.6-1,1.2-2.1,1.7-3.1c0.4-0.8,0.9-1.6,1.5-2.6
	c1.7-2.8,3.6-5.9,3.6-8.6l0-1c0-0.1-0.1-0.3-0.2-0.3c0,0,0,0,0,0c-0.1,0-0.2,0-0.3,0.1l-0.7,0.6c-3.3,2.9-5.7,6.6-8,10.2
	c-1,1.6-2.1,3.3-3.2,4.8c-0.2,0.2-0.4,0.6-0.5,0.9c-0.6,1.1-0.8,1.4-0.9,1.5c0,0,0,0,0,0c-0.3-0.1-0.8-0.9-1-1.3
	c-0.1-0.1-0.2-0.3-0.2-0.4c-1.2-1.9-2.1-3.8-3.2-6.1c-0.4-0.9-1-1.7-1.5-2.5c-0.4-0.5-0.8-1.1-1.1-1.7c-0.1-0.1-0.2-0.3-0.2-0.5
	c-0.3-0.8-0.7-1.6-1.3-2c-0.1-0.1-0.2-0.1-0.3-0.1c-0.7-0.2-1.4,0-1.7,0.5C59.4,116.8,59.5,117.5,60,118.1z"/>
<path class="st2" d="M111.3,169.2c1.1-5.3-3.1-21.5-5.8-25.7c-6.8-10.7,1.8-21.6,7.3-30.6c2.8-4.6,7.1-10.6,10.2-16.8
	c-1-1-2-2.4-2.1-3.8c-0.1-1.7,0.9-4,1.2-5.6c0.5,0.4,2.4,4.3,2.6,5.8c0.9-2.1,1.5-4.1,1.9-6.1c-1-0.4-2-1-2.9-1.6
	c0.4-1.2,2-1.4,3.2-1.3c0-3.4-1.1-6.5-4.1-8.8c-7.9-6.1-10.4,9-15.7,12.9c-6.6,5-9.3-3.6-10.3-12.4c-1.5-0.3-3.1-1.1-4.3-1.4
	c0.4-0.4,3.1-1.7,4-1.9c-0.3-4-0.2-7.7,0-9.7c0.9-10.1,3.7-20.2,4.1-30.3c0.1-2.4-0.5-6.3-1.7-9.8c-1.5-0.3-3.3-1.1-4.6-1.5
	c0.4-0.4,2.6-1.5,3.2-1.7c-0.8-1.5-1.8-2.7-2.9-3.5c-0.5,1.2-1.3,2.4-2.1,3.5c-1.4-0.6-1.3-2.7-1-3.9c0-0.1,0.1-0.3,0.2-0.4
	c-1.5,0-3.1,0.8-4.9,2.4c-4.3,4-3.7,15.7-3.7,15.8c0,3-0.9,29.2-5.8,26.8c-2.9-1.4-3.9-22.9-4.2-25.8c-0.8-10.2-4.1-16.2-4.6-17.7
	c-0.6-1.3-3.6-7.8-7.4-7.6C54,8.9,55.1,15,54.7,19c-0.2,2.9-0.4,5.7-0.4,8.6c0.1,0,0.1,0,0.2,0c1.7,0.1,3.8,1.4,5.4,2
	c-1.6,1.3-4.2,1.7-5.5,1.8c0.1,3.5,0.1,7.1,0.3,10.6c0.1,2.7,1.4,20.3-2.5,19.1c-4.1-1.3-7.3-21.7-9.7-25.1
	c-3.2-4.6-6.1-18-14.3-9.5c-2.1,3,0.2,15.3,1.5,21.3c1.6,7.5,3.8,9.8,2.2,18.6c-1.2-3.4-1.2-3.4-3.1-6.7
	c-2.2-3.9-7.7-20.3-12.6-14.2c-2.7,3.3-1.8,12.5-0.2,20c1.1,0.4,2.2,1,3.1,1.4c-0.5,0.4-2.2,1.2-2.5,1.3v0c0.5,1.9,0.9,3.6,1.4,4.9
	c0.5-1.6,1.7-3.1,2.8-4.3c1.3,0.7,1.1,2.8,0.7,4c-0.2,0.6-1.3,2.2-2.3,3.2c3.2,7.1,6.7,14.1,10.2,21l4.9,13.2
	c3.4,7.7,4.8,19.4,2.3,27.8c-1.3,4.3-6.8,22.5-5.5,26.7c1.8,5.5,11.1,4,15.6,4.8c6.8,1.3,14,6.8,20.4,9.6c7.5,3.3,18,0.9,26-0.2
	C99,177.9,109.8,176.4,111.3,169.2z M25.4,67.3c-1.1,0.2-2-0.9-3-0.2l-0.3,0.1c-1.2,1.1-0.9-0.8-1.6-1.3c-0.8-0.6-2.5-0.9-2.3-2.1
	c0.1-0.9,1.8-1.9,2.6-2.2c0.5-0.2,1.1-0.1,1.7-0.3c0.6-0.2,0.9-0.7,1.5-0.9c1.1-0.4,2.4,0.4,2.2,1.6c-0.2,1.3-1.4,1.1-0.6,2.8
	C26.2,65.6,27.3,66.9,25.4,67.3z M116.5,80.3c1.4,0,1.3,1.3,2.8,0.2c0.8-0.6,1.9-1.9,2.6-0.1c0.4,1-0.2,4.3-0.7,5
	c-0.5,0.9-0.6,2.6-1.8,2.6c-0.9,0-2.1-1.5-2.5-2.3c-0.2-0.4-0.3-1.1-0.5-1.6c-0.3-0.6-0.9-0.8-1.1-1.4
	C114.7,81.7,115.3,80.3,116.5,80.3z M95.1,113c2.6-1.8,4.7-2.3,7.6-1.1c-0.6,1.4-2.2,3.3-3.9,3.7c-1.7,0.4-4.2,0.1-5.7-0.2
	C93.4,115,94.2,113.8,95.1,113z M91,106.1c2.1,2.2,1,5.6-0.1,8.2c-1.5-0.3-1.9-2.3-1.9-3.6C89.1,109.8,90,106.7,91,106.1z
	 M92.9,64.3L92.9,64.3L92.9,64.3C92.9,64.3,92.9,64.3,92.9,64.3c1.5,2.6-0.4,5.7-2.1,8c-1.4-0.6-1.3-2.7-1-3.9
	C90.2,67.4,91.8,64.7,92.9,64.3z M86.3,73.9c1-0.3,4.3,0.5,5,1c0.9,0.6,2.5,0.7,2.5,2c0,0.9-1.7,2-2.5,2.4c-0.4,0.2-1.1,0.2-1.7,0.4
	c-0.6,0.3-0.9,0.8-1.5,1c-1.1,0.4-2.4-0.2-2.3-1.4c0.1-1.4,1.4-1.2,0.4-2.8C85.6,75.6,84.4,74.5,86.3,73.9z M87,94.5
	c-1,1.2-3,2.7-4.7,2.7c-1.7,0-3.9-1.1-5.5-1.6C79.3,93,84.5,92.6,87,94.5z M77.9,98.5c0,0.9-1.7,2-2.5,2.4c-0.4,0.2-1.1,0.2-1.7,0.4
	c-0.6,0.3-0.9,0.8-1.5,1c-1.1,0.4-2.4-0.2-2.3-1.4c0.1-1.4,1.4-1.2,0.4-2.8c-0.5-0.8-1.8-2,0.1-2.6c0.7-0.2,1.3,0.2,2,0.2
	c1.1-1.1,2.3,0.3,3,0.7C76.3,97.1,77.9,97.3,77.9,98.5z M78,86c1.5,2.6-1.3,5.7-3,8c-1.4-0.6-1.3-2.7-1-3.9
	C74.3,89.1,77.6,84.6,78,86z M87.6,26.1c0.1-1.4,1.4-1.2,0.4-2.8c-0.5-0.8-1.8-2,0.1-2.6c1-0.3,3.2-0.3,5,1c0.8,0.6,2.5,0.7,2.5,2
	c0,0.9-1.7,2-2.5,2.4c-0.4,0.2-1.1,0.2-1.7,0.4c-0.6,0.3-0.9,0.8-1.5,1C88.8,27.9,87.5,27.3,87.6,26.1z M60.5,104.5
	c1.1-0.4,2.4,0.4,2.2,1.6c-0.2,1.3-1.4,1.1-0.6,2.8c0.5,0.9,1.6,2.1-0.3,2.6c-0.7,0.2-1.4-0.3-2.1-0.4c-1.2,1.1-2.2-0.4-2.8-1
	c-0.8-0.6-2.5-0.9-2.3-2.1c0.1-0.9,1.8-1.9,2.6-2.2c0.5-0.2,1.1-0.1,1.7-0.3C59.5,105.2,59.9,104.7,60.5,104.5z M54.4,120.5
	c-1.3-2.7,0.8-5.7,2.7-7.8c1.3,0.7,1.1,2.8,0.7,4C57.4,117.6,55.5,120.2,54.4,120.5z M45.3,151.8c-1.5-0.3-1.9-2.3-1.9-3.6
	c0-0.9,1-4,1.9-4.7C47.4,145.7,46.4,149.2,45.3,151.8z M70.7,64.5c0.3,0.9,0.5,4.1-0.2,5c0,0,0,0,0,0l0,0c0,0,0,0,0,0
	c-2.7-1.3-3-4.9-2.9-7.7C69.1,61.6,70.3,63.3,70.7,64.5z M63.4,56.4c0.3-0.4,0.8-0.8,1.1-1.3c0.3-0.5,0.3-1.2,0.6-1.7
	c0.6-1,2.1-1.2,2.7-0.1c0.7,1.2-0.4,1.8,1.3,2.5c0.9,0.4,2.6,0.6,1.4,2.2c-1.9,2.4-3.8,2-4.6,2c-1,0-2.5,0.8-3.2-0.2
	C62.2,59,62.9,57.1,63.4,56.4z M58.9,39.3c-1.3-2.7,0.8-5.7,2.7-7.8c1.3,0.7,1.1,2.8,0.7,4C61.9,36.3,60.1,39,58.9,39.3z M43.3,73.4
	c0.9,1.2,1.8,3.6,1.3,5.2c-0.5,1.7-2.2,3.5-3,4.9C39.6,80,40.7,75.4,43.3,73.4z M35.4,84.7c-0.8-0.5-3-2.9-3.1-4l0,0
	c0,0,0.8-0.1,0.8-0.1c2.9-0.7,4.6,2,6.3,4.3C38.5,86,36.5,85.4,35.4,84.7z M44.8,91.6c-1.3-0.5-0.8-1.6-2.6-1.1
	c-0.9,0.3-2.4,1.2-2.4-0.8c0-0.7,0.6-1.3,0.8-1.9c-0.8-1.4,0.9-2,1.5-2.6c0.8-0.7,1.4-2.2,2.6-1.8c0.8,0.3,1.5,2.2,1.6,3
	c0.1,0.5-0.1,1.1,0,1.7c0.1,0.6,0.5,1.1,0.6,1.7C46.9,90.9,46,92,44.8,91.6z M66.3,30.2c-1.1,0.2-4.2-0.8-4.9-1.4
	c-0.8-0.6-2.5-0.9-2.3-2.1c0.1-0.9,1.8-1.9,2.6-2.2c0.5-0.2,1.1-0.1,1.7-0.3c0.6-0.2,0.9-0.7,1.5-0.9c1.1-0.4,2.4,0.4,2.2,1.6
	c-0.2,1.3-1.4,1.1-0.6,2.8C67.1,28.5,68.2,29.7,66.3,30.2z M57.5,68.2c0.1-1.5,0.9-3.9,2.3-4.9c1.4-1,3.9-1.3,5.4-1.9
	C65.1,62.1,64,67.5,57.5,68.2z M45.2,111.2c1-1.1,3.2-2.4,4.9-2.3c1.7,0.1,3.8,1.4,5.4,2C54.3,112,52.9,115.8,45.2,111.2z
	 M47.3,158.5c-0.4,0.3-1.1,0.5-1.5,0.8c-0.5,0.4-0.7,1-1.2,1.4c-0.9,0.7-2.4,0.4-2.6-0.8c-0.2-1.3,1-1.5-0.3-2.8
	c-0.7-0.7-2.2-1.5-0.5-2.5c0.7-0.4,1.4,0.1,2.6,0c1.2-1.4,1.6-0.5,2.4-0.2c1,0.3,2.6,0.1,2.9,1.3C49.3,156.4,48,157.9,47.3,158.5z
	 M53.2,153.2c-1.7,0.4-4.1-0.1-5.7-0.2c0.3-0.5,4.6-5.6,9.6-3.6C56.4,150.9,54.8,152.8,53.2,153.2z M77.8,157.3
	c-2,0.2-2.9-5-3.4-6.4c-1-2.7-1.4-5.7-1.9-8.5c-0.2-1-0.1-3.3-1.4-3.5c-1.1-0.1-1.7,1.4-2.2,2.1c-1.4,2.1-2.8,4.2-4.2,6.4
	c-1.2,2-2.6,5-4.4,6.5c0.2-2.3,1.5-4.6,2.4-6.7c1.2-2.7,2.3-5.4,3.3-8c0.5-1.2,1.2-2.2,1.6-3.3c0.6-1.4,0.3-1.8-0.4-3.2
	c-1.2-2.4-1.9-5-3-7.5c-1.1-2.6-3.7-7.6-3.7-7.6c-0.7-0.7-0.1-1.4,0.8-0.9c0.6,0.3,0.9,1.7,1.2,2.2c0.8,1.4,2,2.7,2.7,4.1
	c1,2.2,2,4.2,3.3,6.2c0.6,0.9,1.3,2.5,2.3,2c0.6-0.3,1.4-2.1,1.8-2.7c3.6-5,6.4-10.8,11.1-14.9c0.1,3.4-3.4,7.8-5,10.8
	c-1.6,3-3.6,6.1-4.9,9.3c-0.9,2.2,0.2,4.9,0.8,7.3c0.6,2.6,1.3,5.1,2,7.7C77.2,151.2,79,154.8,77.8,157.3z M93,121
	c-0.4,0.3-1,0.5-1.5,0.8c-0.5,0.4-0.7,1-1.2,1.4c-0.9,0.7-2.4,0.4-2.6-0.8c-0.2-1.3,1-1.5-0.3-2.8c-0.7-0.7-2.2-1.5-0.5-2.5
	c0.6-0.3,1.2-0.2,1.8-0.2c0.8-1.3,2.5-0.3,3.2,0c1,0.3,2.6,0.1,2.9,1.3C95,118.9,93.7,120.5,93,121z M93.6,160.1l-1.3,0.5
	c0.2-0.1-0.7,0.3-0.5,0.2c-3.1,0.8-5.3,1.1-7.7-1.1c1-1.1,3.2-2.4,4.9-2.3c1.7,0.1,3.8,1.4,5.4,2c0.1,0.2,0.1,0.4-0.4,0.6
	C94.2,159.9,93.4,160.2,93.6,160.1z M96.7,165.2c-0.3,0.9-2.2,3.5-3.3,3.8c-1.3-2.7,0.8-5.7,2.7-7.8
	C97.3,161.9,97.2,163.9,96.7,165.2z M100.7,159.9c-0.8,0.2-1.6-0.5-2.3-0.4c-1.1,0.9-1.9-0.5-2.5-0.9c-0.8-0.6-2.5-0.9-2.3-2.1
	c0.1-0.9,1.8-1.9,2.6-2.2c0.5-0.2,1.1-0.1,1.7-0.3c0.6-0.2,0.9-0.7,1.5-0.9c1.1-0.4,2.4,0.4,2.2,1.6c-0.2,1.3-1.4,1.1-0.6,2.8
	C101.5,158.2,102.6,159.4,100.7,159.9z"/>
<path class="st3" d="M85.7,136.7c-4.2,2.3-9.1,3.8-14.5,4.1c-5.2,0.3-10.1-0.6-14.4-2.3l1.6-10c3.3,1.7,7.8,2.6,12.7,2.3
	c4.3-0.2,8.1-1.3,11.1-2.9L85.7,136.7z"/>
</svg>
