<?xml version="1.0" encoding="utf-8"?>
<!-- Generator: Adobe Illustrator 21.0.2, SVG Export Plug-In . SVG Version: 6.00 Build 0)  -->
<svg role="presentation" version="1.1" xmlns="http://www.w3.org/2000/svg" xmlns:xlink="http://www.w3.org/1999/xlink" x="0px" y="0px"
	 viewBox="0 0 196.3 133.8" style="enable-background:new 0 0 196.3 133.8;" xml:space="preserve">
<style type="text/css">
	.st0{fill:#BCA274;}
	.st1{fill:#D1BC9E;}
	.st2{fill:#F3809D;}
	.st3{fill:#F2728B;}
	.st4{fill:#CCCCCC;}
	.st5{fill:#82CDCD;}
	.st6{fill:#5FC6C3;}
</style>
<g id="Layer_1">
	<path class="st0" d="M160.3,124.3l-2.5-0.4l17.4-74c1.4-0.5,1.8-0.5,2.3-2.3c0.6-2.3,0.1-4.1-2.3-5.3c-3.1-2-14.3-6.1-27.3-9.2
		c-13.5-3.2-24.6-4.4-29.4-4c-2.7,0.4-2.8,1-3.4,3.8c-0.3,1.1,0.1,2.2,1.4,3.4l-17.3,73.8l-2.3-0.5c0,0-1.7,6.7-1.7,6.8
		c-0.4,1.7,13.8,7.4,31.5,11.6c17.7,4.1,32,4.5,32.4,2.8C159,130.6,160.3,124.3,160.3,124.3z"/>
	<path class="st1" d="M147.5,33c-17-4-31.4-4.8-32.1-1.9c-0.7,3,12.6,8.6,29.6,12.6c17,4,31.4,4.8,32.1,1.9
		C177.8,42.7,164.6,37,147.5,33z M146.2,41.2c-4.8-1.1-8.4-3.2-8.1-4.7c0.3-1.4,4.5-1.7,9.3-0.6c4.8,1.1,8.4,3.2,8.1,4.7
		C155.1,42.1,151,42.3,146.2,41.2z"/>
	<path class="st2" d="M127.8,118.5c5.9,1.4,23.7,4.5,30.2,5.6l17.5-74.6c-6.6,2.3-22.3-0.3-29.9-2.1c-7.4-1.7-23.2-6.6-28.5-11.4
		l-17.5,74.4C107.6,112.8,123.9,117.6,127.8,118.5z"/>
	<path class="st3" d="M98.7,110c-0.1,0.3-0.1,0.5-0.1,0.8c0.7,0.2,1.7,0.5,2.9,0.9c-0.1-0.3-0.1-0.7,0-1l0.4-1.5c2,0.7,4,1.7,6,2.5
		c2.4,0.9,5,1.7,7.5,2.4c5,1.5,10.1,2.6,15.2,3.8c5.3,1.2,10.6,2.6,16,3.7c2.1,0.4,4.3,0.8,6.4,0.9c1.1,0,2.3,0.3,3.5,0.2l-0.2,0.9
		c-0.1,0.3-0.2,0.6-0.4,0.9c1.2,0.2,2.2,0.4,3,0.5c0.1-0.2,0.2-0.5,0.2-0.8l17.5-74.5c-0.8,0.5-1.9,0.8-3.2,1l-0.2,1
		c-1.4,1.3-5.7,0.6-7.3,0.4c-2.3-0.2-4.6-0.5-6.8-0.9c-2.9-0.5-5.8-1.3-8.7-2c-1.8-0.3-4.2-1-5.6-1.3c-7.9-1.8-24.5-7.2-28.6-12.1
		l-11.3,48.1c-0.1,0.2-0.1,0.3-0.1,0.5L98.7,110z M159.2,110.7c-1.5-0.3-3-0.6-4.5-0.9c1.6,0,3.3-0.3,4.9-0.6L159.2,110.7z
		 M168.9,69.5c-8.7-1.4-17.2-3.8-25.8-5.6c-4.9-1-9.8-2.3-14.7-3.5c4.6,1.1,9.3,1.7,13.9,2.6c4.8,0.9,9.6,1.5,14.5,2.3
		c4.3,0.7,8.6,0.7,12.9,0.9c0,0,0,0,0.1,0L168.9,69.5z M118.2,39.7c4.8,1.5,9.4,3.7,13.9,5.6c4.8,2,9.7,3.6,14.7,5.2
		c4.8,1.5,10,2.9,15,3.3c2.6,0.2,5,0.7,7.6,0.7c0.9,0,2,0,3.1-0.2l-0.8,3.3c-9.2-2.1-18.4-4.1-27.4-6.8c-8.9-2.7-17.4-7.1-26.4-9.7
		L118.2,39.7z M117.4,43.2c4,1.2,7.9,3,11.8,4.4c4.6,1.7,9.3,3.3,13.9,5c4.3,1.6,8.9,2.4,13.4,3.6c3.5,0.9,7.1,1.7,10.7,2.6
		c-0.7,0-1.3-0.1-1.9-0.1c-2.5-0.2-5-0.6-7.5-0.9c-5-0.6-9.8-1.8-14.6-3c-9-2.1-17.3-6.5-26.3-9L117.4,43.2z M116.2,47.9
		c9.4,2.7,18.2,7.1,27.7,9.4l7.6,1.8c2.6,0.6,5.3,0.8,7.9,1.2c3.4,0.5,8,1.4,11.5,0.3l-0.8,3.3c-0.1,0-0.2,0-0.3,0
		c-9.1-1.5-18.2-3.4-27.2-5.5c-5.3-1.2-10.5-2.8-15.5-4.8c-2.2-0.9-4.4-1.8-6.6-2.7c-1.5-0.6-3.1-1.2-4.6-2L116.2,47.9z M115.5,51.2
		c1.1,0.5,2.3,1,3.4,1.4c2.4,1,4.8,2,7.3,3c4.7,1.9,9.6,3.5,14.5,4.6c1,0.2,2.1,0.5,3.1,0.7c-0.3,0-0.6-0.1-0.9-0.1
		c-4.8-0.8-9.5-1.5-14.3-2.6c-4.7-1.1-9.3-2.3-13.9-3.4L115.5,51.2z M113.8,58.5c3.8,1.6,8.1,2.6,12.1,3.6c5,1.3,10,2.5,15.1,3.6
		c4.9,1.1,9.9,2.1,14.8,3.3c4.2,1,8.4,2,12.7,2.7l0,0c-4.5,0.3-9-0.8-13.5-1.2c-2.5-0.3-4.9-0.1-7.4-0.5c-2.5-0.4-5.1-0.9-7.6-1.4
		c-4.8-0.9-9.4-2.1-14.1-3.7c-2.3-0.8-4.8-1.2-7.1-1.8c-1.8-0.4-3.8-1.2-5.7-1.3L113.8,58.5z M112.5,64c2.1,0,4.5,1,6.5,1.5
		c2.4,0.6,4.7,1.1,7,1.9c4.7,1.6,9.3,2.7,14.2,3.7c2.5,0.5,5,1,7.6,1.4c2.4,0.3,4.9,0.2,7.3,0.4c4.2,0.4,8.5,1.4,12.7,1.2l-0.8,4.2
		C148.8,73.7,130.7,68.4,112.5,64L112.5,64z M111.9,66.3c13.6,3.2,26.7,7.9,40.1,12c-3.8-0.7-7.5-1.5-11.3-2.4
		c-9.8-2.3-19.6-5.1-29.5-6.5L111.9,66.3z M110.7,71.5c10,1.4,19.7,4.2,29.5,6.5c5,1.2,10.1,2.2,15.2,3.1c3.4,0.5,6.9,1.4,10.4,1.5
		l-1.2,5.2c-1.9,0-4.2-0.8-6-1.1c-2.3-0.5-4.6-1.1-6.9-1.7c-4.7-1.1-9.4-2.3-14.1-3.7c-4.8-1.5-9.5-3.2-14.3-4.8
		c-4.2-1.4-8.6-2.9-12.7-4.6L110.7,71.5z M110.1,74.1c3.6,1.5,7.5,2.8,11.2,4.1c2.3,0.8,4.5,1.6,6.8,2.4c-6.2-1.4-12.3-2.7-18.5-4.1
		L110.1,74.1z M109,78.6c9.3,2.1,18.6,4.1,27.9,6.2c5.1,1.2,10.2,2.3,15.3,3.6c2.4,0.6,4.8,1.2,7.2,1.8c-3.4,0.9-6.9,1.2-10.2,0.7
		c-5.3-0.8-10.6-2.3-15.8-3.6c-4.9-1.2-9.6-3-14.4-4.4c-2.1-0.6-4.1-1.3-6.2-2c-1.4-0.4-2.8-0.9-4.1-1.5L109,78.6z M108.5,81.3
		c3.2,1.4,6.8,2.6,10.2,3.6c5.3,1.6,10.2,3.3,15.6,4.5c7.3,1.7,13.2,2.9,17.2,3.2c3.7,0.3,6.6-0.2,10.3-1.7c0.2,0.1,1.8,0.6,1.9,0.6
		l0,0c-4.7,1.6-9.1,2.6-14.2,2.3c-4.8-0.3-9.6-1.6-14.3-2.5c-9.3-1.8-18.7-3.8-27.5-7.6L108.5,81.3z M107.3,86.1
		c9,3.8,18.7,5.8,28.2,7.7c4.7,0.9,9.4,2,14.1,2.4c4.8,0.4,9.1-0.6,13.5-2l-1.5,6.4c-4.3-0.2-8.5-1.2-12.8-1.9
		c-5-0.8-9.9-1.4-14.9-2.6c-5-1.2-9.9-2.5-14.9-3.7c-4.2-1-8.3-2.3-12.4-3.3L107.3,86.1z M106.1,91.3c4.2,1,8.3,2.3,12.4,3.3
		c5,1.2,9.9,2.6,14.9,3.7c5,1.2,9.9,1.9,14.9,2.6c4.3,0.6,8.5,1.6,12.8,1.9l-0.6,2.6c-3.6-0.9-7.3-2-10.9-2.9l-14.9-3.5
		c-9.6-2.3-19.2-4.2-28.8-6.5L106.1,91.3z M105.2,94.8c9.6,2.2,19.3,4.2,28.8,6.5l14.2,3.3c3.2,0.8,6.4,1.7,9.6,2.5
		c-9.2,1-18.3-0.8-27.3-2.8c-8.8-1.9-17.2-4.6-25.7-7.7L105.2,94.8z M104.3,98.7c8.7,3.2,17.4,5.9,26.5,7.9c2.5,0.5,5,1.1,7.5,1.6
		c-2.3-0.2-4.6-0.4-6.8-0.8c-9.7-1.4-18.5-4.5-27.3-8.6L104.3,98.7z M103.7,101.2c8.5,3.9,17.1,6.9,26.4,8.4c4.8,0.8,9.5,1,14.3,1.5
		c2.3,0.2,4.5,0.3,6.8,0.4c2.4,0.1,5,0.9,7.4,1.4l-0.2,0.7c-9.3,1.8-18.9-1.2-28.1-3c-4.9-1-9.6-2.3-14.4-3.5
		c-2.4-0.6-4.7-1.3-7-1.9c-1.9-0.5-4-0.8-5.8-1.8L103.7,101.2z M102.7,105.6c1.3,0.6,2.8,0.9,4.3,1.3c2.6,0.7,5.2,1.5,7.8,2.1
		c5.1,1.2,10.1,2.7,15.2,3.7c5.3,1.1,10.7,2.1,16,3.1c4.1,0.7,8,0.7,12,0.1l-1,4.5c-1.5,0.3-3.4-0.1-4.8-0.3
		c-2.3-0.3-4.5-0.6-6.7-1.1c-5.1-1.1-10.1-2.4-15.1-3.5c-4.8-1.1-9.6-2.3-14.4-3.6c-2.6-0.7-5.2-1.5-7.7-2.5c-2-0.8-3.8-1.8-5.8-2.4
		L102.7,105.6z"/>
	<path class="st4" d="M196.3,62.9c0.1-2.5-1.7-5.5-4.4-5.7c-2.8-0.2-4.7,1-7.2,2.2c-15.1,7.3-30.5,14.7-45.7,22
		c3.9,1.2,8.1,1.9,12.1,2.9c8.9-3.5,17.9-7.1,26.8-10.6c4.8-1.9,9.5-3.7,14.3-5.6C194.5,67.2,196.2,65.5,196.3,62.9z M193.1,63.7
		c-0.3,0.8-0.9,1.6-1.8,1.8c-2,0.6-4.1,1.2-6.1,1.9c-5.4,1.7-8.8,2.5-14.3,4.1c6.5-4,10.9-7.5,17.6-11.3
		C191,58.8,194.1,60.8,193.1,63.7z"/>
	<path class="st4" d="M124.8,90.4c-10.5,4.2-20.9,8.4-31.4,12.5c0,0-0.1,0-0.1,0c-1.3,0.8-0.5,3.1,1,2.6c1.2-0.4,2.4-0.7,3.5-1.1
		c7.6-2.4,15.1-4.7,22.7-7.1c3.9-1.2,9.2-3.2,13.1-4.4C131.2,92.1,126.8,91,124.8,90.4z"/>
	<path class="st0" d="M94.3,86.1l-2.5,0.4l-7.9-75.6c1.1-0.9,1.5-1,1.4-2.9C85,5.6,84,4.1,81.3,3.7C77.8,2.9,65.8,2.6,52.5,4
		C38.7,5.5,27.9,8,23.4,10c-2.5,1.3-2.3,1.9-1.9,4.7c0.1,1.2,0.9,2.1,2.5,2.8l7.9,75.4L29.4,93c0,0,0.6,6.9,0.6,7
		c0.2,1.7,15.5,2.4,33.6,0.6c18.1-1.9,31.7-6.2,31.5-8C95.1,92.5,94.3,86.1,94.3,86.1z"/>
	<path class="st1" d="M53.1,4c-17.4,1.8-31.3,5.7-30.9,8.8c0.3,3,14.7,4,32.1,2.2c17.4-1.8,31.3-5.8,31-8.8
		C84.9,3.1,70.5,2.2,53.1,4z M54.6,12.2c-4.9,0.5-9-0.3-9.1-1.7c-0.2-1.5,3.7-3.1,8.6-3.6c4.9-0.5,9,0.3,9.1,1.7
		C63.3,10,59.5,11.7,54.6,12.2z"/>
	<path class="st5" d="M61.3,91.3c6-0.6,23.9-3.6,30.4-4.7l-8-76.2c-5.5,4.3-21.1,7.1-28.9,7.9c-7.5,0.8-24.1,1.4-30.7-1.4l7.9,76
		C40.4,92.5,57.4,91.7,61.3,91.3z"/>
	<path class="st6" d="M31.2,92.5c0,0.3,0.1,0.5,0.1,0.8c0.7,0,1.8-0.1,3.1-0.1c-0.2-0.3-0.3-0.6-0.3-1l-0.2-1.5
		c2.1,0,4.3,0.3,6.5,0.4c2.6,0.1,5.3-0.1,7.9-0.2c5.2-0.3,10.4-0.9,15.6-1.4c5.4-0.6,10.9-1.1,16.3-1.7c2.1-0.3,4.3-0.6,6.3-1.3
		c1.1-0.3,2.3-0.5,3.3-0.9l0.1,0.9c0,0.4,0,0.7-0.1,1c1.2-0.2,2.2-0.4,3-0.5c0-0.3,0-0.5,0-0.8l-8-76.1c-0.7,0.7-1.6,1.4-2.7,2
		l0.1,1c-0.9,1.6-5.2,2.4-6.8,2.8c-2.2,0.5-4.5,1-6.7,1.4c-2.9,0.5-5.9,0.7-8.9,0.9c-1.8,0.3-4.3,0.4-5.7,0.6
		c-8.1,0.8-25.5,1.2-31-2l5.1,49.2c0,0.2,0,0.4,0.1,0.5L31.2,92.5z M88.6,73.3c-1.5,0.2-3.1,0.4-4.6,0.6c1.5-0.6,3-1.3,4.4-2.2
		L88.6,73.3z M84.2,31.2c-8.6,1.5-17.5,2.1-26.2,3.2c-5,0.6-10,1-15.1,1.5c4.7-0.5,9.3-1.4,14-2.2c4.8-0.8,9.6-1.8,14.4-2.6
		c4.3-0.7,8.3-2.2,12.4-3.4c0,0,0,0,0.1,0L84.2,31.2z M26.5,19.7c5-0.1,10,0.4,15,0.7c5.2,0.4,10.4,0.2,15.6,0.1
		c5-0.1,10.4-0.5,15.3-1.8c2.5-0.7,5-1,7.4-1.8c0.8-0.3,1.9-0.7,2.8-1.2l0.3,3.3c-9.4,1-18.8,2.2-28.2,2.6c-9.3,0.4-18.8-1-28.1-0.5
		L26.5,19.7z M26.9,23.3c4.2-0.1,8.4,0.2,12.6,0.3c4.9,0.1,9.8,0.1,14.8,0.2c4.6,0.1,9.2-0.7,13.8-1c3.6-0.3,7.3-0.7,10.9-1.1
		c-0.6,0.2-1.3,0.4-1.9,0.5c-2.5,0.6-4.9,1.1-7.4,1.6c-4.9,1.1-9.8,1.5-14.8,2c-9.2,1-18.5-0.4-27.8,0.1L26.9,23.3z M27.4,28.1
		c9.8-0.6,19.5,0.8,29.3-0.2l7.7-0.8c2.7-0.3,5.2-1,7.9-1.5c3.4-0.6,8-1.3,11-3.5l0.4,3.4c-0.1,0-0.2,0.1-0.3,0.1
		c-9.1,1.5-18.3,2.8-27.5,3.7c-5.4,0.6-10.8,0.8-16.3,0.6c-2.4-0.1-4.7-0.3-7.1-0.4c-1.6-0.1-3.4-0.1-5-0.3L27.4,28.1z M27.7,31.4
		c1.2,0.1,2.5,0.1,3.6,0.2c2.6,0.2,5.2,0.3,7.9,0.5c5,0.3,10.2,0.2,15.2-0.4c1.1-0.1,2.1-0.2,3.2-0.3c-0.3,0.1-0.6,0.1-0.9,0.2
		c-4.8,0.9-9.5,1.7-14.3,2.2c-4.8,0.5-9.5,0.9-14.3,1.3L27.7,31.4z M28.5,38.9c4.2,0.3,8.5-0.2,12.6-0.5c5.1-0.5,10.3-1,15.4-1.5
		c5-0.5,10-1.3,15.1-1.8c4.3-0.4,8.6-0.9,12.9-1.6l0,0c-4.2,1.8-8.8,2.3-13.2,3.3c-2.4,0.6-4.7,1.5-7.1,2c-2.5,0.5-5.1,0.8-7.6,1.1
		C51.6,40.6,46.9,41,42,41c-2.4,0-4.9,0.4-7.3,0.6c-1.8,0.2-4,0.1-5.8,0.6L28.5,38.9z M29.1,44.5c2-0.7,4.6-0.6,6.7-0.8
		c2.4-0.3,4.8-0.5,7.2-0.5c5,0,9.7-0.5,14.6-1.2c2.6-0.4,5.1-0.7,7.6-1.2c2.4-0.5,4.7-1.4,7-2c4.1-1,8.5-1.5,12.4-3l0.6,4.3
		C66.6,41.8,47.7,42.7,29.1,44.5L29.1,44.5z M29.3,46.8c13.9-1.4,27.9-1.3,41.8-1.9c-3.8,0.6-7.6,1-11.5,1.4
		c-10,1.1-20.2,1.6-30,3.5L29.3,46.8z M29.9,52.2c9.9-1.9,20-2.5,30-3.5c5.1-0.5,10.3-1.2,15.4-2.1c3.3-0.6,7-1,10.3-2l0.6,5.3
		c-1.8,0.6-4.2,0.7-6,0.9c-2.4,0.3-4.7,0.4-7.1,0.7c-4.8,0.5-9.7,1-14.5,1.2c-5,0.2-10,0.1-15.1,0.2c-4.5,0.1-9.1,0.1-13.6-0.2
		L29.9,52.2z M30.2,54.9c3.9,0.2,8,0.2,11.9,0.2c2.4,0,4.8,0,7.2,0c-6.3,0.7-12.5,1.5-18.8,2.2L30.2,54.9z M30.6,59.5
		c9.5-1,18.9-2.3,28.4-3.3c5.2-0.5,10.4-1.1,15.6-1.6c2.5-0.2,5-0.4,7.4-0.7c-2.9,2-6.1,3.4-9.4,4c-5.3,1-10.8,1.3-16.1,1.8
		c-5,0.5-10,0.4-15,0.6c-2.2,0.1-4.3,0.1-6.5,0.1c-1.4,0-2.9,0.1-4.3-0.1L30.6,59.5z M31,62.2c3.5,0.3,7.3,0.2,10.8,0.1
		c5.6-0.3,10.7-0.3,16.2-0.8c7.5-0.8,13.5-1.6,17.3-2.6c3.6-0.9,6.2-2.4,9.1-5c0.2,0,1.8,0,2-0.1l0,0c-4,3-7.8,5.5-12.6,6.9
		c-4.6,1.3-9.6,1.7-14.3,2.4c-9.3,1.4-18.9,2.6-28.4,1.9L31,62.2z M31.4,67.1c9.8,0.7,19.6-0.6,29.2-2c4.7-0.7,9.5-1.2,14.1-2.4
		c4.6-1.2,8.3-3.6,12.1-6.3l0.7,6.6c-4.1,1.2-8.5,1.7-12.7,2.4c-5,0.9-9.9,1.9-14.9,2.5c-5.1,0.5-10.2,0.9-15.3,1.4
		c-4.3,0.4-8.6,0.6-12.8,1L31.4,67.1z M32,72.4c4.3-0.4,8.6-0.6,12.8-1c5.1-0.5,10.2-0.8,15.3-1.4c5.1-0.5,9.9-1.5,14.9-2.5
		c4.2-0.8,8.5-1.3,12.7-2.4l0.3,2.7c-3.7,0.3-7.5,0.5-11.3,0.9l-15.3,1.6c-9.8,1-19.6,2.3-29.4,3.4L32,72.4z M32.4,76
		c9.8-1,19.6-2.3,29.4-3.4l14.5-1.5c3.3-0.3,6.6-0.5,9.9-0.8c-8.4,3.9-17.5,5.2-26.7,6.3c-8.9,1.1-17.8,1.3-26.8,1.1L32.4,76z
		 M32.8,80c9.3,0.1,18.4-0.1,27.6-1.2c2.5-0.3,5.1-0.6,7.7-0.9c-2.2,0.6-4.4,1.1-6.7,1.5c-9.6,1.8-18.9,1.8-28.6,0.8L32.8,80z
		 M33,82.5c9.4,0.9,18.4,0.9,27.7-0.7c4.7-0.8,9.3-2.2,14-3.3c2.2-0.5,4.4-1.2,6.6-1.9c2.3-0.7,5-0.8,7.5-1.1l0.1,0.7
		c-8.2,4.7-18.3,5.1-27.5,6.4c-4.9,0.7-9.8,1-14.8,1.4c-2.4,0.2-4.8,0.3-7.3,0.5c-2,0.1-4.1,0.5-6,0.2L33,82.5z M33.5,87
		c1.5,0.1,3,0,4.5-0.2c2.7-0.2,5.4-0.3,8.1-0.5c5.2-0.5,10.4-0.7,15.6-1.5c5.4-0.8,10.8-1.5,16.2-2.3c4.1-0.7,7.8-2,11.4-3.9
		l0.5,4.5c-1.3,0.7-3.3,1.1-4.7,1.3c-2.2,0.4-4.4,0.9-6.7,1.1c-5.1,0.6-10.3,1.1-15.5,1.6c-4.9,0.5-9.8,1-14.8,1.4
		c-2.7,0.2-5.4,0.3-8.1,0.2c-2.1-0.1-4.2-0.4-6.3-0.4L33.5,87z"/>
</g>
<g id="Layer_2">
	<path class="st4" d="M20.5,54.6c-5-5.8-10.2-11.5-15-17.5c-1.7-2.1-0.2-5.6,2.7-5c0.8,0.2,1.7,0.7,2,1.5c0.9,1.9,1.9,3.8,2.8,5.7
		C15.5,44.4,18,49.5,20.5,54.6 M65.4,127.7c1.1,1.1,3.1-0.2,2.3-1.6c-0.6-1.1-1.3-2.1-1.9-3.2c-4-6.8-8-13.7-12-20.5
		c-11.1-19-22.3-37.9-33.4-56.9c-2.6-4.4-5.2-8.8-7.8-13.2c-1.2-2.1-3.1-3.5-5.7-3.2c-2.4,0.3-5.2,2.6-5,5.2
		c0.2,2.8,1.7,4.5,3.3,6.8c11.2,16.2,22.4,32.3,33.6,48.5C47.7,102.2,56.5,114.9,65.4,127.7C65.3,127.6,65.3,127.7,65.4,127.7"/>
</g>
</svg>
