<?xml version="1.0" encoding="utf-8"?><!-- Generator: Adobe Illustrator 21.0.2, SVG Export Plug-In . SVG Version: 6.00 Build 0)  --><svg version="1.1" id="Layer_1" xmlns="http://www.w3.org/2000/svg" xmlns:xlink="http://www.w3.org/1999/xlink" x="0px" y="0px"	 viewBox="0 0 100 100" style="enable-background:new 0 0 100 100;" xml:space="preserve"><style type="text/css">	.st0{fill:#A25820;}	.st1{fill:#633212;}	.st2{fill:#1E1E1E;}	.st3{fill:#DFC4AE;}	.st4{fill:#EAD8CA;}</style><path class="st0" d="M49.8,87.7c0.3-3.3-1.4-7.1,1.6-9.1c-0.3,0-0.7,0-1-0.1c-3-0.6-4.8-4.5-4-8.7c0.8-4.2,4-7.1,7-6.5	c0.3,0.1,0.7,0.2,1,0.3c-0.4-1.5,0.7-2.9,1-3.4c1-1.5,2.3-2.7,3.1-4.3c0.9-1.6,1.4-3.5,1.6-5.3c0.7-4.1-2.3-8.9-7.6-11.7	c0,0-0.1,0-0.1,0c-1.4-0.8-4.3-1.7-4.3-1.7c-5.7-1.6-11.3-0.3-13.6,3.1c-1.2,1.4-2.1,3.2-2.6,5c-0.5,1.7-0.4,3.5-0.7,5.2	c-0.1,0.6-0.3,2.3-1.6,3.1c0.3,0.1,0.6,0.2,0.9,0.4c2.6,1.7,2.9,5.9,0.6,9.5c-2.3,3.6-6.3,5.2-8.9,3.5c-0.3-0.2-0.6-0.4-0.8-0.7	c0.8,3.5-3.1,5.1-5.1,7.7c-1.8,2.2-2.3,3.8-2.7,5.9c-0.6,3,0.2,6.3,1.6,9c1.4,2.6,3.7,4.4,6.2,5.8c1.6,0.9,3.4,1.6,5.1,2.3	c1.7,0.7,3.5,1.4,5.3,1.9c2.8,0.8,5.7,1,8.5,0.1c2.9-0.9,5.7-2.8,7.4-5.4C48.9,92,49.6,90.5,49.8,87.7z"/><path class="st1" d="M49.3,87.6c0.1-0.9,0-2-0.1-2.9c-0.2-2-0.4-4.1,1-5.7c-0.2-0.1-0.5-0.1-0.7-0.2c-2.8-1.1-4.4-5-3.6-9	c0.4-2.1,1.4-4,2.8-5.3c1.4-1.3,3.1-1.9,4.8-1.6c0.1,0,0.2,0,0.3,0.1c0-1.2,0.8-2.3,1.1-2.8l0.1-0.1c0.4-0.6,0.9-1.2,1.3-1.7	c0.7-0.8,1.3-1.6,1.8-2.5c0.9-1.6,1.4-3.4,1.5-5.1c0,0,0,0,0-0.1c0.3-1.9-0.2-4-1.5-6c-1.3-2.1-3.4-3.9-5.9-5.2c0,0-0.1,0-0.1,0	c-0.4-0.2-1-0.5-1.6-0.7c-1.2-0.5-2.2-0.8-2.5-0.9c0,0-0.1,0-0.1,0c-2.7-0.7-5.5-0.9-7.8-0.3c-2.3,0.5-4.2,1.7-5.2,3.2c0,0,0,0,0,0	c-1.1,1.3-2,3-2.5,4.8c-0.3,1-0.4,2-0.4,3.1c-0.1,0.7-0.1,1.4-0.2,2.1l0,0.1c-0.1,0.6-0.3,1.9-1.1,2.8c0.1,0,0.2,0.1,0.3,0.2	c1.4,0.9,2.2,2.5,2.4,4.4c0.1,1.9-0.4,4-1.6,5.8c-2.2,3.4-6,5.2-8.8,4.1c-0.2-0.1-0.5-0.2-0.7-0.3c-0.1,2-1.7,3.4-3.2,4.8	c-0.7,0.7-1.5,1.3-2.1,2.1c-1.7,2.1-2.2,3.6-2.6,5.7c-0.5,2.7,0.1,5.9,1.6,8.7c1.2,2.2,3.2,4.1,6,5.6c1.1,0.6,2.4,1.2,4.1,1.9	c0.3,0.1,0.6,0.3,1,0.4c0.3,0.1,0.6,0.3,1,0.4c1.7,0.7,3,1.1,4.3,1.5c3.1,0.8,5.8,0.9,8.2,0.1c3-1,5.6-2.9,7.1-5.2	C48.4,91.7,49.1,90.3,49.3,87.6z"/><path class="st0" d="M48.4,87.5c0.1-0.9,0-1.8-0.1-2.8c-0.2-1.7-0.3-3.6,0.5-5.3c-3-1.4-4.7-5.6-3.8-9.9c0.5-2.3,1.6-4.4,3.1-5.8	c1.5-1.4,3.2-2,4.9-1.9c0.3-1,0.8-1.9,1.1-2.3l0.1-0.1c0.4-0.6,0.9-1.2,1.4-1.8c0.6-0.8,1.3-1.5,1.7-2.4c0.8-1.5,1.3-3.2,1.4-4.8	c0,0,0-0.1,0-0.1c0.3-1.7-0.2-3.5-1.4-5.4c-1.3-1.9-3.2-3.6-5.5-4.9c0,0-0.1,0-0.1,0c-0.4-0.2-0.9-0.4-1.5-0.7	c-1.1-0.4-2-0.7-2.3-0.8c-0.1,0-0.1,0-0.2,0c-2.6-0.7-5.2-0.8-7.4-0.3c-2.1,0.5-3.7,1.5-4.7,2.9c0,0-0.1,0.1-0.1,0.1	c-1,1.2-1.8,2.8-2.3,4.5c-0.3,0.9-0.3,1.9-0.4,2.9c-0.1,0.7-0.1,1.5-0.2,2.2l0,0.1c-0.1,0.5-0.2,1.5-0.8,2.4	c1.3,1.1,2.1,2.7,2.3,4.8c0.1,2.1-0.5,4.3-1.7,6.3c-2.3,3.7-6.4,5.6-9.6,4.5c-0.6,1.7-2,3-3.3,4.2c-0.7,0.6-1.5,1.3-2,1.9	c-1.6,2-2.1,3.3-2.4,5.3c-0.5,2.5,0.1,5.5,1.5,8.1c1.1,2.1,3,3.8,5.6,5.2c1.1,0.6,2.3,1.2,4,1.8c0.3,0.1,0.6,0.3,1,0.4c0,0,0,0,0,0	c0.3,0.1,0.6,0.3,0.9,0.4c1.7,0.7,2.9,1.1,4.2,1.4c2.9,0.8,5.5,0.8,7.7,0.1c2.8-0.9,5.3-2.7,6.6-4.8C47.6,91.3,48.2,90.1,48.4,87.5z	 M36.8,65.6c-0.3-0.1-0.4-0.3-0.4-0.5c0-0.1,0-0.1,0-0.2c0,0,0,0,0,0c0-0.3,0.3-0.6,0.6-0.6c-0.5-0.3-1-0.3-1.2-0.1	c-0.5,0.3-0.9,0.9-1.2,1.4c-1.4,2.3-1.6,5.6-3.6,7.5c-0.7,0.6-1.5,0.9-2.4,0.8C27.5,73.8,27,73,27,72c0,0,0-0.1,0-0.1	c-0.1-0.7,0.5-1.5,1.3-1.1c1.1,0.4,0.5,2.1-0.5,1.9c0.1,0.2,0.4,0.5,1,0.4c0.6-0.1,1.1-0.6,1.4-1c1.4-1.6,1.8-3.8,2.8-5.7	c0.5-1.1,1.4-2.7,2.7-3.1c0.6-0.2,1.6,0.1,2,0.7C38,64.6,38,65.9,36.8,65.6z M43.7,78.7c-0.6,0.7-1.6,0.9-2.3,0.3	c-0.7-0.5-1.1-1.4-1.2-2.3c-0.2-2.8,1.9-5.3,2.5-7.9c0.1-0.6,0.3-1.3,0.1-1.9c-0.1-0.2-0.3-0.6-1-0.7c0.4,0.4,0,1.4-0.7,1.1	c-1-0.5-0.2-1.6,0.7-1.7c0.6-0.1,1.4,0.4,1.7,0.9c0.7,1.2,0.2,2.9-0.2,4.1c-0.6,2-1.8,3.9-1.9,6c0,0.6,0,1.3,0.4,1.7	c0.3,0.4,0.7,0.5,1,0.4c-0.9-0.6-0.2-2.2,1-1.7C44.5,77.3,44.3,78.4,43.7,78.7z"/><path class="st2" d="M29.1,84.7l-3.2,12.2c0.7,0.3,0,0,0.7,0.3c0.7,0.3,0,0,0.7,0.3l6.1-11.1L29.1,84.7z"/><path class="st2" d="M66.5,14.4c-0.8-0.3-1.8,0-2.5,0.9c-0.1-0.1-0.3-0.1-0.4-0.2c-0.6-0.3-1.3-0.5-1.9-0.8c-0.1,0-0.3-0.1-0.2-0.1	c0.1-0.2,0.1-0.3,0.2-0.5c0.4-1.1,0.7-2.2,1.1-3.3c0.6,0.2,1.2,0.5,1.7,0.7c0.2,0.1,0.7,0.3,1.1,0.4c-0.2,1.1,0.3,2.1,1.2,2.5	c1.1,0.4,2.4-0.3,2.9-1.6c0.5-1.3,0.1-2.7-1-3.2c-0.9-0.3-1.9,0.1-2.5,0.9c-0.2,0-1.1-0.4-1.4-0.6c-0.5-0.2-1-0.4-1.4-0.6	c0.1-0.2,0.2-0.4,0.3-0.6c0.1-0.2,0.2-0.1,0.4-0.1c0.3-0.1,0.7-0.2,1-0.3c0.7-0.3,1.2-0.9,1.4-1.6c0.2-0.6-0.2-1.3-0.6-1.8	c-0.1-0.1-0.8-0.6-0.8-0.6c0.1-0.4,0.2-0.9,0.3-1.3c0,0,0.1-0.6,0.1-0.6c-0.2-0.1-0.3-0.1-0.5-0.2c-0.2-0.1-0.3-0.1-0.5-0.2	c0,0-0.3,0.5-0.3,0.5c-0.2,0.4-0.5,0.8-0.7,1.1c0,0-0.9-0.1-1-0.1c-0.6,0-1.4,0.2-1.7,0.8c-0.4,0.7-0.4,1.4-0.1,2.1	c0.1,0.3,0.3,0.7,0.5,0.9c0.1,0.1,0.2,0.2,0.2,0.3C61,7.6,61,7.8,60.9,8.1c-0.5-0.2-1-0.4-1.4-0.6c-0.3-0.1-1.1-0.4-1.4-0.5	c0.1-1.1-0.3-2-1.2-2.4c-1.1-0.4-2.4,0.3-2.9,1.6c-0.5,1.3-0.1,2.7,1,3.2c0.9,0.3,1.9-0.1,2.5-1c0,0,0.1,0,0.1,0	c0.3,0.1,0.6,0.2,0.9,0.4c0.6,0.2,1.2,0.5,1.7,0.7c-0.5,1-1,2.1-1.5,3.1c-0.1,0.2-0.2,0.3-0.2,0.5c0,0.1-0.2,0-0.3-0.1	c-0.6-0.3-1.3-0.5-1.9-0.8c-0.1-0.1-0.3-0.1-0.4-0.2c0.1-1-0.3-2-1.2-2.3c-1.1-0.4-2.4,0.3-2.9,1.6c-0.5,1.3-0.1,2.7,1,3.2	c0.9,0.4,2-0.1,2.6-1.1c0.8,0.3,1.2,0.5,2.1,0.8c-1.6,3.7-7.9,19.1-9.6,23c0,0,0,0,0,0l-8.7,20.5l5.3,2.1L52.4,39c0,0,0,0,0,0	c1.5-4,7.5-19.5,8.9-23.3c0.9,0.3,1.3,0.5,2.2,0.9c-0.2,1.1,0.2,2.2,1.1,2.6c1.1,0.4,2.4-0.3,2.9-1.6C68,16.2,67.5,14.8,66.5,14.4z"	/><path class="st3" d="M39.7,73.4c0-0.4-0.3-1.4-0.2-1.6c-0.4-0.2-0.7-0.3-0.9-0.4l22.4-56l0.1,0c0.2-0.6,0.6-1.8,1-3	c0.7-2.3,1.3-4,1.4-4.1c0.1-0.1,0.1-0.1,0.2-0.1c0,0,0.1,0,0.1,0c0.3-0.1,0.7-0.2,1-0.3c0.7-0.3,1.2-0.9,1.4-1.6	C66.4,5.6,66,5,65.6,4.6c0,0-0.1-0.1-0.2-0.2C65.2,4.3,65,4,64.9,4c0,0,0-0.1,0-0.1l0.2-1.3l0-0.1c0.1-0.2,0.1-0.5,0.1-0.5	c0,0,0,0,0,0l-0.5-0.2l-0.5-0.2c0,0-0.2,0.3-0.3,0.5l0,0l-0.7,1.1c0,0-0.1,0-0.1,0c-0.1,0-0.4,0-0.6,0c-0.1,0-0.3,0-0.3,0	c-0.6,0-1.3,0.2-1.7,0.8c-0.3,0.6-0.4,1.4-0.1,2.1c0.1,0.3,0.3,0.7,0.5,0.9c0,0,0.1,0.1,0.1,0.1C61,7.2,61.1,7.3,61,7.4	c0,0.1-0.9,2.1-2,4.4l0,0c-0.4,0.8-0.7,1.6-1,2.1l0,0L35.6,70.3c-0.2-0.1-0.4-0.2-0.7-0.3c-0.1,0.2-1,0.7-1.3,1l1.5,0.6l-6.1,15.2	l0.5,0.2l6.1-15.2l0.8,0.3l-6.1,15.2l0.5,0.2l6.1-15.2l0.8,0.3l-6.1,15.2L32,88l6.1-15.2L39.7,73.4z M36,70.4l22.4-56l0.6,0.2	l2.3-5.8c0-0.1,0.1-0.1,0.1-0.1l0.1,0.1L36.8,70.8C36.5,70.6,36.2,70.5,36,70.4z M37.4,71L37.4,71C37.4,71,37.3,71,37.4,71L62.1,9.1	l0.1,0.1c0.1,0,0.1,0.1,0.1,0.1l-2.3,5.8l0.6,0.2l-22.4,56C37.9,71.2,37.7,71.1,37.4,71z"/><path class="st0" d="M60.8,7.1c0,0.1,0.1,0.1,0.1,0.1c0.1,0.1,0.1,0.1,0.1,0.1c0,0.1-3.2,6.4-3.4,6.9l1.5,0.6l2.4-5.9l0.7,0.3	l-2.4,5.9l1.6,0.6c0.2-0.5,2.2-7.2,2.2-7.3c0-0.1,0-0.1,0.1-0.1c0,0,0.1,0,0.2,0c0.3-0.1,0.7-0.2,1-0.3c0.7-0.4,1.2-0.9,1.4-1.7	c0.2-0.7-0.2-1.4-0.7-1.9c0,0-0.1-0.1-0.2-0.2C65.3,4.2,65,4,65,3.9l0.2-1.3c0,0,0,0,0-0.1c0.1-0.6,0.1-0.6,0-0.7l-0.5-0.2l-0.5-0.2	c-0.1,0-0.1,0-0.4,0.5c0,0,0,0,0,0l-0.7,1.1c-0.1,0-0.5,0-0.6,0c-0.2,0-0.3,0-0.3,0c-0.6,0-1.4,0.2-1.8,0.9C60,4.6,60,5.4,60.3,6.1	C60.4,6.5,60.6,6.8,60.8,7.1z"/><path class="st2" d="M90.6,78.7c-2.4-3.1-4.8-6.2-7.1-9.4c-2.7-3.7-5.4-7.3-8.2-11c-2.1-2.9-4.3-5.8-6.4-8.7	c-2.5-3.6-5.1-7.1-7.6-10.7c-2.2-3.3-4.4-6.5-6.6-9.8c-2.3-3.5-4.7-7.1-7-10.7c-2.4-3.6-4.7-7.3-7.1-11C40,6.3,39.3,5.2,38.6,4	c-0.2-0.4-0.5-0.7-0.7-1.1c-0.1-0.1-0.1-0.2-0.2-0.3c-0.1-0.1-0.3,0-0.5,0c-0.4,0-0.7,0.1-1-0.2c-0.3-0.2-1-1.4-1.2-1.8	c-0.5,0.3-1.1,0.8-1.6,1.1c0,0,1.7,2.9,1.7,3.1c0.1,0.5,0.3,0.9,0.5,1.3c0.9,1.9,2.2,3.7,3.3,5.6c2.2,3.4,4.6,6.8,6.9,10.2	c2.1,3.1,4.3,6.3,6.4,9.4c2.5,3.7,5,7.4,7.5,11.1c2.3,3.4,4.6,6.9,6.9,10.3c1.8,2.7,3.5,5.3,5.3,7.9c3.2,4.7,6.4,9.4,9.6,14.1	c0.7,1.1,1.5,2.2,2.2,3.3c0.1,0.1,0.3,0.5,0.3,0.5c0.1,0,0.4-0.3,0.5-0.3c0.6-0.4,1.1-0.7,1.7-1.1c0.2-0.2,0.4,0.4,0.6,0.5	c0.4,0.6,0.8,1.2,1.3,1.8c0.2,0.3,0.5,0.7,0.7,1c0.1,0.2,0.1,0.3,0.3,0.1c0.7-0.5,1.4-0.9,2.1-1.4C90.9,79.1,90.7,78.9,90.6,78.7z	 M79,69.2c-1.1-1.5-2.1-3.1-3.1-4.7c-2.6-3.8-5.1-7.6-7.6-11.4c-2.2-3.3-4.5-6.7-6.8-10c-2-3-4-6-6-9c-2.4-3.6-4.8-7.2-7.3-10.8	c-1.1-1.7-2.3-3.3-3.4-5c-1.2-1.7-2.4-3.4-3.5-5.2c-1.6-2.7-3.3-5.3-4.9-8c0.2-0.1,0.8-0.5,0.9-0.4c0.1,0.2,0.3,0.5,0.4,0.7	c0.6,1,1.3,2,1.9,3c1.5,2.3,2.9,4.5,4.4,6.8c2.1,3.3,4.2,6.5,6.3,9.8c2.2,3.4,4.4,6.8,6.8,10.2c2,2.9,4.1,5.8,6.2,8.7	c2.4,3.4,4.8,6.8,7.2,10.1c2.9,4.1,5.9,8.2,8.8,12.3c0.9,1.2,1.8,2.5,2.7,3.7c0.2,0.3,0.5,0.7,0.7,1c0.3,0.6,1,1.6,0.5,2.2	c-0.6,0.3-1.8-1.2-2.2-1.6C80.2,70.9,79.6,70.1,79,69.2z M84.7,75.6c-0.3,0.2-0.7,0.1-0.9-0.2c-0.2-0.3-0.1-0.7,0.2-0.9	c0.3-0.2,0.7-0.1,0.9,0.2C85.1,75,85,75.4,84.7,75.6z"/><path class="st4" d="M79.1,69.1c-0.7-1-1.3-2-2-2.9c-0.4-0.6-0.8-1.2-1.2-1.8c-2.3-3.4-4.6-6.8-6.8-10.2L68.3,53	c-1.5-2.3-3.1-4.6-4.6-6.8c-0.7-1.1-1.5-2.2-2.2-3.3c-2.4-3.6-4.3-6.4-6-9l-0.8-1.2c-2.1-3.1-4.3-6.4-6.5-9.6L48,22.8	c-1-1.5-2.1-3-3.1-4.6c-0.3-0.4-0.6-0.8-0.9-1.2c-0.9-1.3-1.8-2.6-2.6-3.9l-6.8-11L34,2.4l-0.5,0.3c-0.3,0.2,3.8,6.8,4.7,8.3	c0.2,0.3,0.4,0.6,0.5,0.8c1.6,2.5,3.3,4.9,4.9,7.3c0.7,0.9,1.3,1.9,2,2.9c1.9,2.8,4.1,6.1,6.4,9.4c2.7,4,5.1,7.6,7.5,11.1	c2.3,3.4,4.6,6.9,6.9,10.3c1.6,2.4,3.4,5.2,5.3,7.9l7.8,11.6l1.4-0.9c-0.6-0.7-1.2-1.5-1.7-2.3L79.1,69.1z"/></svg>