<?xml version="1.0" encoding="utf-8"?><!-- Generator: Adobe Illustrator 21.0.2, SVG Export Plug-In . SVG Version: 6.00 Build 0)  --><svg version="1.1" id="Layer_1" xmlns="http://www.w3.org/2000/svg" xmlns:xlink="http://www.w3.org/1999/xlink" x="0px" y="0px"	 viewBox="0 0 72.3 50.6" style="enable-background:new 0 0 72.3 50.6;" xml:space="preserve"><style type="text/css">	.st0{fill:#F78972;}</style><path class="st0" d="M42.4,49.9c-1.1-0.2-2.2-0.7-2.9-1.2c-0.8-0.6-0.3-2,0.1-3.1c0.1-0.3,0.2-0.6,0.3-0.8l1.2-4.5	c0-0.1,0-0.2-0.1-0.4c-0.2-0.2-0.5-0.5-0.9-0.5c-0.2,0-0.4,0-0.5,0c-0.6,0.3-1.4,0.2-2.2,0.1c-0.5,0-1-0.1-1.4-0.1	c-0.2,0-0.2,0.1-0.3,0.3c0,0.2-0.1,0.5-0.4,0.7c-0.1,0.1-0.2,0.1-0.4,0c-0.3-0.1-0.8-0.2-1.1-0.4c-0.2-0.1-0.3-0.1-0.4-0.1l0,0	c-0.2,0-0.2,0-0.4,0.2s-0.4,0.3-0.7,0.3l-2-0.1c-0.4,0-0.7-0.1-1.2-0.2c-0.4-0.1-0.8-0.2-1.3-0.3c-0.2-0.1-0.5-0.1-0.7-0.2	c-0.5-0.1-1-0.2-1.5-0.3c-0.6-0.1-1.2-0.2-1.8-0.4c-0.1,0-0.2,0-0.3-0.1c-0.4-0.1-0.8-0.2-1.1-0.5c-0.1-0.1-0.2-0.2-0.3-0.3	c-0.2-0.2-0.5-0.6-0.7-0.7c-0.3,0-0.6-0.1-0.9-0.1c-1.3-0.3-2.5-0.8-3.6-1.4c-0.6-0.3-1.2-0.6-1.8-0.8l-0.3-0.1	c-1.2-0.5-2-0.8-2.9-1.8c-0.1-0.1-0.2-0.3-0.4-0.4c-0.6-0.6-1.1-1.2-1.9-1.5c-0.4-0.1-0.9-0.3-1.4-0.4c-0.4-0.1-0.9-0.2-1.3-0.2	c-0.4-0.1-0.9-0.2-1.3-0.2c-0.9-0.2-5.6-4.4-4.2-5c1.3-0.5,9,2.1,10.9,2.7c0.7,0.2,1.4,0.4,2.1,0.7v-0.7c0-0.1,0-0.1,0.1-0.2	c0.1,0,0.1-0.1,0.2,0l1.3,0.3c5.2,1.1,9.5,1.7,13.8-0.8c1.2-0.7,1.7-1.1,1.5-2.3c0-0.2-0.2-0.4-0.3-0.6c-0.1-0.2-0.3-0.4-0.3-0.6	c-0.1-0.3-0.1-0.6-0.1-0.8s0-0.5-0.1-0.7c-0.4-1.4-0.1-2.7,0.6-3.5c0.4-0.4,1.2-0.9,2.4-0.7c0.2,0,0.5,0.1,0.8,0.2	c0.9,0.4,1.6,1.2,2.3,1.9c0.7,0.8,1.4,1.6,2.4,1.8c0.2,0,0.3,0,0.5,0.1c2.1,0,4.1-1.2,5.9-2.3l0.3-0.2c1.1-0.7,2.1-1.5,3.1-2.3	c0.7-0.6,1.4-1.2,2.2-1.7c1.1-0.8,2.3-1.3,3.4-1.9c1-0.5,2-1,2.9-1.5c1.7-1.1,3.5-2.4,5-4.4c1.3-1.8,2.4-3.6,3.5-5.5	c0-0.1,0.1-0.1,0.2-0.1l0,0c0.1,0,0.2,0.2,0.1,0.3l-0.3,1.1l1.5-2.4c0-0.1,0.1-0.1,0.2-0.1c0,0,0,0,0.1,0c0.1,0.1,0.1,0.2,0.1,0.3	l-1.1,2.8l3-4.2C69.7,0,69.7,0,69.8,0c0,0,0,0,0.1,0C70,0.1,70,0.2,70,0.3l-1.1,3.1l1-1.3C70,2,70,2,70.1,2c0,0,0,0,0.1,0	c0.1,0.1,0.1,0.2,0.1,0.3l-1.6,3.2l1.4-1c0.1,0,0.1,0,0.2,0h0.1c0.1,0.1,0.1,0.2,0.1,0.3l-1.8,3.4l1.2-0.5H70c0,0,0.1,0,0.1,0.1	C70.2,7.9,70.2,8,70.2,8c-0.4,1-0.7,1.8-1.3,2.7c-0.1,0.1-0.2,0.2-0.3,0.4c-0.3,0.4-1,1.3-0.9,1.6c0,0.1,0,0.2,0.1,0.3	c0.2,0.8,0.6,2.1,0,2.8c-0.4,0.4-0.8,0.6-1.3,0.7c-0.4,0.2-0.8,0.3-1,0.6c0.7,0.4,1.1,0.8,1.2,1.3s-0.3,0.9-0.9,1.6	c-0.2,0.2-0.3,0.7-0.5,1.1c-0.3,0.8-0.6,1.8-1.4,1.7c0.3,0.9,0.4,1.3-0.1,2.5c-0.3,0.6-0.8,0.9-1.3,1.2c-0.2,0.1-0.4,0.2-0.6,0.4	c-0.6,0.4-0.9,1.2-1.2,1.9c-0.1,0.2-0.2,0.4-0.3,0.5c-0.1,0.2-0.3,0.4-0.9,0.3c-0.4-0.1-0.9-0.3-1.2-0.5c-0.4,0.7-0.6,0.9-1.1,1.1	c-0.2,0.1-0.5,0.2-0.8,0.4s-0.6,0.5-1,0.9c-0.3,0.3-0.6,0.6-0.9,0.9c-0.4,0.3-0.9,0.3-1.3,0.3c-0.5,0-0.7,0-0.9,0.3	c-0.3,0.4-0.7,0.5-1.1,0.5l9.3,1.8c0.2,0,0.5,0.1,0.8,0.1s0.7,0.1,1,0.2c0.6,0.1,1.1,0.3,1.4,0.6c1.2,1,0.9,2.5,0.7,3.8v0.2	c-0.4,2.6-1.1,5.5-4.2,7c-0.6,0.3-1.3,0.7-1.9,1.1c-1.7,1.1-3.5,2.2-5.6,2.3c-3,0.1-5.8-0.2-9.2-0.4C43,50,42.7,50,42.4,49.9	L42.4,49.9z"/></svg>