<?xml version="1.0" encoding="utf-8"?><!-- Generator: Adobe Illustrator 21.0.2, SVG Export Plug-In . SVG Version: 6.00 Build 0)  --><svg version="1.1" id="Layer_1" xmlns="http://www.w3.org/2000/svg" xmlns:xlink="http://www.w3.org/1999/xlink" x="0px" y="0px"	 viewBox="0 0 32.1 39.8" style="enable-background:new 0 0 32.1 39.8;" xml:space="preserve"><style type="text/css">	.st0{fill:#F9BBAF;}</style><path class="st0" d="M21.1,39.8c0,0-0.1,0-0.1-0.1c-0.1-0.1-0.3-0.3-0.6-0.5c-0.7-0.6-1.8-1.6-2.5-1.8c-0.3-0.1-0.4,0-0.5,0.2	c-0.1,0.1-0.1,0.1-0.2,0.1c0,0,0,0-0.1,0s-0.1-0.1-0.2-0.1l-0.5-1c0,0,0,0.1-0.1,0.1c-0.1,0.1-0.2,0.2-0.2,0.3s-0.1,0.2-0.2,0.2	c0,0,0,0-0.1,0s-0.2-0.1-0.2-0.2c-0.3-0.5-0.8-0.7-1.4-0.9c-0.6-0.2-1.2-0.4-1.2-1l0.2-5.3c-0.3-0.1-0.6-0.1-0.9-0.2	c-2.9-0.7-6.8-1.7-7.5-4.7c-0.1-0.3-0.1-1-0.2-1.7c-0.2-2.1-0.6-6.4-1.9-6.7c-0.2,0-0.4,0-0.7,0.2c-0.1,0-0.1,0.1-0.2,0	c0,0,0,0-0.1,0s-0.1-0.1-0.2-0.2c-0.1-0.9,0.4-2.4,1.2-3.3c0.5-0.5,1.1-0.8,1.7-0.7c0.4,0,0.8,0.1,1.2,0.2C7,13,7.9,13.8,8.9,15	c0.4-2.2-0.3-3.7-1.3-5.9C7.4,8.6,7.1,8,6.8,7.5C5.6,5.4,4.3,2.9,4.9,0.7c0-0.1,0.2-0.2,0.3-0.2l0,0c0.3,0.1,0.7,0.4,1,0.6	c0.1,0.1,0.4,0.3,0.5,0.3c0.2-0.1,0.5-0.1,0.7-0.1c0.6,0.1,1,1,1.3,1.4l0.1,0.2C9,3.4,9.2,3.7,9.4,3.8s0.5-0.1,0.8-0.2	c0.1-0.1,0.3-0.1,0.4,0c0.6,0.1,0.9,1.3,1,1.8c0.2-0.1,0.4-0.1,0.6-0.2c0.2-0.1,0.5-0.2,0.7-0.1c0.4,0.1,0.5,0.6,0.7,1.4	c0.1,0.6,0.2,0.6,0.2,0.6c0.1,0,0.3-0.1,0.5-0.2c0.3-0.2,0.7-0.4,1.1-0.3h0.1C16.4,7,16.1,8.2,15.9,9c-0.1,0.2-0.1,0.5-0.1,0.6	s0.2,0.2,0.5,0.3c0.4,0.1,0.8,0.3,1,0.8c0.1,0.2,0.1,0.4,0,0.6L28.4,6c0.2-0.1,0.3-0.2,0.5-0.3c0.6-0.3,1.2-0.7,1.9-0.5h0.1	c0.1,0,0.1,0.1,0.2,0.1c0,0.1,0,0.1,0,0.2c-0.2,0.5-0.6,1-1,1.3c0.3,0.3,0.5,0.6,0.8,0.9c0,0.1,0.1,0.1,0.1,0.2	C31,8,30.9,8,30.9,8.1c-0.3,0.2-0.6,0.4-0.9,0.6c-0.8,0.4-1.5,0.9-2,1.5c0.4,0.1,0.8,0.3,1.2,0.4c0.1,0,0.2,0,0.3,0.1l0,0	c0.1,0,0.2,0.1,0.2,0.2c0,0.1,0,0.2,0,0.3c-0.5,0.8-1,1.3-1.6,1.8h0.1c0.4,0.1,0.6,0.3,0.6,0.5c0.1,0.4-0.4,0.9-1.7,1.7	c0.3,0.1,0.5,0.4,0.5,0.7c0,0.2,0,0.6-0.8,0.8c-0.4,0.1-0.8,0.3-1.2,0.4c-0.4,0.1-0.8,0.3-1.2,0.4c0.4,0.2,0.8,0.3,1.3,0.4	c0.2,0,0.3,0.1,0.5,0.1c0.1,0,0.2,0.2,0.2,0.3c-0.2,1.2-1.6,1.4-2.8,1.6c-0.5,0.1-1,0.1-1.3,0.3c0.3,0.2,0.5,0.5,0.7,0.8	c0.1,0.1,0,0.3-0.1,0.4c-0.6,0.3-1.2,0.3-1.7,0.3s-1,0-1.2,0.2c-0.1,0.1-0.3,0.3-0.4,0.4v0.1c0,0.1,0.1,0.3,0.2,0.6	c0.1,0.3-0.1,0.5-0.2,0.6c-0.2,0.2-0.5,0.2-0.8,0.2c0.2,0.6,0.2,1.2-0.1,1.8c0,0.1-0.1,0.1-0.1,0.2c-0.1,0-0.1,0-0.2,0l0,0l-0.3-0.1	c-0.4-0.2-0.8-0.3-1.1-0.5c-0.1,1.9,1.5,4.6,2.7,5.9c0.3,0.4,0.8,0.8,1.3,1.3c1.7,1.7,3.7,3.7,4.1,5.5c0,0.1,0,0.2-0.1,0.3	s-0.2,0.1-0.3,0.1l0,0h-0.1c-0.2,0-0.5-0.1-0.6,0s-0.2,0.4-0.1,0.9c0,0.1,0,0.2-0.1,0.2s-0.1,0.1-0.2,0l0,0l-1.9-0.8l-0.3,1	C21.3,39.7,21.2,39.8,21.1,39.8C21.3,39.8,21.1,39.8,21.1,39.8z"/></svg>