<?xml version="1.0" encoding="utf-8"?><!-- Generator: Adobe Illustrator 21.0.2, SVG Export Plug-In . SVG Version: 6.00 Build 0)  --><svg version="1.1" id="Layer_1" xmlns="http://www.w3.org/2000/svg" xmlns:xlink="http://www.w3.org/1999/xlink" x="0px" y="0px"	 viewBox="0 0 37.3 54.2" style="enable-background:new 0 0 37.3 54.2;" xml:space="preserve"><style type="text/css">	.st0{fill:#94D3C4;}</style><path class="st0" d="M17.7,53.7C17.7,53.7,17.6,53.7,17.7,53.7c-0.2-0.1-0.4-0.1-0.6-0.2c-0.3-0.1-0.7-0.3-1-0.3l0,0l0,0l0,0	c0,0.1-0.1,0.3-0.4,0.4c-0.1,0-0.3,0-0.5-0.1c-0.6-0.2-1.1-0.5-1.6-0.9c0,0-0.1,0-0.2,0s-0.3,0-0.4,0.1c-0.1,0-0.3,0.1-0.4,0.1l0,0	c-2.1,0-3.8-1.2-5.1-2.3c-0.1-0.1-0.1-0.2-0.1-0.2c0-0.1,0.1-0.1,0.2-0.1l0,0c0,0,0,0,0.1,0h0.1c-2.3-1.4-3.2-3.1-3.3-6.3	c0-0.1,0-0.1,0.1-0.2h0.1c0,0,0,0,0.1,0c0.9,0.2,2,0.3,3.1,0.3c1.9-0.1,3.7-0.5,5-1.1c1.9-0.9,5.1-2.5,6.1-4.8	c-0.6,0.1-1.2,0.5-1.8,0.9c-0.2,0.1-0.4,0.3-0.6,0.4h-0.1h-0.1c-0.1,0-0.1-0.1-0.1-0.2l-0.1-0.9l-1,0.4c0,0,0,0-0.1,0H15	c-0.1,0-0.1-0.1-0.1-0.2v-1L14,37.9h-0.1c-0.1,0-0.1,0-0.1,0c-0.1-0.1-0.1-0.1-0.1-0.2l0.2-1.1l-2.7-0.2c-0.1,0-0.2-0.1-0.2-0.2	c0-0.1,0-0.2,0.1-0.2l0.7-0.5H9.5c-0.1,0-0.2,0-0.2-0.1s0-0.2,0-0.2l0.9-1.3c-0.1,0-0.2-0.1-0.2-0.1c-1.2-0.4-2.2-0.8-3.3-1.6	c-0.1-0.1-0.1-0.1-0.1-0.2c0-0.1,0.1-0.1,0.2-0.2l2.3-0.5c-2.2-1.2-3.4-2.2-4.7-4.5c0-0.1,0-0.1,0-0.2c0-0.1,0.1-0.1,0.2-0.1	l1.7-0.2C5.9,25.9,5.4,25.4,5,25c-1-1-2-2-2.9-3.2c0-0.1-0.1-0.2,0-0.2c0-0.1,0.1-0.1,0.2-0.1h1.6c-0.1-0.1-0.2-0.2-0.2-0.3	c-1.5-2.3-2.6-3.9-2.6-6.9c0-0.1,0-0.1,0.1-0.2h0.1h0.1l1.1,0.5c-0.7-1.5-0.8-2.5-0.8-4.3c0-1.4,0.3-2.7,0.6-4	c0.1-0.4,0.2-0.7,0.2-1.1C2.5,5.1,2.6,5,2.7,5l0,0c0.1,0,0.2,0,0.2,0.1c1.5,3,3.3,6.2,6.5,8.9c1.5,1.3,3.1,2.4,4.6,3.6	c0.8,0.6,1.7,1,2.6,1.4c0.4,0.2,0.8,0.4,1.2,0.6c-1.1-2.1-1.3-4.4-1.5-6.9c0-0.1,0-0.2,0.1-0.2h0.1c0.1,0,0.1,0,0.2,0.1l0.9,0.7	c-0.6-2.2-0.8-4.1-0.1-6.5c0-0.1,0.1-0.1,0.2-0.2l0,0c0.1,0,0.1,0,0.2,0.1l1.3,1.8l0,0c0-3.1,0.1-6.1,3.1-8h0.1h0.1	c0.1,0,0.1,0.1,0.1,0.2c0.4,2.2,0.8,4.4,2.1,6.5c0.7,1.2,1.4,2.3,2.1,3.5c0.6,0.9,1.1,1.8,1.7,2.7c1.5,2.5,2.4,4.5,2.3,7.2	c-0.1,2.1-0.7,4.3-1.5,6.4c0.3-0.1,0.6-0.2,0.9-0.4c0.5-0.2,1-0.5,1.6-0.5c0.1,0,0.2,0,0.3,0c1.7,0.1,2,0.7,2.7,2v0.1l2.2,1.1	c0.1,0,0.1,0.1,0.1,0.2c0,0.1-0.1,0.2-0.1,0.2c-0.2,0.1-0.5,0.1-0.8,0.2c-0.8,0.2-2.1,0.5-2.2,1l-0.1,0.2c-0.4,1.1-0.8,2.1-1,3.2	c-0.6,2.3-1.3,4.7-2.4,7.5c-1.4,3.5-5.2,6-9.4,6.1l0,0c-0.9,0-1.7,0-2.5-0.2c0,0.3-0.1,0.5-0.1,0.8c-0.3,1.9-0.6,3.6-0.6,5.5	c0,0.1,0,0.1-0.1,0.2C17.8,53.7,17.7,53.7,17.7,53.7z"/></svg>