<?xml version="1.0" encoding="utf-8"?><!-- Generator: Adobe Illustrator 21.0.2, SVG Export Plug-In . SVG Version: 6.00 Build 0)  --><svg version="1.1" id="Layer_1" xmlns="http://www.w3.org/2000/svg" xmlns:xlink="http://www.w3.org/1999/xlink" x="0px" y="0px"	 viewBox="0 0 27.9 36.3" style="enable-background:new 0 0 27.9 36.3;" xml:space="preserve"><style type="text/css">	.st0{fill:#B7E5D9;}</style><path class="st0" d="M4.1,36.3L4.1,36.3c0.3-0.1,0.5-0.2,0.7-0.4c0.8-0.5,2.1-1.2,2.8-1.3c0.3,0,0.4,0.1,0.5,0.2	c0,0.1,0.1,0.2,0.2,0.2c0,0,0,0,0.1,0s0.1,0,0.2-0.1l0.7-0.8v0.1c0.1,0.1,0.2,0.3,0.2,0.4c0,0.1,0.1,0.2,0.2,0.2c0,0,0,0,0.1,0	s0.2,0,0.2-0.1c0.4-0.5,1-0.5,1.6-0.6s1.3-0.1,1.4-0.8l0.8-5.3c0.3,0,0.6,0,0.9,0c3-0.1,7-0.3,8.3-3.2c0.1-0.3,0.3-0.9,0.5-1.7	c0.6-2,1.8-6.2,3.1-6.2c0.2,0,0.4,0.1,0.6,0.3c0.1,0.1,0.1,0.1,0.2,0.1c0,0,0,0,0.1,0s0.2-0.1,0.2-0.2c0.3-0.9,0.1-2.4-0.6-3.5	c-0.4-0.6-0.9-1-1.6-1.1c-0.4-0.1-0.8-0.1-1.2-0.1c-1.5,0.1-2.5,0.6-3.7,1.6c0.1-2.2,1-3.6,2.4-5.5C23.3,8,23.7,7.6,24.1,7	c1.5-1.8,3.3-4.1,3.1-6.3c0-0.1-0.1-0.3-0.3-0.3l0,0c-0.3,0-0.7,0.2-1.1,0.4c-0.2,0.1-0.4,0.2-0.5,0.3c-0.2-0.2-0.4-0.2-0.7-0.2	c-0.7,0-1.2,0.7-1.5,1.2L23,2.3C22.7,2.7,22.5,3,22.3,3s-0.5-0.2-0.7-0.4c-0.1-0.1-0.2-0.1-0.4-0.1c-0.6,0-1.2,1.1-1.4,1.6	c-0.2-0.1-0.4-0.2-0.6-0.3c-0.2-0.1-0.4-0.3-0.6-0.3c-0.4,0-0.6,0.4-1,1.3c-0.2,0.5-0.3,0.5-0.3,0.5c-0.1,0-0.3-0.2-0.5-0.3	c-0.3-0.2-0.6-0.5-1.1-0.5h-0.1c-1,0.2-0.9,1.4-0.9,2.3c0,0.3,0,0.5,0,0.7c0,0.1-0.2,0.1-0.5,0.2c-0.4,0.1-0.9,0.2-1.1,0.6	C13,8.5,13,8.7,13,8.9L3,1.6C2.9,1.5,2.7,1.4,2.6,1.2C2.1,0.8,1.5,0.3,0.9,0.3H0.8c-0.1,0-0.1,0.1-0.2,0.1c0,0.1-0.1,0.1,0,0.2	C0.7,1.1,1,1.7,1.4,2.1c-0.3,0.2-0.6,0.5-1,0.8C0.3,2.9,0.3,3,0.3,3.1s0,0.2,0.1,0.2C0.7,3.6,0.9,3.8,1.2,4c0.7,0.6,1.3,1.1,1.7,1.9	C2.5,6,2.1,6,1.6,6C1.5,6,1.4,6,1.3,6l0,0C1.2,6,1.1,6,1.1,6.1C1,6.2,1,6.3,1.1,6.4c0.3,0.8,0.7,1.4,1.3,2.1H2.3	c-0.4,0-0.6,0.1-0.7,0.4c-0.1,0.4,0.2,1,1.4,2c-0.3,0.1-0.6,0.3-0.6,0.6c0,0.2-0.1,0.6,0.6,1c0.4,0.2,0.7,0.4,1.1,0.6	s0.7,0.4,1.1,0.6c-0.4,0.1-0.9,0.1-1.3,0.2c-0.2,0-0.3,0-0.5,0c-0.1,0-0.3,0.1-0.3,0.3c0,1.2,1.3,1.7,2.4,2.1	c0.5,0.2,0.9,0.3,1.2,0.5c-0.3,0.1-0.6,0.4-0.8,0.7c-0.1,0.1-0.1,0.3,0.1,0.4c0.5,0.4,1.1,0.5,1.6,0.6s0.9,0.2,1.2,0.5	c0.1,0.1,0.3,0.4,0.3,0.4s0,0.1-0.1,0.1c-0.1,0.1-0.2,0.3-0.3,0.6c-0.1,0.3,0,0.5,0.1,0.6C9,20.9,9.3,21,9.5,21	c-0.3,0.5-0.4,1.1-0.3,1.8c0,0.1,0.1,0.1,0.1,0.2c0,0,0.1,0.1,0.2,0.1l0,0L9.8,23c0.4-0.1,0.8-0.2,1.2-0.3c-0.3,1.9-2.3,4.2-3.7,5.3	c-0.4,0.3-1,0.7-1.5,1.1c-2,1.3-4.4,2.9-5,4.6c0,0.1,0,0.2,0,0.3c0.1,0.1,0.1,0.1,0.2,0.1l0,0h0.1c0.2,0,0.5,0,0.6,0.1	s0.1,0.4,0,0.9c0,0.1,0,0.2,0.1,0.3s0.1,0.1,0.2,0.1l0,0l2-0.4l0.1,1C4.1,36.2,4.2,36.3,4.1,36.3C4,36.3,4,36.3,4.1,36.3z"/></svg>