<?xml version="1.0" encoding="utf-8"?><!-- Generator: Adobe Illustrator 21.0.2, SVG Export Plug-In . SVG Version: 6.00 Build 0)  --><svg version="1.1" id="Layer_1" xmlns="http://www.w3.org/2000/svg" xmlns:xlink="http://www.w3.org/1999/xlink" x="0px" y="0px"	 viewBox="0 0 39.4 54" style="enable-background:new 0 0 39.4 54;" xml:space="preserve"><style type="text/css">	.st0{fill:#F9D49D;}</style><path class="st0" d="M13.3,53.7C13.4,53.7,13.4,53.7,13.3,53.7c0.2,0,0.4,0,0.6-0.1c0.3-0.1,0.7-0.1,1-0.1l0,0l0,0l0,0	c0,0.1,0,0.4,0.3,0.4c0.1,0,0.3,0,0.5,0c0.6,0,1.2-0.2,1.8-0.5c0,0,0.1,0,0.2,0c0.1,0,0.2,0.1,0.4,0.2c0.1,0.1,0.3,0.1,0.4,0.2l0,0	c2,0.5,4-0.3,5.5-1c0.1,0,0.1-0.1,0.1-0.2s-0.1-0.2-0.2-0.2l0,0c0,0,0,0-0.1,0h-0.1c2.6-0.8,3.9-2.3,4.7-5.3c0-0.1,0-0.1,0-0.2	l-0.1-0.1c0,0,0,0-0.1,0c-0.9,0-2-0.2-3.1-0.5c-1.8-0.5-3.4-1.3-4.6-2.3c-1.6-1.4-4.3-3.6-4.8-6.1c0.6,0.3,1,0.8,1.5,1.3	c0.2,0.2,0.3,0.4,0.5,0.5c0,0,0.1,0,0.1,0.1h0.1c0.1,0,0.1-0.1,0.2-0.1l0.3-0.9l0.8,0.6c0,0,0,0,0.1,0h0.1c0.1,0,0.1-0.1,0.1-0.1	l0.3-1l0.7,0.6h0.1c0,0,0.1,0,0.2,0c0.1,0,0.1-0.1,0.1-0.2v-1.2l2.6,0.5c0.1,0,0.2,0,0.2-0.1s0-0.2,0-0.3l-0.6-0.7l2.2,0.5	c0.1,0,0.2,0,0.2-0.1c0.1-0.1,0.1-0.1,0-0.2l-0.6-1.5c0.1,0,0.2,0,0.3,0c1.3-0.1,2.3-0.2,3.6-0.8c0.1,0,0.1-0.1,0.1-0.2	s0-0.2-0.1-0.2l-2.1-1.1c2.4-0.6,3.9-1.3,5.6-3.2c0-0.1,0.1-0.1,0.1-0.2c0-0.1-0.1-0.1-0.1-0.2l-1.6-0.6c0.5-0.3,1.1-0.6,1.6-0.9	c1.2-0.7,2.4-1.4,3.5-2.4c0.1-0.1,0.1-0.1,0.1-0.2c0-0.1-0.1-0.1-0.2-0.2L34.2,25c0.1-0.1,0.2-0.2,0.3-0.3c2-1.9,3.5-3.2,4.2-6.1	c0-0.1,0-0.1-0.1-0.2l-0.1-0.1h-0.1l-1.2,0.2c1-1.3,1.4-2.3,1.8-4c0.3-1.4,0.4-2.7,0.4-4.1c0-0.4,0-0.7,0-1.1c0-0.1-0.1-0.2-0.1-0.2	l0,0c-0.1,0-0.2,0-0.2,0.1c-2.2,2.6-4.7,5.3-8.4,7c-1.8,0.9-3.6,1.6-5.4,2.3c-0.9,0.4-1.9,0.6-2.8,0.8c-0.4,0.1-0.9,0.2-1.3,0.3	c1.5-1.7,2.3-3.9,3.2-6.3c0-0.1,0-0.2-0.1-0.2h-0.1c-0.1,0-0.1,0-0.2,0l-1,0.5c1.1-2,1.7-3.8,1.7-6.3c0-0.1-0.1-0.2-0.1-0.2l0,0	c-0.1,0-0.1,0-0.2,0l-1.7,1.5l0,0c0.7-3,1.4-5.9-1.1-8.5c0,0-0.1,0-0.1-0.1h-0.1c-0.1,0-0.1,0.1-0.2,0.1c-0.9,2.1-1.9,4.1-3.6,5.8	c-1,1-1.9,1.9-2.9,2.8c-0.8,0.7-1.6,1.5-2.3,2.3c-2.1,2.1-3.4,3.8-4,6.4c-0.5,2.1-0.3,4.3-0.1,6.6c-0.3-0.2-0.6-0.4-0.8-0.6	c-0.4-0.3-0.8-0.7-1.5-0.9c-0.1,0-0.2-0.1-0.3-0.1c-1.7-0.3-2.1,0.2-3.1,1.3v0.1l-2.4,0.5c-0.1,0-0.2,0.1-0.2,0.2s0,0.2,0.1,0.2	c0.2,0.1,0.4,0.2,0.7,0.4c0.7,0.4,1.9,1,1.9,1.5v0.2c0.1,1.1,0.2,2.2,0.2,3.4c0,2.4,0.2,4.9,0.6,7.8c0.5,3.8,3.6,7.1,7.6,8.2l0,0	c0.8,0.2,1.7,0.4,2.5,0.4c0,0.3,0,0.5-0.1,0.8c-0.2,1.9-0.3,3.6-0.8,5.4c0,0.1,0,0.1,0,0.2C13.3,53.7,13.3,53.7,13.3,53.7z"/></svg>