<?xml version="1.0" encoding="utf-8"?><!-- Generator: Adobe Illustrator 21.0.2, SVG Export Plug-In . SVG Version: 6.00 Build 0)  --><svg version="1.1" id="Layer_1" xmlns="http://www.w3.org/2000/svg" xmlns:xlink="http://www.w3.org/1999/xlink" x="0px" y="0px"	 viewBox="0 0 74 42.6" style="enable-background:new 0 0 74 42.6;" xml:space="preserve"><style type="text/css">	.st0{fill:#6FBEAE;}</style><path class="st0" d="M41.5,38.3c1-0.6,1.9-1.3,2.4-2c0.6-0.8-0.3-2-1-2.9c-0.2-0.2-0.4-0.5-0.5-0.6L39.8,29	c-0.1-0.1-0.1-0.2-0.1-0.4c0.1-0.3,0.3-0.6,0.6-0.8c0.2-0.1,0.3-0.1,0.5-0.1c0.6,0.1,1.4-0.3,2.1-0.6c0.5-0.2,0.9-0.4,1.3-0.5	c0.2,0,0.3,0,0.4,0.2c0.1,0.2,0.2,0.4,0.6,0.5c0.1,0,0.2,0,0.4-0.1c0.3-0.2,0.7-0.5,0.9-0.7c0.1-0.1,0.2-0.2,0.3-0.2l0,0	c0.1-0.1,0.2,0,0.5,0.1c0.2,0.1,0.4,0.2,0.8,0.1l1.9-0.7c0.3-0.1,0.7-0.3,1.1-0.5c0.4-0.2,0.7-0.5,1.1-0.7c0.2-0.1,0.4-0.3,0.6-0.4	c0.4-0.3,0.9-0.5,1.4-0.8s1-0.6,1.5-0.9c0.1-0.1,0.2-0.1,0.2-0.2c0.4-0.2,0.7-0.4,0.9-0.8c0-0.1,0.1-0.2,0.1-0.4	c0.1-0.3,0.3-0.8,0.5-0.9c0.3-0.1,0.6-0.3,0.9-0.4c1.1-0.7,2.1-1.6,3-2.4c0.5-0.5,1-0.9,1.5-1.4l0.2-0.2c1-0.8,1.7-1.4,2.2-2.6	c0.1-0.2,0.1-0.3,0.2-0.5c0.3-0.8,0.6-1.5,1.4-2c0.3-0.3,0.7-0.5,1.2-0.8c0.4-0.2,0.8-0.4,1.2-0.6c0.4-0.2,0.8-0.4,1.2-0.7	c0.8-0.5,3.9-6,2.4-6.1c-1.4-0.1-7.9,4.9-9.5,6c-0.6,0.4-1.2,0.9-1.8,1.3l-0.2-0.7C61.3,9,61.2,9,61.2,9c-0.1,0-0.1,0-0.2,0	l-1.2,0.7c-4.6,2.7-8.5,4.6-13.4,3.6c-1.3-0.3-2-0.5-2.2-1.7c0-0.2,0-0.5,0.1-0.7s0.1-0.5,0.1-0.7c0-0.3-0.1-0.6-0.2-0.8	c-0.1-0.2-0.1-0.4-0.1-0.6c-0.1-1.4-0.7-2.6-1.7-3.1c-0.5-0.3-1.4-0.5-2.5,0.2c-0.2,0.1-0.4,0.3-0.6,0.5C38.5,7,38.1,8,37.8,8.9	c-0.4,1-0.8,2-1.7,2.5c-0.1,0.1-0.3,0.1-0.4,0.2c-2,0.7-4.3,0.2-6.3-0.3l-0.3-0.1c-1.3-0.3-2.5-0.7-3.7-1.2	c-0.8-0.3-1.7-0.7-2.6-0.9c-1.3-0.4-2.6-0.6-3.8-0.7c-1.1-0.1-2.2-0.3-3.2-0.6c-2-0.5-4.1-1.1-6.1-2.6C7.9,3.9,6.3,2.6,4.7,1	C4.6,0.9,4.5,0.9,4.4,1l0,0c-0.1,0.1-0.1,0.2,0,0.3L5,2.2L2.9,0.4c-0.1-0.1-0.2-0.1-0.3,0l0,0c-0.1,0.1-0.1,0.2,0,0.3l1.9,2.4	l-4.2-3C0.2,0,0.1,0,0.1,0.1l0,0C0,0.2,0,0.3,0.1,0.4l2,2.6L0.8,2C0.7,1.9,0.6,1.9,0.6,2c0,0,0,0-0.1,0c-0.1,0.1-0.1,0.2,0,0.3	L3,4.8L1.4,4.3c-0.1,0-0.1,0-0.2,0c0,0-0.1,0-0.1,0.1c-0.1,0.1,0,0.2,0,0.3l2.8,2.7L2.6,7.3H2.5L2.4,7.4c0,0.1,0,0.2,0,0.2	c0.6,0.8,1.2,1.5,2,2.1C4.5,9.8,4.6,9.9,4.8,10c0.4,0.3,1.4,1,1.4,1.3c0,0.1,0,0.2,0,0.3c0,0.9,0.1,2.2,0.9,2.6	c0.5,0.3,1,0.3,1.4,0.3c0.5,0,0.9,0,1.2,0.3c-0.5,0.6-0.8,1.1-0.7,1.6s0.6,0.8,1.4,1.3c0.2,0.1,0.5,0.5,0.8,0.9	c0.5,0.7,1.1,1.5,1.8,1.2c0,1,0,1.4,0.9,2.3c0.4,0.5,1,0.6,1.6,0.7c0.2,0.1,0.4,0.1,0.7,0.2c0.7,0.2,1.2,0.8,1.8,1.4	c0.1,0.1,0.3,0.3,0.4,0.4c0.1,0.1,0.4,0.3,1-0.1c0.4-0.2,0.8-0.6,1-0.8c0.6,0.6,0.9,0.6,1.4,0.6c0.2,0,0.5,0,0.9,0.1	s0.8,0.3,1.2,0.5s0.7,0.4,1.1,0.5c0.5,0.2,0.9,0,1.3-0.1c0.4-0.2,0.7-0.2,1,0c0.4,0.3,0.8,0.2,1.2,0.1l-8.2,4.6	c-0.2,0.1-0.5,0.2-0.7,0.4c-0.3,0.1-0.6,0.3-0.9,0.5c-0.5,0.3-0.9,0.6-1.1,1c-0.9,1.3-0.1,2.7,0.6,3.8l0.1,0.2	c1.2,2.3,2.8,4.8,6.2,5.4c0.7,0.1,1.4,0.3,2.2,0.5c2,0.5,4,1,6,0.4c2.8-0.9,5.4-2,8.6-3.3C41,38.6,41.2,38.4,41.5,38.3L41.5,38.3z"	/></svg>