<?xml version="1.0" encoding="utf-8"?>
<!-- Generator: Adobe Illustrator 21.0.2, SVG Export Plug-In . SVG Version: 6.00 Build 0)  -->
<svg version="1.1" role="presentation" id="Layer_1" xmlns="http://www.w3.org/2000/svg" xmlns:xlink="http://www.w3.org/1999/xlink" x="0px" y="0px"
	 viewBox="0 0 1000 443" style="enable-background:new 0 0 1000 443;" xml:space="preserve">
<style type="text/css">
	.st0{fill:none;stroke:#2f4f4f;stroke-width:40;stroke-miterlimit:10;}
	.st1{fill:none;stroke:#2f4f4f;stroke-width:30;stroke-miterlimit:10;}
	.st2{fill:none;stroke:#2f4f4f;stroke-width:20;stroke-miterlimit:10;}
	.st3{fill:none;stroke:#2f4f4f;stroke-width:10;stroke-miterlimit:10;}
</style>
<line class="st0" x1="251" y1="9" x2="251" y2="432"/>
<line class="st0" x1="750" y1="9" x2="750" y2="432"/>
<line class="st1" x1="0" y1="257" x2="1005" y2="257"/>
<path class="st2" d="M750,17c23.8,39.1,61,90.6,117,141.2c48,43.4,95.4,73,133,92.8"/>
<path class="st2" d="M250,17c-23.8,39.1-61,90.6-117,141.2c-48,43.4-95.4,73-133,92.8"/>
<path class="st2" d="M260,23c15.5,15.8,103.2,102,243,102c138.9,0,226.2-85.1,242-101"/>
<line class="st3" x1="503" y1="125" x2="503" y2="251"/>
<line class="st3" x1="440" y1="117.3" x2="440" y2="257"/>
<line class="st3" x1="379.5" y1="101.3" x2="379.5" y2="257"/>
<line class="st3" x1="319" y1="61.8" x2="319" y2="257"/>
<line class="st3" x1="566" y1="123.3" x2="566" y2="263"/>
<line class="st3" x1="626.5" y1="107.3" x2="626.5" y2="263"/>
<line class="st3" x1="687" y1="67.8" x2="687" y2="263"/>
<line class="st3" x1="183.3" y1="107.3" x2="183.3" y2="107.3"/>
<line class="st3" x1="183.3" y1="257" x2="183.3" y2="107.3"/>
<line class="st3" x1="134.2" y1="257" x2="134.2" y2="158.2"/>
<line class="st3" x1="85" y1="257" x2="85" y2="197.5"/>
<line class="st3" x1="815.8" y1="260" x2="815.8" y2="110.3"/>
<line class="st3" x1="865" y1="260" x2="865" y2="161.2"/>
<line class="st3" x1="914.2" y1="260" x2="914.2" y2="200.5"/>
</svg>
