<?xml version="1.0" encoding="utf-8"?><!-- Generator: Adobe Illustrator 21.0.2, SVG Export Plug-In . SVG Version: 6.00 Build 0)  --><svg version="1.1" id="Layer_1" xmlns="http://www.w3.org/2000/svg" xmlns:xlink="http://www.w3.org/1999/xlink" x="0px" y="0px"	 viewBox="0 0 377.5 206.5" style="enable-background:new 0 0 377.5 206.5;" xml:space="preserve"><style type="text/css">	.st0{fill:#A6BF71;}	.st1{fill:#BF0606;}	.st2{fill:#E52020;}	.st3{fill:#A50000;}	.st4{fill:#FFC44D;}	.st5{fill:#FCAE24;}	.st6{fill:#8BAA53;}	.st7{fill:#663A1D;}</style><ellipse class="st0" cx="188.5" cy="175.4" rx="187.5" ry="29.2"/><path class="st1" d="M37,174.8c17.5-16.2,37.7-50.7,48.4-70.1c15.5-28.3,29.9-59.5,36.9-79.6c8.4-0.4,131-4.7,140.2-5	c11.5,37.2,26.4,70.7,44.3,99.4c14.3,23,27.1,37.5,33.3,44.3l-138.4,15.9l0.1,0.1l-35.7-1.1l-7.2,0.5l-70.3-2.1l-9-1L37,174.8z"/><path class="st2" d="M208.5,180.7C208.5,180.7,208.5,180.7,208.5,180.7l-0.4,0L208.5,180.7z"/><path class="st1" d="M208.5,180.7C208.5,180.7,208.5,180.7,208.5,180.7l-0.4,0L208.5,180.7z"/><path class="st2" d="M341.5,164.4c-13.4-14.8-51.5-57.6-78.5-145c0,0-141.2,5-141.2,5.1l0,0c0,0,0,0,0,0.1	c-13,37.7-56.8,124.9-86.5,151l53.9,1.6c22.5-28.5,29.9-110.2,31.9-122.7c0-0.9,0.8-5.7,0.9-7c0,0,7.9,101,34.4,131.7l47.2,1.4	c-0.1-0.1-0.2-0.2-0.3-0.3L341.5,164.4z M79.2,171.6l-33.4-0.7c17.2-15.1,40.1-54.4,56.5-88.1c-11.9,33.9-26.4,68.9-40.8,81.5	L79.2,171.6z"/><path class="st3" d="M99.4,177.4l45,1.4c-11.9-29.1-18.6-78.8-22.4-119.5C118.1,99.7,111.2,148.4,99.4,177.4z"/><path class="st1" d="M263.5,18.6l-141.4,4.8c8,44.7,47.2,130.6,86.4,157.2l134.2-15.7l0-0.4C291.4,108.2,270.9,42.5,263.5,18.6z	 M250.3,39.2l-0.2-0.3l-118.6-7.8l126.9-5.6l0.2,0.3c3.6,21.5,16.3,53,32,84.5C271.7,86.1,253.4,58.1,250.3,39.2z"/><polygon class="st4" points="47.2,17.6 36.4,12.5 48.4,12.1 50,1.3 54.1,11.5 65.1,9 56.4,16.8 62.5,29.5 52.1,20.6 43.4,30.4 "/><polygon class="st5" points="55.3,64.6 37.2,57.3 56.8,55.3 58.1,37.6 66,53.9 83.6,48.6 70.3,62.2 81.6,82.3 63.7,68.8 50.5,85.7 	"/><polygon class="st4" points="85.2,22.9 76,15.2 87.8,17.8 92,7.7 93.5,18.6 104.7,18.9 94.4,24.3 97.2,38.1 89.3,26.9 78.5,34.3 "/><polygon class="st5" points="298.4,47.8 280.3,40.5 299.9,38.6 301.3,20.8 309.1,37.1 326.7,31.8 313.4,45.4 324.7,65.5 306.8,52.1 	293.6,69 "/><polygon class="st4" points="328.3,78.9 319.1,71.3 330.9,73.8 335,63.7 336.6,74.7 347.8,74.9 337.5,80.3 340.3,94.2 332.4,83 	321.6,90.3 "/><path class="st6" d="M309.3,181.1c0.8-6.7,0.1-13.5-3.9-20c0,0,0,0,0.1,0c4.5-1,8.2,4.5,8.3,4.5c0.1,0.2-0.1-6.8-4.5-11.2	c5.8,0.1,11.6,5.6,11.3,13.3c0.1-0.3,2.5-3.3,7.6-2.7c-5.6,4.7-6.7,9.5-7.8,15.9L309.3,181.1L309.3,181.1z"/><path class="st6" d="M88.1,190.2H77c-1.1-6.4-2.2-11.2-7.8-15.9c5.1-0.7,7.5,2.4,7.6,2.7c-0.2-7.7,5.6-13.2,11.3-13.3	c-4.5,4.4-4.6,11.3-4.5,11.2c0-0.1,3.7-5.5,8.3-4.5c0,0,0,0,0.1,0C88,176.6,87.3,183.4,88.1,190.2L88.1,190.2z"/><path class="st6" d="M226.6,189.4c0.9-7.9,0.1-15.9-4.5-23.5c0,0,0,0,0.1,0c5.3-1.2,9.6,5.2,9.7,5.3c0.1,0.2-0.1-7.9-5.3-13.1	c6.8,0.1,13.6,6.6,13.3,15.6c0.1-0.3,2.9-3.9,8.9-3.1c-6.6,5.5-7.8,11.1-9.1,18.7L226.6,189.4L226.6,189.4z"/><path class="st7" d="M216.4,192.9c-18.2-14.6-39.9-41.7-58.1-72.6c-19.5-33.1-32.6-66.2-36.9-93.2c-0.7,1.7-2.2,5.3-3.4,8.3	l-1.2,3.1c-13.6,27.9-30,56.4-46.3,80.3c-19.7,28.9-38.3,49.7-53.8,60.3l-0.1,0.1L8,179.7l1-0.7C46.8,153.2,99.1,69,120.8,20.7	l142.7-6.1l0.1,0.2C263.7,15,275.8,43.7,294,76c38.6,68.6,64.2,88.9,71.1,93.5l1,0.6l-6.9-0.2l-0.1-0.1	c-15.7-12.9-35.8-37.5-55.2-67.5c-18.9-29.3-34.3-59.5-42.3-82.7L125,26c4.4,23.7,17.4,55.6,35.9,87.8c19,33.1,41.3,61.8,61,78.6	l0.7,0.6L216.4,192.9L216.4,192.9z"/></svg>