<?xml version="1.0" encoding="utf-8"?>
<!-- Generator: Adobe Illustrator 21.0.2, SVG Export Plug-In . SVG Version: 6.00 Build 0)  -->
<svg role="presentation" version="1.1" id="Layer_1" xmlns="http://www.w3.org/2000/svg" xmlns:xlink="http://www.w3.org/1999/xlink" x="0px" y="0px"
	 viewBox="0 0 358 276" style="enable-background:new 0 0 358 276;" xml:space="preserve">
<style type="text/css">
	.st0{fill:#595959;}
</style>
<path class="st0" d="M4.2,110.8C6.7,194,69.6,261.6,145.2,269.5c86.5,9,170.9-62.2,174.9-158.7H4.2z"/>
<path class="st0" d="M339.7,16.5c-1.8-1.6-16.4-14.6-28-10.1c-9.5,3.6-9.4,16.1-17,33.5c-6.2,14.2-14.4,23.4-30.8,41.6
	c-40,44.5-69.2,46.3-68.9,64.5c0.3,18,30,38.7,50,33.2c16.5-4.5,14-23.6,48-76.3c14.3-22.2,22.2-32.8,32.9-41.4
	c15.5-12.6,25-13.1,26.4-22.1C353.9,29.1,343.1,19.5,339.7,16.5z"/>
</svg>
