<?xml version="1.0" encoding="utf-8"?>
<!-- Generator: Adobe Illustrator 21.0.2, SVG Export Plug-In . SVG Version: 6.00 Build 0)  -->
<svg role="presentation" version="1.1" id="Layer_1" xmlns="http://www.w3.org/2000/svg" xmlns:xlink="http://www.w3.org/1999/xlink" x="0px" y="0px"
	 viewBox="0 0 253 165" style="enable-background:new 0 0 253 165;" xml:space="preserve">
<style type="text/css">
	.st0{fill:#FFFFFF;}
</style>
<polygon class="st0" points="22,12 126.7,84.1 231.9,12 "/>
<path class="st0" d="M10,23.6c0,0.1,0,0.3,0,0.4v120.9l79-68.6L10,23.6z"/>
<path class="st0" d="M127,101.6l0.9,0.6L127,101.6l-24.5,16.3L127,101.6l-23.5-15.7L21.8,157c0.1,0,0.1,0,0.2,0h210c0,0,0,0,0,0
	l-79.6-72.4L127,101.6z"/>
<path class="st0" d="M244,145V24c0-0.1,0-0.2,0-0.3l-78.4,52.2l78.4,69.2C244,145.1,244,145,244,145z"/>
</svg>
