<?xml version="1.0" encoding="utf-8"?>
<!-- Generator: Adobe Illustrator 21.0.2, SVG Export Plug-In . SVG Version: 6.00 Build 0)  -->
<svg role="presentation" version="1.1" id="Layer_1" xmlns="http://www.w3.org/2000/svg" xmlns:xlink="http://www.w3.org/1999/xlink" x="0px" y="0px"
	 viewBox="0 0 126 165" style="enable-background:new 0 0 126 165;" xml:space="preserve">
<style type="text/css">
	.st0{fill:#F3E1A5;}
	.st1{fill:#E4C87A;}
	.st2{fill:#9A8B7E;}
</style>
<path class="st0" d="M22.9,134.7c-4-7-3.5-16.1-0.3-26.4C26,97.1,34.6,77.5,61.3,50c7.7-7.9,16.2-15.8,24-22.3
	c7-5.8,22.4-15.3,22.4-15.3S106,63.8,55.8,117.3c-11.5,12.2-21.2,18.9-29.4,19.2l-2.5,0.1L22.9,134.7z"/>
<path class="st1" d="M34.4,122.3c0,0,7.2-0.3,13.3-1.6c1.3-1.2,2.6-2.5,4-3.9c-4.1,0.5-8.3,0.8-12.5,0.6l13.6-2.6
	c0.4-0.1,0.7-0.2,1.1-0.3c8.6-9.3,17.3-21.4,25-34.1c-2.8-0.8-5.6-1.7-8.4-2.8l9.3,1.4c0.5-0.9,1.1-1.8,1.6-2.7c-4-0.1-8-1-11.4-3.2
	c0,0,8-0.4,14.3-1.9c0.7-1.2,1.3-2.3,1.9-3.5c-3.8,0.5-7.6,0.6-11.5,0.5l12.6-2.4c3.5-6.5,6.5-12.9,9.1-18.9c-2.9-0.4-5.8-1.3-8.4-3
	c0,0,4.9-0.2,10-1c4.3-10.7,6.7-20,6.4-25.8c-4.7,2.2-17.8,12.2-32.1,25.9c0.4,6.3,2,13.2,2,13.2c-2.8-2.6-4.7-5.9-6-9.4
	c-8.1,8-16.3,16.9-23.5,26.2c0,1.8,0,3.6,0,5.5l1.1,13.8c-1.7-5.5-2.8-11-3.3-16.5c-0.6,0.8-1.3,1.7-1.9,2.5
	c-1.4,6.3,1.8,19.8,1.8,19.8c-3.6-3.3-5.7-7.8-6.8-12.4c-0.7,1.1-1.4,2.2-2,3.3l4.4,9.7c-2-2.6-3.8-5.3-5.4-8.1
	c-8.8,15.2-12.6,29.8-6.1,40.6l0.7,0.5c4.6-0.2,9.7-2.6,15.1-6.7C39.6,124.7,36.9,123.8,34.4,122.3z"/>
<path class="st2" d="M94,34.2c-4.3,9.5-64.6,98.9-79.2,116.6l-2-2.1C27.4,131.1,93,33.9,94,34.2z"/>
</svg>
