<?xml version="1.0" encoding="utf-8"?>
<!-- Generator: Adobe Illustrator 21.0.2, SVG Export Plug-In . SVG Version: 6.00 Build 0)  -->
<svg role="presentation" version="1.1" id="Layer_1" xmlns="http://www.w3.org/2000/svg" xmlns:xlink="http://www.w3.org/1999/xlink" x="0px" y="0px"
	 viewBox="0 0 512 462.7" style="enable-background:new 0 0 512 462.7;" xml:space="preserve">
<style type="text/css">
	.st0{fill:#EFD04D;}
	.st1{fill:#508730;}
	.st2{fill:#2197D8;}
	.st3{fill:#F95428;}
	.st4{fill:#333333;}
	.st5{fill:#333333;stroke:#000000;stroke-width:0.5;stroke-miterlimit:10;}
</style>
<path class="st0" d="M363.9,444.5H148.1c-14.8,0-26.8-12-26.8-26.8V46.9c0-14.8,12-26.8,26.8-26.8h215.8c14.8,0,26.8,12,26.8,26.8
	v370.8C390.7,432.5,378.7,444.5,363.9,444.5z"/>
<rect x="149.3" y="48.2" class="st1" width="213.3" height="368.3"/>
<g>
	<circle class="st2" cx="191.3" cy="101.8" r="14.3"/>
	<circle class="st2" cx="318.7" cy="101.8" r="14.3"/>
	<circle class="st2" cx="191.3" cy="275.8" r="14.3"/>
	<circle class="st2" cx="255" cy="275.8" r="14.3"/>
	<circle class="st2" cx="318.7" cy="275.8" r="14.3"/>
</g>
<g>
	<circle class="st3" cx="191.3" cy="362.9" r="14.3"/>
	<circle class="st3" cx="318.7" cy="362.9" r="14.3"/>
	<circle class="st3" cx="191.3" cy="188.8" r="14.3"/>
	<circle class="st3" cx="255" cy="188.8" r="14.3"/>
	<circle class="st3" cx="318.7" cy="188.8" r="14.3"/>
</g>
<g>
	<path class="st2" d="M56.4,84.1H26.1c-9.8,0-17.7,7.9-17.7,17.7l0,0c0,9.8,7.9,17.7,17.7,17.7h30.3c9.8,0,17.7-7.9,17.7-17.7l0,0
		C74.1,92,66.2,84.1,56.4,84.1z"/>
	<path class="st2" d="M56.4,258.2H26.1c-9.8,0-17.7,7.9-17.7,17.7l0,0c0,9.8,7.9,17.7,17.7,17.7h30.3c9.8,0,17.7-7.9,17.7-17.7l0,0
		C74.1,266.1,66.2,258.2,56.4,258.2z"/>
</g>
<path class="st3" d="M455.6,171.1h30.3c9.8,0,17.7,7.9,17.7,17.7l0,0c0,9.8-7.9,17.7-17.7,17.7h-30.3c-9.8,0-17.7-7.9-17.7-17.7l0,0
	C437.9,179.1,445.8,171.1,455.6,171.1z"/>
<path class="st3" d="M455.6,345.2h30.3c9.8,0,17.7,7.9,17.7,17.7l0,0c0,9.8-7.9,17.7-17.7,17.7h-30.3c-9.8,0-17.7-7.9-17.7-17.7l0,0
	C437.9,353.1,445.8,345.2,455.6,345.2z"/>
<path class="st2" d="M270.7,75.4h-29.3c-6,0-10.9-4.9-10.9-10.9V48.2h51.1v16.4C281.5,70.6,276.7,75.4,270.7,75.4z"/>
<path class="st3" d="M241.3,389.2h29.3c6,0,10.9,4.9,10.9,10.9v16.4h-51.1v-16.4C230.5,394.1,235.3,389.2,241.3,389.2z"/>
<g>
	<path class="st5" d="M485.9,336.8h-30.3c-11.4,0-21.2,7.4-24.7,17.7h-31.7v-70.2h1.2v-16.8h-1.2v-70.2h0v0h31.7
		c3.5,10.3,13.3,17.7,24.7,17.7h30.3c14.4,0,26.1-11.7,26.1-26.1c0-14.4-11.7-26.1-26.1-26.1h-30.3c-11.4,0-21.2,7.4-24.7,17.7
		h-31.7v-70.2h0.5V93.4h-0.5V46.9c0-19.4-15.8-35.2-35.2-35.2H148.1c-19.4,0-35.2,15.8-35.2,35.2v46.5H81.1
		c-3.5-10.3-13.3-17.7-24.7-17.7H26.1C11.7,75.7,0,87.4,0,101.8s11.7,26.1,26.1,26.1h30.3c11.4,0,21.2-7.4,24.7-17.7h31.7v70.2h-0.5
		v16.8h0.5v70.2H81.1c-3.5-10.3-13.3-17.7-24.7-17.7H26.1C11.7,249.7,0,261.4,0,275.8c0,14.4,11.7,26.1,26.1,26.1h30.3
		c11.4,0,21.2-7.4,24.7-17.7h31.7v70.2h-1.2v16.8h1.2v46.5c0,19.4,15.8,35.2,35.2,35.2h215.8c19.4,0,35.2-15.8,35.2-35.2v-46.5h31.7
		c3.5,10.3,13.3,17.7,24.7,17.7h30.3c14.4,0,26.1-11.7,26.1-26.1C512,348.5,500.3,336.8,485.9,336.8z M455.6,179.6h30.3
		c5.1,0,9.3,4.2,9.3,9.3c0,5.1-4.2,9.3-9.3,9.3h-30.3c-5.1,0-9.3-4.2-9.3-9.3C446.3,183.7,450.5,179.6,455.6,179.6z M56.4,111.1
		H26.1c-5.1,0-9.3-4.2-9.3-9.3c0-5.1,4.2-9.3,9.3-9.3h30.3c5.1,0,9.3,4.2,9.3,9.3C65.7,106.9,61.5,111.1,56.4,111.1z M56.4,285.1
		H26.1c-5.1,0-9.3-4.2-9.3-9.3c0-5.1,4.2-9.3,9.3-9.3h30.3c5.1,0,9.3,4.2,9.3,9.3C65.7,280.9,61.5,285.1,56.4,285.1z M382.3,417.7
		c0,10.1-8.3,18.4-18.4,18.4H148.1c-10.1,0-18.4-8.3-18.4-18.4V46.9c0-10.1,8.3-18.4,18.4-18.4h215.8c10.1,0,18.4,8.2,18.4,18.4
		V417.7z M485.9,372.1h-30.3c-5.1,0-9.3-4.2-9.3-9.3c0-5.1,4.2-9.3,9.3-9.3h30.3c5.1,0,9.3,4.2,9.3,9.3
		C495.2,368,491,372.1,485.9,372.1z"/>
	<path class="st4" d="M362.7,39.8H149.3c-4.7,0-8.4,3.8-8.4,8.4v368.3c0,4.7,3.8,8.4,8.4,8.4h213.3c4.7,0,8.4-3.8,8.4-8.4V48.2
		C371.1,43.5,367.3,39.8,362.7,39.8z M273.1,56.6v7.9c0,1.4-1.1,2.5-2.5,2.5h-29.3c-1.4,0-2.5-1.1-2.5-2.5v-7.9H273.1z M222,56.6
		v7.9c0,10.6,8.7,19.3,19.3,19.3h29.3c10.6,0,19.3-8.7,19.3-19.3v-7.9h64.3v36.8h-14.4c-3.4-8.4-11.5-14.3-21.1-14.3
		c-9.6,0-17.7,5.9-21.1,14.3h-85.3c-3.4-8.4-11.5-14.3-21.1-14.3c-9.6,0-17.7,5.9-21.1,14.3h-12.4V56.6H222z M339.8,354.4
		c-3.4-8.4-11.5-14.3-21.1-14.3c-9.6,0-17.7,5.9-21.1,14.3h-85.3c-3.4-8.4-11.5-14.3-21.1-14.3s-17.7,5.9-21.1,14.3h-12.4v-70.2
		h12.4c3.4,8.4,11.5,14.3,21.1,14.3c9.6,0,17.7-5.9,21.1-14.3h21.5c3.4,8.4,11.5,14.3,21.1,14.3c9.6,0,17.7-5.9,21.1-14.3h21.5
		c3.4,8.4,11.5,14.3,21.1,14.3c9.6,0,17.7-5.9,21.1-14.3h14.4v70.2H339.8z M324.6,362.9c0,3.2-2.6,5.9-5.9,5.9
		c-3.2,0-5.9-2.6-5.9-5.9c0-3.2,2.6-5.9,5.9-5.9C322,357,324.6,359.6,324.6,362.9z M197.2,362.9c0,3.2-2.6,5.9-5.9,5.9
		c-3.2,0-5.9-2.6-5.9-5.9c0-3.2,2.6-5.9,5.9-5.9C194.5,357,197.2,359.6,197.2,362.9z M170.2,197.2c3.4,8.4,11.5,14.3,21.1,14.3
		s17.7-5.9,21.1-14.3h21.5c3.4,8.4,11.5,14.3,21.1,14.3c9.6,0,17.7-5.9,21.1-14.3h21.5c3.4,8.4,11.5,14.3,21.1,14.3
		c9.6,0,17.7-5.9,21.1-14.3h14.4v70.2h-14.4c-3.4-8.4-11.5-14.3-21.1-14.3c-9.6,0-17.7,5.9-21.1,14.3h-21.5
		c-3.4-8.4-11.5-14.3-21.1-14.3s-17.7,5.9-21.1,14.3h-21.5c-3.4-8.4-11.5-14.3-21.1-14.3s-17.7,5.9-21.1,14.3h-12.4v-70.2H170.2z
		 M185.4,188.8c0-3.2,2.6-5.9,5.9-5.9c3.2,0,5.9,2.6,5.9,5.9c0,3.2-2.6,5.9-5.9,5.9C188,194.7,185.4,192.1,185.4,188.8z
		 M249.1,188.8c0-3.2,2.6-5.9,5.9-5.9c3.2,0,5.9,2.6,5.9,5.9c0,3.2-2.6,5.9-5.9,5.9C251.8,194.7,249.1,192.1,249.1,188.8z
		 M312.8,188.8c0-3.2,2.6-5.9,5.9-5.9c3.2,0,5.9,2.6,5.9,5.9c0,3.2-2.6,5.9-5.9,5.9C315.5,194.7,312.8,192.1,312.8,188.8z
		 M324.6,275.8c0,3.2-2.6,5.9-5.9,5.9c-3.2,0-5.9-2.6-5.9-5.9c0-3.2,2.6-5.9,5.9-5.9C322,270,324.6,272.6,324.6,275.8z M260.9,275.8
		c0,3.2-2.6,5.9-5.9,5.9c-3.2,0-5.9-2.6-5.9-5.9c0-3.2,2.6-5.9,5.9-5.9C258.2,270,260.9,272.6,260.9,275.8z M197.2,275.8
		c0,3.2-2.6,5.9-5.9,5.9c-3.2,0-5.9-2.6-5.9-5.9c0-3.2,2.6-5.9,5.9-5.9C194.5,270,197.2,272.6,197.2,275.8z M354.2,180.4h-14.4
		c-3.4-8.4-11.5-14.3-21.1-14.3s-17.7,5.9-21.1,14.3h-21.5c-3.4-8.4-11.5-14.3-21.1-14.3c-9.6,0-17.7,5.9-21.1,14.3h-21.5
		c-3.4-8.4-11.5-14.3-21.1-14.3s-17.7,5.9-21.1,14.3h-12.4v-70.2h12.4c3.4,8.4,11.5,14.3,21.1,14.3c9.6,0,17.7-5.9,21.1-14.3h85.3
		c3.4,8.4,11.5,14.3,21.1,14.3c9.6,0,17.7-5.9,21.1-14.3h14.4L354.2,180.4L354.2,180.4L354.2,180.4z M185.4,101.8
		c0-3.2,2.6-5.9,5.9-5.9c3.2,0,5.9,2.6,5.9,5.9c0,3.2-2.6,5.9-5.9,5.9C188,107.7,185.4,105.1,185.4,101.8z M312.8,101.8
		c0-3.2,2.6-5.9,5.9-5.9c3.2,0,5.9,2.6,5.9,5.9c0,3.2-2.6,5.9-5.9,5.9C315.5,107.7,312.8,105.1,312.8,101.8z M238.9,408v-7.9
		c0-1.4,1.1-2.5,2.5-2.5h29.3c1.4,0,2.5,1.1,2.5,2.5v7.9H238.9z M290,408v-7.9c0-10.6-8.7-19.3-19.3-19.3h-29.3
		c-10.6,0-19.3,8.7-19.3,19.3v7.9h-64.3v-36.8h12.4c3.4,8.4,11.5,14.3,21.1,14.3c9.6,0,17.7-5.9,21.1-14.3h85.3
		c3.4,8.4,11.5,14.3,21.1,14.3c9.6,0,17.7-5.9,21.1-14.3h14.4V408H290z"/>
</g>
</svg>
