<?xml version="1.0" encoding="utf-8"?>
<!-- Generator: Adobe Illustrator 21.0.2, SVG Export Plug-In . SVG Version: 6.00 Build 0)  -->
<svg role="presentation" version="1.1" id="Layer_1" xmlns="http://www.w3.org/2000/svg" xmlns:xlink="http://www.w3.org/1999/xlink" x="0px" y="0px"
	 viewBox="0 0 55.8 251.5" style="enable-background:new 0 0 55.8 251.5;" xml:space="preserve">
<style type="text/css">
	.st0{fill:#FFFFFF;}
	.st1{fill:#2B2B2B;}
	.st2{fill:#CCCCCC;}
</style>
<path class="st0" d="M25.3,129c10.5,38.2,7.5,77.3,22.8,112.8L24.4,104.5C21,112.9,23.2,121.4,25.3,129z"/>
<path class="st0" d="M20.5,47.2C14.9,48,16.9,94.1,25,150.1s19.3,100.8,24.9,100s3.7-46.9-4.5-102.9S26.2,46.3,20.5,47.2z
	 M48.1,241.8l0.4,2.4L48.1,241.8C32.8,206.3,35.8,167.2,25.3,129c-2.1-7.6-4.3-16.1-0.9-24.5l-0.1-0.5l0.1,0.5
	c0.1-0.2,0.2-0.4,0.3-0.7c-0.1,0.2-0.2,0.4-0.3,0.7L48.1,241.8c0.3,0.7,0.6,1.3,0.9,2C48.7,243.1,48.4,242.5,48.1,241.8z"/>
<path class="st1" d="M20,47.2c-5.6,0.8-3.7,46.9,4.5,102.9s19.3,100.8,24.9,100c5.6-0.8,3.7-46.9-4.5-102.9S25.7,46.4,20,47.2z
	 M48.6,244.2l-0.4-2.4c-13-35.9-15.9-73-22.8-112.8c-1.3-7.7-4.3-16.1-0.9-24.5l-0.1-0.5l0.1,0.5c0.1-0.2,0.2-0.4,0.3-0.7
	c-0.1,0.2-0.2,0.4-0.3,0.7l23.7,137.3c0.3,0.7,0.6,1.3,0.9,2c-0.3-0.7-0.6-1.3-0.9-2L48.6,244.2z"/>
<path d="M13.5,1c3.8,1.6,9.7,4.8,14.1,11.1c9.3,13.1,8.3,33.9-1.1,40.1c-2.9,1.9-7,2.8-10.7,1.7c-4.8-1.5-7.2-5.8-9.2-9.8
	C5,41.3-0.6,30.5,3.2,17.3C5.6,8.8,10.8,3.4,13.5,1z"/>
<polygon class="st2" points="31.1,74 17,76 10,49.8 31.1,46.7 "/>
</svg>
