<?xml version="1.0" encoding="utf-8"?><!-- Generator: Adobe Illustrator 21.0.2, SVG Export Plug-In . SVG Version: 6.00 Build 0)  --><svg version="1.1" id="Layer_1" xmlns="http://www.w3.org/2000/svg" xmlns:xlink="http://www.w3.org/1999/xlink" x="0px" y="0px"	 viewBox="0 0 154.8 132.3" style="enable-background:new 0 0 154.8 132.3;" xml:space="preserve"><style type="text/css">	.st0{fill:#F8BA4A;}	.st1{fill:#FFCA60;}</style><polygon class="st0" points="47.9,102.1 23.9,122.4 33,92.3 1.7,94.7 26.7,75.7 0,59.3 31.4,58.6 21.5,34.7 88.7,32.5 96.5,0 	106.9,29.7 130.8,9.3 121.7,39.4 153,37 128,56 154.8,72.5 123.4,73.1 133.2,97 66.1,99.2 58.2,131.7 "/><polygon class="st1" points="143.6,40.6 123,56.2 145,69.8 119.1,70.4 129,94.3 63.8,96.5 57.7,121.6 49.2,97.2 29.5,113.9 	36.9,89.2 11.1,91.1 31.8,75.5 9.7,61.9 35.6,61.4 25.7,37.4 90.9,35.3 97,10.1 105.5,34.6 125.2,17.8 117.8,42.6 "/><path d="M117,48.7c-2-0.3-4-0.4-5.9-0.2c-0.1,0.1-0.4,1.3-0.8,2.9c-1,0-2.1,0.1-3.1,0.2c-1.3,0.1-2.6,0.3-3.9,0.4	c-0.7,1.9-1.4,3.9-2.1,6c-0.8,2.1-1.5,4.1-2.4,6.1c-0.1-0.8-0.1-1.7-0.2-2.6c-0.1-0.9-0.1-1.9-0.2-2.9c0-1-0.1-2-0.1-2.9	c0-1,0-1.9,0-2.8c-0.8,0-1.5,0.1-2.3,0.2c-0.8,0.1-1.5,0.2-2.1,0.3c-0.8,1.9-1.6,3.9-2.5,6c-0.9,2.1-1.7,4.1-2.6,6	c0-0.9,0-1.9,0-2.9s0-2,0.1-3.1c0-1,0.1-2.1,0.1-3.1c0.1-1,0.1-2,0.2-2.9c-1.3,0.1-2.4,0.2-3.6,0.3s-2.2,0.3-3.3,0.5	c0,1.5,0,3.1,0.1,4.6c-0.5-1.4-1.2-2.6-2.1-3.6c-1.1-1.2-2.5-2.2-4.2-2.8s-3.7-0.9-6-0.7C68,52,66,52.6,64,53.5c-2,1-3.7,2.3-5.3,4	c-0.7,0.8-1.3,1.6-1.9,2.5c0-0.7,0-1.3,0-2c-0.1-1.2-0.4-2.2-0.8-3c-0.4-0.8-0.9-1.5-1.5-2s-1.2-0.9-1.9-1.2s-1.4-0.5-2.2-0.6	S48.9,51,48.2,51s-1.4,0-2,0.1c-0.8,0-1.6,0.1-2.5,0.3c-0.8,0.1-1.6,0.3-2.4,0.5c-0.8,0.2-1.5,0.4-2.1,0.6c-0.6,0.2-1.2,0.4-1.7,0.6	c-1.2,4.7-2.2,9.3-3,13.7c-0.8,4.5-1.7,8.9-2.5,13.4c1-0.2,2.2-0.3,3.4-0.4s2.3-0.2,3.3-0.3c0.2-0.6,0.4-1.2,0.5-1.7s0.3-1,0.4-1.5	c0.1-0.5,0.3-1.1,0.4-1.7c0.2-0.6,0.4-1.4,0.6-2.4c2.8,0.2,5.2-0.1,7.3-0.9c2.1-0.7,3.8-1.8,5.2-3.1c0.4-0.4,0.8-0.8,1.1-1.2	c-0.2,1.4-0.3,3-0.3,4.6c0.1,1.9,0.4,3.6,1.1,5.1c0.6,1.5,1.5,2.8,2.7,3.8c1.1,1,2.5,1.8,4.1,2.3s3.4,0.7,5.4,0.5	c2.2-0.2,4.2-0.8,6.1-1.8c1.9-1,3.5-2.2,4.9-3.7s2.5-3.3,3.4-5.3c0.6-1.3,1-2.7,1.3-4.1c0.2,3.3,0.5,6.6,0.8,9.7	c0.5-0.1,0.9-0.2,1.3-0.2c0.4-0.1,0.7-0.1,1.1-0.1s0.7-0.1,1.1-0.1c0.4,0,0.8-0.1,1.2-0.1c0.4-0.8,0.8-1.7,1.3-2.6s0.9-1.8,1.4-2.8	s0.9-1.9,1.4-2.8c0.4-0.9,0.8-1.8,1.2-2.6c0,2,0.1,3.9,0.3,5.6c0.1,1.8,0.2,3.3,0.3,4.6c0.8-0.1,1.6-0.2,2.4-0.3	c0.7-0.1,1.6-0.1,2.5-0.2C99.1,76.7,99,76.8,99,77c-0.4,1.3-0.3,2.4,0.4,3.4s1.8,1.7,3.3,2c0.7,0.1,1.5,0.1,2.2-0.1	c0.7-0.1,1.4-0.4,2.1-0.7c0.6-0.3,1.2-0.8,1.7-1.3s0.8-1.1,1.1-1.8c0.2-0.6,0.3-1.3,0.3-1.9c-0.1-0.6-0.3-1.1-0.6-1.6	s-0.8-0.9-1.3-1.2c-0.6-0.3-1.2-0.6-1.9-0.6c-0.8-0.1-1.5-0.1-2.2,0s-1.4,0.4-2.1,0.7c-0.6,0.3-1.2,0.8-1.7,1.3c0,0,0,0.1-0.1,0.1	c0.9-1.7,1.8-3.5,2.6-5.2c1-2.1,2-4.2,3-6.3c1-2.1,1.9-4.2,2.9-6.2c0.3-0.6,0.5-1.2,0.8-1.8c-1.6,6.2-3.7,14.3-3.9,15.1	c1.1,0,0.7,0.1,1.8,0.2c1,0.1,1.3,0.2,2.5,0.5c0.7-1.4,1.5-2.9,2.5-4.7c1-1.8,2-3.6,3.2-5.6c1.1-2,2.3-3.9,3.6-5.9	c1.3-2,2.5-3.9,3.9-5.7C120.9,49.4,119,49,117,48.7z M48.7,62.3c-0.3,0.7-0.6,1.3-1.1,1.8c-0.6,0.6-1.4,1-2.3,1.3	c-0.9,0.3-2,0.4-3.2,0.3c0.3-1.2,0.5-2.4,0.7-3.7s0.5-2.4,0.7-3.6c0.6-0.3,1.2-0.5,1.7-0.6c0.6-0.1,1.1-0.2,1.6-0.1	c0.8,0.1,1.3,0.3,1.7,0.8c0.3,0.5,0.5,1.1,0.5,1.7C49.1,60.9,48.9,61.6,48.7,62.3z M74.8,68.2c-0.1,0.9-0.3,1.8-0.7,2.7	c-0.4,0.8-1,1.6-1.6,2.3c-0.6,0.7-1.4,1.2-2.2,1.6s-1.7,0.7-2.6,0.8c-0.9,0.1-1.7,0-2.4-0.2c-0.7-0.3-1.3-0.6-1.8-1.2	c-0.5-0.5-0.9-1.2-1.1-2c-0.2-0.8-0.3-1.6-0.2-2.6c0.1-0.9,0.3-1.8,0.7-2.7c0.4-0.9,0.9-1.6,1.5-2.3c0.6-0.7,1.3-1.2,2.1-1.7	c0.8-0.4,1.6-0.7,2.5-0.8c0.9-0.1,1.7,0,2.5,0.3s1.4,0.7,1.9,1.3c0.5,0.6,0.9,1.2,1.2,2C74.9,66.4,74.9,67.3,74.8,68.2z"/></svg>