<?xml version="1.0" encoding="utf-8"?><!-- Generator: Adobe Illustrator 21.0.2, SVG Export Plug-In . SVG Version: 6.00 Build 0)  --><svg version="1.1" id="Layer_1" xmlns="http://www.w3.org/2000/svg" xmlns:xlink="http://www.w3.org/1999/xlink" x="0px" y="0px"	 viewBox="0 0 174.5 88.4" style="enable-background:new 0 0 174.5 88.4;" xml:space="preserve"><style type="text/css">	.st0{fill:#DD3432;}	.st1{fill:#FFCA60;}</style><polygon class="st0" points="46.3,66.7 0,70.5 35.7,39.8 5.7,7.5 60.7,16.9 76.6,1.2 98.6,15.6 153,0 126.5,35.9 174.5,56 	121.4,63.3 141.4,86 89.3,69.7 48.6,88.4 "/><polygon class="st1" points="136.2,81.8 90.2,65.9 53,83 50.9,63 11.3,66.2 41.9,39.8 16.3,12.2 63.3,20.2 78.3,5.4 99.1,18.9 	145.3,5.7 122.3,37 163.3,54.1 115.4,60.7 "/><path d="M125.5,33.6c-1.4,0-2.8,0.1-4.1,0.4c-0.2,0.4-0.4,1-0.6,1.7c-0.1,0.3-0.2,0.6-0.3,0.9c-0.2-0.2-0.4-0.4-0.6-0.6	c-0.7-0.5-1.4-1-2.2-1.3c-1.3,1.1-2.6,2.2-3.8,3.5s-2.5,2.5-3.7,4c0.3-1,0.7-2.1,1.1-3.2c0.4-1.1,0.9-2.3,1.3-3.6c-0.5,0-1,0-1.5,0	s-1,0-1.4,0s-0.9,0-1.4,0c-0.4,0-0.8,0-1.2,0.1c0.1-0.1,0.1-0.3,0.2-0.4c0.2-0.6,0.5-1.3,0.8-2.1c-0.7-0.1-1.4-0.2-2.2-0.2	c-0.8-0.1-1.6-0.1-2.5-0.1s-1.8,0.1-2.7,0.2s-1.8,0.3-2.8,0.6c-1.4,0.4-2.7,1-4,1.9s-2.4,1.8-3.3,2.9c-1,1.1-1.8,2.4-2.4,3.7	c-0.4,0.9-0.7,1.7-0.9,2.7c0-0.5,0-1,0-1.4c0-3.2-0.1-6.4-0.1-9.6c-1.1,0-2.3,0-3.4,0c-1.1,0-2.3,0.1-3.6,0.3	c-1.6,3-3.1,6.1-4.5,9.3c-0.8,1.6-1.5,3.3-2.2,4.9c0.4-1.6,0.9-3.3,1.3-4.9c1-3.8,2.2-7.7,3.5-11.6c-1.2-0.1-2.3-0.1-3.4-0.1	c-1.1,0-2.2,0.1-3.3,0.3c-0.5,1.5-0.9,3-1.3,4.5c-0.4,1.5-0.8,3-1.2,4.5c-0.8,0-1.7,0.1-2.6,0.1c-1,0-1.9,0.1-2.8,0.2	c0.5-1.6,0.9-3.2,1.4-4.8s1-3.2,1.5-4.8c-1.2-0.1-2.4-0.1-3.6-0.1c-1.2,0-2.4,0.1-3.6,0.3c-0.3,1.1-0.6,2.2-0.9,3.3	c-0.5,0-1.1,0-1.7,0c-1.1,0-2.1,0-3,0.1c-0.6,1.4-1.3,2.9-2,4.5s-1.5,3.1-2.2,4.6c0-0.6,0-1.3,0-2c0-0.7,0-1.5,0.1-2.2	c0-0.8,0.1-1.5,0.1-2.3s0.1-1.5,0.1-2.2c-0.6,0-1.2,0-1.8,0s-1.1,0.1-1.6,0.1c-0.7,1.4-1.5,2.9-2.3,4.5c-0.8,1.5-1.6,3-2.4,4.5	c0.1-0.7,0.1-1.5,0.2-2.3c0.1-0.8,0.1-1.6,0.2-2.4s0.2-1.6,0.3-2.4s0.2-1.5,0.4-2.3c-1,0-1.9,0-2.8,0c-0.9,0-1.8,0.1-2.6,0.2	c-0.2,3.2-0.4,6.3-0.4,9.5c-0.1,3.1-0.1,6.2,0,9.1c0.4,0,0.7-0.1,1-0.1s0.6,0,0.9,0s0.6,0,0.9,0c0.3,0,0.6,0,1,0	c0.4-0.6,0.8-1.2,1.2-1.9c0.4-0.7,0.8-1.4,1.2-2.1s0.8-1.4,1.2-2.1s0.8-1.3,1.1-1.9c-0.1,1.5-0.1,3-0.2,4.4s0,2.6,0,3.6	c0.6-0.1,1.2-0.1,1.9-0.1c0.6,0,1.3,0,2.1,0c1-1.6,2-3.2,2.9-4.7c0.9-1.6,1.8-3.1,2.7-4.7c0.8-1.5,1.7-3,2.5-4.5	c-0.3,1.2-0.6,2.5-0.9,3.7c-0.9,3.9-1.8,7.8-2.6,11.5c1-0.1,2-0.1,3-0.1s2.1,0,3.1,0.1c0.3-1.2,0.7-2.5,1-3.7s0.7-2.5,1-3.8	c0.9,0,1.8,0,2.8-0.1c1,0,1.9,0,2.8,0c-0.3,1.2-0.6,2.4-0.9,3.7c-0.3,1.3-0.5,2.5-0.8,3.7c1,0,2-0.1,3-0.1s2,0,3,0.1	c0.2-0.8,0.4-1.6,0.7-2.5c1.2-0.1,2.5-0.1,3.9,0.1c0.3-0.5,0.6-1,0.8-1.5s0.5-1,0.7-1.4c0.9-0.1,1.7-0.1,2.4-0.1s1.5,0,2.2-0.1	c0,0.6,0,1.1-0.1,1.7c0,0.6,0,1.1-0.1,1.6c0.8-0.1,1.6-0.1,2.4-0.1s1.7,0,2.4,0.1c0-0.8,0.1-1.5,0.1-2.3c0,0,0,0,0,0.1	c0.3,1.2,0.9,2.3,1.7,3.1c0.8,0.9,1.8,1.6,3,2.1s2.6,0.7,4.1,0.7c0.7,0,1.6-0.1,2.5-0.3c0.9-0.2,1.8-0.5,2.6-0.9	c0.3-0.5,0.6-0.9,0.8-1.3c0,0.1-0.1,0.2-0.1,0.4c0.8,0,1.6-0.1,2.5-0.1s1.7,0,2.4,0.1c0.2-0.5,0.3-1,0.5-1.7c0.2-0.6,0.4-1.3,0.6-2	c0.2-0.7,0.4-1.4,0.7-2c0.2-0.7,0.5-1.3,0.7-1.9c0.6,1.4,1.2,2.8,1.8,4.2s1.3,2.7,1.9,3.9c0.8-0.2,1.7-0.5,2.7-0.7	c0.2,0,0.4-0.1,0.6-0.1c-0.2,0.3-0.3,0.6-0.4,0.9c-0.2,0.9,0,1.7,0.6,2.3c0.6,0.6,1.4,1,2.5,1c0.5,0,1-0.1,1.5-0.3	c0.5-0.2,0.9-0.4,1.4-0.7s0.7-0.7,1-1.1s0.5-0.8,0.6-1.3s0.1-0.9,0-1.3s-0.3-0.8-0.6-1.1c-0.3-0.3-0.6-0.5-1-0.7s-0.9-0.3-1.4-0.3	s-1,0.1-1.5,0.2c-0.4,0.1-0.8,0.3-1.2,0.6c-0.7-1.3-1.3-2.5-1.9-3.6c-0.7-1.4-1.4-2.8-2-4.2c1.2-1.1,2.5-2.3,3.8-3.4	c0.8-0.7,1.7-1.4,2.5-2.1c-0.2,0.7-0.3,1.4-0.5,2.1c-0.2,1-0.4,2.1-0.6,3.1c-0.2,1.1-0.4,2.1-0.6,3.1c-0.2,1-0.3,2-0.4,2.8	c0.8-0.1,1.5-0.2,2.2-0.2s1.5,0,2.4,0.1c0.4-1,0.8-2.2,1.3-3.5s1-2.7,1.6-4.1c0.6-1.5,1.2-2.9,1.9-4.4s1.4-2.9,2.1-4.3	C128.2,33.7,126.9,33.6,125.5,33.6z M81.1,44.9c-0.6,0-1.3,0-1.9,0.1c0.6-1.1,1.2-2.2,1.8-3.4c0.6-1.1,1.2-2.3,1.9-3.4	c0.1,1.1,0.1,2.2,0.2,3.4c0.1,1.2,0.1,2.3,0.1,3.4C82.4,44.9,81.7,44.9,81.1,44.9z M104.1,44.9c-0.4,1.6-0.8,3.2-1.3,4.8	c-0.6,0.3-1.2,0.5-1.7,0.7c-0.8,0.3-1.6,0.5-2.3,0.6s-1.3,0.2-1.8,0.1s-1.1-0.1-1.6-0.2c-0.9-0.2-1.5-0.7-1.9-1.4	c-0.3-0.7-0.5-1.4-0.4-2.1c0.3-1.4,0.8-2.6,1.6-3.7s1.8-2,2.9-2.6c1.1-0.7,2.4-1.1,3.7-1.3s2.7-0.1,4,0.3c0-0.1,0.1-0.2,0.1-0.3	C105,41.5,104.5,43.2,104.1,44.9z"/></svg>