<?xml version="1.0" encoding="utf-8"?><!-- Generator: Adobe Illustrator 21.0.2, SVG Export Plug-In . SVG Version: 6.00 Build 0)  --><svg version="1.1" id="Layer_1" xmlns="http://www.w3.org/2000/svg" xmlns:xlink="http://www.w3.org/1999/xlink" x="0px" y="0px"	 viewBox="0 0 136.5 133.3" style="enable-background:new 0 0 136.5 133.3;" xml:space="preserve"><style type="text/css">	.st0{fill:#FFCA60;}	.st1{fill:#DD3432;}</style><path class="st0" d="M64.4,125.1c-0.5-1.5-1.1-3-2-4.4c-2.3-3.5-6-6-10-7.2c-4.8-1.5-10.2-1.1-14.6,1.4c-3.2,1.8-5.9,4.6-8.7,7	c1.8-5,4.5-9.8,3.9-15.4c-0.5-4.6-3.1-9-6.7-11.9c-1.8-1.5-4.3-2.9-6.5-3.6c-4-1.3-11.7-1-12.9-0.8c4.3-2.7,5.3-3.6,7.8-7.3	c2.5-3.6,3.4-8.3,3-12.6C17.3,65.5,15,61,11,57.9c-1.8-1.4-5.8-4-9.3-5.3c4.6,0,8.2-0.1,12.5-2c3.8-1.7,6.9-5,8.8-8.7	c1.9-3.7,1.8-8,1-12c-0.3-1.8-0.9-3.5-1.4-5.2c-0.1-0.4-0.9-3-1.2-3.5c4.6,1.5,9.2,3.2,14.1,3.2c2.5,0,4.5-0.5,6.2-1.4	c3.4-2,6.3-4.9,7.9-8.5c1.2-2.8,1.4-6,1.8-9c4.8,5.1,9.3,9,16.7,9h0.2c11,0,19-13.6,19.4-14.5c-0.5,5-1,8.7,0.5,13.2	c1.3,3.9,4.3,7.3,7.8,9.6c4.4,2.8,9.7,3.8,14.7,2.3c0.8-0.2,7.9-2.9,9.6-4.1c-2.5,3.5-5.3,6.6-6.7,10.7c-1.4,4.2-0.8,9.1,1,13.1	c4.1,9.2,12.9,10.4,21.8,11.6c-4.1,1.6-8.5,2.8-12,5.6c-3.4,2.8-5.5,7.1-6.2,11.5c-0.8,5.1,0.4,10.4,3.8,14.4	c2.3,2.7,5.4,4.9,8.2,7.2c-4.5-0.9-9.1-2.6-13.7-1.8c-4.2,0.7-8,3.1-10.8,6.2c-3.5,4-5.3,9.1-4.6,14.4c0.5,3.5,1.8,6.9,2.8,10.2	c-5-5.6-9.6-10.4-17.6-10.4c-1.8,0-3.6,0.2-5.4,0.7c-9.8,2.7-12.4,10.1-15,18.9C65.8,129.6,65.3,127.7,64.4,125.1z"/><path class="st1" d="M126.8,57.8C121,57,115.3,52.7,112.2,46c-3.1-6.8-2.5-14.1,0.9-19c-5.3,2.5-12.5,2-18.7-2	c-6.3-4-9.8-10.5-9.6-16.4c-3,5-9.4,8.5-16.7,8.5c-6.2,0-11.6-2.3-15.1-6c-0.7,5.4-4.4,10.8-10.2,14.2c-5.4,3.1-12.8,1.4-17.7-0.1	c1.6,4.6,2.6,12.7-0.1,18C21.6,49.9,15.6,54,9.7,54.4c5.3,2.5,9.4,8.5,10.2,15.8c0.8,7.4-2,14.2-6.7,17.8c5.8-0.8,12.5,2,17.1,7.7	c4.7,5.8,6.1,13,4,18.6c4.5-3.8,11.5-5.1,18.5-2.9c7.1,2.3,12.2,7.6,13.5,13.4c1.7-5.6,6.9-10.6,14-12.5c7.2-2,14.3-0.3,18.6,3.9	c-1.7-5.6,0-12.6,4.9-18.1c5-5.6,11.9-8,17.7-6.9c-4.5-3.8-6.9-10.6-5.8-17.9C116.9,65.9,121.3,60,126.8,57.8z M65.8,20.8	c6.2,0,12.1,1.4,17.3,3.9c-4.2-1.2-8.7-1.9-13.3-1.9c-20.1,0-37.3,12.5-43.5,30C30.2,34.5,46.4,20.8,65.8,20.8z M26,57.7	c0.2-0.7,0.3-1.4,0.5-2.1C24.2,72.5,29.8,88.3,40,98.1C28.4,88.8,22.4,73.2,26,57.7z M57,108c-5.9-1.8-11.1-4.8-15.4-8.7	c3.7,2.4,7.8,4.3,12.2,5.6c19.3,5.8,39.3-1.3,50.3-16.2C95.1,105.2,75.6,113.6,57,108z M111.5,71.1c-1.1,6.1-3.6,11.6-7,16.3	c2-3.9,3.4-8.2,4.3-12.7c3.6-19.8-5.6-38.9-21.6-48.2C104.5,33.6,115,52,111.5,71.1z"/><path d="M121.4,60.5c-1.5-0.2-2.9-0.2-4.3-0.1c-0.2,0.4-0.5,1-0.8,1.8c-0.3,0.7-0.6,1.6-1,2.5s-0.7,1.9-1.1,3	c-0.3,0.8-0.6,1.7-0.9,2.6c0.3-1.2,0.6-2.3,0.8-3.5c0.6-2.3,1.1-4.6,1.7-6.8c-0.8-0.1-1.5-0.3-2.1-0.4s-1.3-0.2-1.9-0.2	c-0.6-0.1-1.2-0.1-1.9-0.1c-0.6,0-1.3,0-2.1,0c-1.4,1.7-2.8,3.6-4.2,5.6c-1.4,2-2.8,3.8-4.2,5.6c0-0.9,0-1.9,0.1-3	c0-1,0.1-2.1,0.1-3.2c0.1-1.1,0.1-2.2,0.2-3.2s0.1-2,0.2-2.9c-1.4-0.3-2.7-0.5-4-0.6s-2.6-0.2-4-0.3c-1.3,2.2-2.6,4.3-3.8,6.5	c-1.2,2.1-2.3,4.3-3.5,6.5c-0.6,1.2-1.2,2.3-1.8,3.5c0.3-2.2,0.6-4.5,0.9-6.8c0.5-4.3,1-8.6,1.4-12.8c-1.5-0.2-3-0.4-4.6-0.6	s-3.1-0.2-4.8-0.1c-2.6,3.8-5.1,7.7-7.5,11.7c-1,1.7-2,3.3-3,4.9c0.6-1.6,1.3-3.2,1.9-4.8c2.1-5.1,4.3-10.3,6.8-15.6	c-1.6-0.3-3.1-0.6-4.7-0.7c-1.5-0.2-3.1-0.2-4.7-0.2c-0.9,2-1.8,4.1-2.6,6c-0.8,2-1.6,4-2.4,6c-1.1-0.1-2.3-0.2-3.7-0.3	c-1.4-0.1-2.7-0.2-4-0.2c0.9-2.1,1.8-4.2,2.7-6.4c0.9-2.2,1.9-4.3,2.8-6.4c-1.6-0.3-3.3-0.5-5-0.7s-3.4-0.2-5-0.2	c-0.5,1.2-1,2.4-1.4,3.6c-1.1-0.2-2.2-0.4-3.3-0.5c-1.4-0.2-2.8-0.3-4.1-0.4c-1.1,1.8-2.2,3.7-3.4,5.7s-2.4,3.9-3.7,5.8	c0.1-0.8,0.2-1.7,0.3-2.7s0.3-2,0.4-3c0.2-1,0.3-2,0.5-3s0.4-2,0.5-2.9c-0.8-0.1-1.6-0.2-2.4-0.3c-0.8-0.1-1.5-0.1-2.2-0.1	c-1.2,1.8-2.5,3.7-3.8,5.6s-2.6,3.8-3.9,5.6c0.2-0.9,0.4-1.9,0.6-3c0.2-1,0.5-2.1,0.7-3.2s0.5-2.1,0.8-3.1s0.5-2,0.9-3	c-1.3-0.2-2.5-0.3-3.7-0.4s-2.4-0.2-3.5-0.2c-0.8,4.2-1.5,8.4-2.1,12.6s-1.1,8.3-1.5,12.2c0.5,0,0.9,0,1.3,0s0.8,0,1.2,0.1	c0.4,0,0.8,0.1,1.2,0.1c0.4,0,0.8,0.1,1.3,0.2c0.6-0.7,1.2-1.5,1.9-2.4c0.7-0.9,1.3-1.7,2-2.6s1.3-1.7,2-2.6	c0.6-0.9,1.2-1.7,1.8-2.4c-0.4,2.1-0.7,4-0.9,5.9c-0.2,1.8-0.4,3.5-0.6,4.8c0.8,0,1.7,0.1,2.5,0.2s1.8,0.2,2.8,0.4	c1.6-2,3.1-3.9,4.6-5.9s2.9-3.9,4.4-5.8c1.4-1.9,2.8-3.9,4.2-5.8c0.7-1,1.5-2.1,2.3-3.1c-1.3,3.2-2.5,6.5-3.7,9.6	c-1.9,5.3-3.8,10.5-5.6,15.6c1.3,0.1,2.8,0.2,4.2,0.3c1.5,0.1,2.9,0.3,4.3,0.6c0.7-1.7,1.4-3.3,2-5c0.7-1.7,1.3-3.4,2-5.1	c1.2,0.1,2.5,0.2,3.9,0.4c1.4,0.1,2.7,0.3,3.9,0.5c-0.6,1.6-1.2,3.3-1.8,5s-1.2,3.4-1.8,5c1.4,0.1,2.8,0.2,4.2,0.3	c1.4,0.1,2.8,0.3,4.2,0.7c0.5-1.3,1.1-2.7,1.6-4c1.6,0.1,3.2,0.3,4.9,0.7c0.5-0.6,0.9-1.2,1.3-1.8s0.8-1.2,1.2-1.8	c1.2,0.1,2.3,0.1,3.3,0.2s2,0.2,3,0.3c-0.1,0.7-0.2,1.5-0.3,2.2c-0.1,0.7-0.2,1.5-0.4,2.2c1.1,0,2.2,0.1,3.3,0.2	c0.5,0.1,0.9,0.1,1.4,0.2c-0.7,1.5-1.5,3-2.2,4.5c1.3,0.1,2.5,0.2,3.6,0.3c1.1,0.1,2.3,0.3,3.6,0.6c1.1-2,2.1-4.1,3.2-6.2	c1-2.1,2.3-4.4,3.8-6.8c-0.1,1.1-0.2,2.2-0.4,3.3c-0.1,1.1-0.2,2.3-0.3,3.5c-0.1,1.2-0.1,2.3-0.2,3.5c-0.1,1.1-0.1,2.3-0.1,3.3	c0.4,0,0.8,0,1.1,0.1c0.3,0,0.6,0,0.9,0.1c0.3,0,0.6,0.1,1,0.1c0.3,0.1,0.7,0.1,1.2,0.2c1.6-2,3.1-4.1,4.6-6.3	c1.5-2.2,3-4.3,4.5-6.4c-0.2,1-0.4,2.1-0.6,3.2c-0.2,1.2-0.4,2.3-0.6,3.5s-0.4,2.4-0.6,3.6s-0.4,2.3-0.5,3.3	c1.3,0.1,2.4,0.2,3.5,0.3c1.1,0.1,2.3,0.2,3.5,0.4c0.2-0.7,0.3-1.5,0.5-2.2c0.4,0.2,0.9,0.4,1.4,0.4c0.5,0.1,1.1,0,1.6-0.1	s1-0.3,1.5-0.6c0.5-0.3,0.9-0.6,1.2-1c0.3-0.4,0.6-0.8,0.8-1.3c0.2-0.5,0.2-0.9,0.2-1.4c-0.1-0.4-0.2-0.8-0.5-1.2	c-0.2-0.3-0.6-0.6-1-0.9c-0.4-0.2-0.9-0.4-1.4-0.5c-0.6-0.1-1.1-0.1-1.6,0c-0.2,0.1-0.5,0.1-0.7,0.2c0.2-0.6,0.3-1.3,0.5-1.9	c0.7,0,1.4,0,2,0.1c0.7,0.1,1.6,0.2,2.5,0.4c0.5-1,1.1-2.2,1.8-3.5s1.4-2.7,2.2-4.1s1.7-2.9,2.6-4.4c0.9-1.5,1.8-2.9,2.8-4.2	C124.3,60.9,122.9,60.7,121.4,60.5z M78.4,63.9c-0.1,1.6-0.3,3.1-0.5,4.5c-0.9-0.2-1.8-0.4-2.7-0.5c-0.8-0.1-1.7-0.2-2.6-0.2	c1-1.4,1.9-2.8,2.9-4.2s2-2.8,3.1-4.2C78.7,60.8,78.6,62.4,78.4,63.9z"/></svg>