<?xml version="1.0" encoding="utf-8"?><!-- Generator: Adobe Illustrator 21.0.2, SVG Export Plug-In . SVG Version: 6.00 Build 0)  --><svg version="1.1" id="Layer_1" xmlns="http://www.w3.org/2000/svg" xmlns:xlink="http://www.w3.org/1999/xlink" x="0px" y="0px"	 viewBox="0 0 180.3 80.8" style="enable-background:new 0 0 180.3 80.8;" xml:space="preserve"><style type="text/css">	.st0{fill:#71CBDF;}	.st1{fill:#FFFFFF;stroke:#BCB8B9;stroke-width:0.75;stroke-miterlimit:10;}	.st2{fill:#F8BA4A;}	.st3{fill:#FFCA60;}</style><path class="st0" d="M91,79.2c-6.3,0-12.3-2.5-16.8-6.9c-5.5,4.1-12.1,6.3-19,6.3c-17.5,0-31.8-14.2-31.8-31.7s14.3-31.7,31.8-31.7	c3.4,0,6.7,0.5,9.9,1.6C66.8,7.3,75.1,0,85.1,0c8.6,0,16.1,5.5,19,13.2c4.4-2.3,9.2-3.5,14.3-3.5c17.1,0,31,13.9,31,31	s-13.9,31-31,31c-3.1,0-6.1-0.4-9-1.3C105,76,98.3,79.2,91,79.2z"/><path class="st1" d="M118.6,13.4c-6.3,0-12.1,2.1-16.7,5.7c-0.6-8.6-7.8-15.4-16.6-15.4c-9.2,0-16.7,7.5-16.7,16.7	c0,0.6,0,1.3,0.1,1.9c-4-2.1-8.5-3.4-13.4-3.4c-15.6,0-28.2,12.5-28.2,28s12.6,28,28.2,28c7.5,0,14.3-2.9,19.4-7.7	c3.7,5.1,9.6,8.4,16.4,8.4c7.2,0,13.6-3.8,17.1-9.5c3.2,1.3,6.7,2,10.4,2c15.1,0,27.3-12.2,27.3-27.3S133.7,13.4,118.6,13.4z"/><path d="M40.7,64.1c1.1-2.2,2.4-4.5,3.8-7c1.4-2.5,3-5,4.6-7.5s3.3-5.1,5.1-7.5c1.2-1.7,2.5-3.4,3.8-5c-1.3,0.1-2.6,0.3-4,0.6	c-2.2,0.4-4.4,0.9-6.5,1.6l-1.8,0.6l0.6-1.8c0.3-1,0.7-2,1-2.8s0.6-1.6,0.9-2.3c0.3-0.7,0.7-1.5,1.1-2.3c0.4-0.8,0.9-1.6,1.4-2.5	l0.2-0.4l0.4-0.1c3.8-0.7,7.7-1.2,11.8-1.6c4-0.4,7.9-0.6,11.6-0.6h2l-1.2,1.6c-1.6,2.1-3.2,4.4-4.7,6.8c-1.6,2.4-3.1,4.9-4.5,7.3	c-1.5,2.5-2.9,5-4.2,7.4c-1,1.8-2,3.5-2.8,5.2c0.3,0,0.5-0.1,0.8-0.1c1-0.1,2-0.3,3-0.4c1-0.1,2-0.3,2.9-0.4c0.1,0,0.2,0,0.3,0	c1.3-3.5,2.6-7.1,3.9-10.7c1.8-4.9,3.7-9.7,5.6-14.4l0.2-0.5l0.5-0.1c1.9-0.4,3.7-0.8,5.4-0.9c1.7-0.2,3.4-0.3,5.1-0.4h0.9l0.1,0.9	c0.4,4.7,0.9,9.5,1.3,14.3c0.1,0.8,0.1,1.6,0.2,2.4c1.1-5.7,2.4-11.6,3.9-17.5l0.1-0.5l0.5-0.2c0.7-0.3,1.4-0.5,2.3-0.8	s1.8-0.6,2.9-0.8c1-0.3,2.1-0.5,3.2-0.7s2.2-0.3,3.4-0.4c0.8,0,1.7-0.1,2.7-0.1h0.2c0.9,0,1.9,0.1,2.9,0.2c1,0.2,2.1,0.5,3.1,0.9	s2,1,2.8,1.8c0.2,0.1,0.3,0.3,0.5,0.5c0-0.3,0.1-0.5,0.1-0.8c0.2-1.2,0.4-2.3,0.6-3.2c0.2-1,0.4-1.7,0.6-2.3l0.2-0.5l0.5-0.2	c1.7-0.5,3.5-0.8,5.3-1c1.6-0.1,3.2-0.2,4.6-0.2h0.4h1.5l-0.6,1.4c-0.8,1.8-1.5,3.6-2.2,5.5s-1.3,3.8-1.9,5.7	c-0.6,1.9-1.1,3.7-1.6,5.3c-0.5,1.7-0.9,3.2-1.2,4.4l-0.2,0.7h-0.8c-0.8,0-1.5,0-2.1,0.1c0.5,0,1,0.1,1.4,0.3c0.7,0.2,1.2,0.6,1.7,1	c0.5,0.5,0.8,1,1.1,1.6c0.2,0.6,0.3,1.4,0.2,2.1c-0.1,0.7-0.3,1.4-0.7,2c-0.4,0.6-0.8,1.2-1.4,1.7c-0.5,0.5-1.2,0.9-1.9,1.2	c-0.7,0.3-1.4,0.5-2.2,0.5l0,0c-0.1,0-0.2,0-0.3,0c-1.5,0-2.7-0.4-3.6-1.3c-0.6-0.6-1-1.3-1.2-2.1c-1.6,1.3-3.6,2.3-5.8,3.1	c-2.4,0.8-5.1,1.3-8.1,1.3c-0.3,0-0.7,0-1.1,0c-0.2,0.9-0.4,1.7-0.6,2.4c-0.2,0.8-0.4,1.6-0.6,2.3s-0.4,1.3-0.5,2	c-0.2,0.6-0.4,1.4-0.7,2.3l-0.2,0.6l-4.9,0.4c-1.6,0.1-3.1,0.3-4.4,0.5L86,62.9l1.3-6.7c-0.5,0-1,0.1-1.4,0.1	c-1.2,0.1-2.4,0.3-3.5,0.5L81.2,57v-1.2c0-0.8,0-1.6-0.1-2.4L81,52c-0.8,0.1-1.5,0.2-2.3,0.2c-0.9,0.1-1.9,0.2-3,0.4	c-0.2,0.6-0.5,1.1-0.7,1.7c-0.3,0.8-0.7,1.6-1.1,2.4l-0.3,0.5h-0.8c-1.7,0-3.3,0.1-4.9,0.3c0,0-0.2,0.4-0.3,0.7	c-0.7,1.4-1.5,3-2.4,4.7L65,63.3l-0.5,0.1c-1.6,0.2-3.4,0.5-5.4,0.7c-1.9,0.2-3.9,0.4-5.9,0.6c-2,0.2-4,0.4-6,0.5	c-1.9,0.2-3.7,0.3-5.5,0.5l-1.8,0.2L40.7,64.1z M80.6,37.3c-0.3,0.7-0.7,1.5-1,2.3c-0.5,1.2-1.1,2.5-1.6,3.7c0.4,0,0.8-0.1,1.2-0.1	c0.6-0.1,1.3-0.1,2-0.1c-0.1-1.3-0.2-2.6-0.4-3.9C80.8,38.5,80.7,37.9,80.6,37.3z M103,33.7c-0.3,1.4-0.6,2.8-0.8,4.3	c-0.2,1.2-0.4,2.4-0.7,3.7c1,0,1.9-0.2,2.7-0.4c1.1-0.3,1.9-0.8,2.6-1.5c0.5-0.5,0.9-1.2,1.2-2c0.3-0.8,0.5-1.6,0.5-2.3	s-0.2-1.2-0.5-1.7c-0.1-0.1-0.4-0.6-1.5-0.7h-0.1c-0.5,0-1.1,0.1-1.7,0.2C104,33.2,103.5,33.4,103,33.7z"/><path class="st2" d="M125.5,19.4c-1.8,0.1-3.4,0.4-5.1,0.9c-0.2,0.6-0.4,1.3-0.6,2.2s-0.4,2-0.6,3.1c-0.2,1-0.3,2.1-0.5,3.2	c-0.5-0.9-1.1-1.7-1.8-2.3c-0.8-0.7-1.6-1.2-2.6-1.6c-0.9-0.4-1.9-0.6-2.9-0.8s-2-0.2-2.9-0.2c-1,0-1.8,0-2.6,0.1	c-1.1,0.1-2.2,0.2-3.2,0.4c-1.1,0.2-2.1,0.4-3.1,0.6c-1,0.2-1.9,0.5-2.8,0.8s-1.6,0.6-2.2,0.8c-1.5,6.2-2.9,12.2-4,18	c-0.4,2.3-0.9,4.7-1.3,7c-0.2-3.3-0.4-6.7-0.7-10.2c-0.4-4.8-0.9-9.5-1.3-14.3c-1.7,0.1-3.4,0.2-5.1,0.4s-3.4,0.5-5.3,0.9	c-2,4.7-3.8,9.5-5.6,14.4c-1.4,3.8-2.8,7.6-4.1,11.3c-0.3,0-0.6,0.1-0.9,0.1c-0.9,0.1-1.9,0.3-2.9,0.4c-1,0.1-2,0.3-3,0.4	c-1,0.1-1.9,0.2-2.7,0.3c1.1-2.1,2.4-4.4,3.7-6.9c1.4-2.4,2.8-4.9,4.2-7.4c1.5-2.5,3-4.9,4.5-7.4c1.6-2.4,3.1-4.7,4.7-6.9	c-3.7,0-7.6,0.3-11.6,0.6c-4,0.4-7.9,0.9-11.7,1.6c-0.5,0.9-1,1.7-1.4,2.4c-0.4,0.7-0.7,1.5-1,2.2s-0.6,1.5-0.9,2.3	c-0.3,0.8-0.6,1.7-0.9,2.8c2.1-0.7,4.3-1.2,6.6-1.6s4.4-0.7,6.4-0.8c-1.8,2.1-3.5,4.3-5.3,6.8c-1.7,2.4-3.4,4.9-5,7.5	c-1.6,2.5-3.1,5-4.6,7.5c-1.4,2.5-2.7,4.8-3.8,6.9c1.7-0.2,3.5-0.3,5.5-0.5s3.9-0.3,6-0.5c2-0.2,4-0.4,5.9-0.6	c1.9-0.2,3.7-0.4,5.4-0.7c0.9-1.7,1.7-3.3,2.3-4.7c0.2-0.4,0.4-0.8,0.5-1.2c1.8-0.3,3.7-0.4,5.7-0.4c0.4-0.8,0.7-1.5,1-2.3	s0.6-1.5,0.9-2.2c1.3-0.2,2.5-0.4,3.6-0.5s2.2-0.2,3.3-0.4c0,0.8,0.1,1.7,0.1,2.5s0.1,1.7,0.1,2.5c1.2-0.2,2.4-0.4,3.6-0.5	c0.9-0.1,1.8-0.1,2.7-0.2c-0.4,2.2-0.8,4.4-1.2,6.6c1.4-0.2,2.9-0.4,4.5-0.5s3-0.2,4.3-0.3c0.3-0.8,0.5-1.6,0.7-2.2	c0.2-0.6,0.4-1.3,0.5-2c0.2-0.7,0.4-1.4,0.6-2.3s0.5-1.9,0.8-3.2c3.6,0.2,6.8-0.2,9.5-1.2s5-2.3,6.8-4.1c0.2-0.2,0.3-0.3,0.5-0.5	c-0.1,0.3-0.2,0.6-0.2,0.9c-0.1,1.2,0.2,2.1,1,2.9c0.8,0.7,1.8,1.1,3.2,1c0.6-0.1,1.3-0.2,1.9-0.5s1.1-0.6,1.6-1s0.9-0.9,1.2-1.4	c0.3-0.5,0.5-1.1,0.6-1.7c0.1-0.6,0-1.1-0.1-1.6c-0.2-0.5-0.5-0.9-0.8-1.3c-0.4-0.3-0.8-0.6-1.3-0.8s-1.1-0.2-1.8-0.2	c-0.7,0-1.3,0.2-1.9,0.4c-0.4,0.2-0.9,0.4-1.2,0.7c0.6-0.9,1-1.8,1.4-2.8c0.5-0.1,1-0.2,1.4-0.2c0.9-0.1,1.9-0.2,3-0.2	c0.3-1.3,0.8-2.8,1.3-4.5s1-3.5,1.6-5.3c0.6-1.9,1.3-3.8,1.9-5.7c0.7-1.9,1.4-3.8,2.2-5.6C128.9,19.3,127.2,19.3,125.5,19.4z	 M79.6,44.9c-0.9,0.1-1.9,0.2-2.9,0.3c0.7-1.7,1.5-3.5,2.3-5.2c0.8-1.8,1.6-3.5,2.4-5.3c0.2,1.7,0.5,3.3,0.7,5.1	c0.2,1.7,0.4,3.4,0.5,5C81.5,44.8,80.5,44.8,79.6,44.9z M109.1,38.8c-0.4,0.9-0.8,1.7-1.4,2.3c-0.8,0.8-1.8,1.4-3.1,1.7	c-1.2,0.4-2.6,0.5-4.1,0.4c0.3-1.6,0.6-3.2,0.9-4.8s0.6-3.2,0.9-4.8c0.8-0.4,1.5-0.7,2.3-0.9c0.8-0.1,1.5-0.2,2.1-0.2	c1,0.1,1.8,0.5,2.2,1.1c0.4,0.7,0.7,1.4,0.7,2.3C109.7,37,109.5,37.9,109.1,38.8z"/><path class="st3" d="M32.4,53.3l8.7-1.7c-1-1.5-2.1-3-3.3-4.5L24,50.2l7.3,9.2L13,62.7l4.2,7.6L0,75.4l24.4-2.7l-4.8-6.9l19-3.4	L32.4,53.3z"/><path class="st3" d="M43.6,22l6,6.5c0.8-1.7,1.5-3.4,2.1-5.1l-9.9-10.1l-4,11.1L25.4,10.6l-4.3,7.6L7.8,6.3l15.1,19.4l3.3-7.7	L39,32.4L43.6,22z"/><path class="st3" d="M140.5,35.4l-7.4-4.9c-0.3,1.8-0.6,3.6-0.8,5.5l12,7.5l1.3-11.7l15.3,10.5l2.4-8.4l15.8,8.5L159.8,27l-1.4,8.3	l-15.9-10.9L140.5,35.4z"/></svg>